STARTFONT 2.1
COMMENT
COMMENT Converted from OpenType font "ArialB.otf" by "otf2bdf 3.0".
COMMENT
FONT -FreeType-Arial-Bold-R-Normal--36-260-100-100-P-180-ISO10646-1
SIZE 26 100 100
FONTBOUNDINGBOX 63 50 -23 -14
STARTPROPERTIES 19
FOUNDRY "FreeType"
FAMILY_NAME "Arial"
WEIGHT_NAME "Bold"
SLANT "R"
SETWIDTH_NAME "Normal"
ADD_STYLE_NAME ""
PIXEL_SIZE 36
POINT_SIZE 260
RESOLUTION_X 100
RESOLUTION_Y 100
SPACING "P"
AVERAGE_WIDTH 180
CHARSET_REGISTRY "ISO10646"
CHARSET_ENCODING "1"
FONT_ASCENT 32
FONT_DESCENT 7
COPYRIGHT "© 2006 The Monotype Corporation. All Rights Reserved."
_OTF_FONTFILE "ArialB.otf"
_OTF_PSNAME "Arial-BoldMT"
ENDPROPERTIES
CHARS 1425
STARTCHAR 0020
ENCODING 32
SWIDTH 276 0
DWIDTH 10 0
BBX 0 0 0 0
BITMAP
ENDCHAR
STARTCHAR 0021
ENCODING 33
SWIDTH 332 0
DWIDTH 12 0
BBX 6 26 3 0
BITMAP
FC
FC
FC
FC
FC
FC
FC
F8
F8
78
78
78
78
78
78
78
78
78
70
00
00
F8
F8
F8
F8
F8
ENDCHAR
STARTCHAR 0022
ENCODING 34
SWIDTH 470 0
DWIDTH 17 0
BBX 13 9 2 17
BITMAP
F8F8
F8F8
F8F8
F8F8
F8F8
F8F8
F8F8
78F8
7878
ENDCHAR
STARTCHAR 0023
ENCODING 35
SWIDTH 553 0
DWIDTH 20 0
BBX 20 26 0 0
BITMAP
01E3C0
03C3C0
03C3C0
03C3C0
03C3C0
03C780
078780
FFFFF0
FFFFF0
FFFFF0
078F00
0F0F00
0F0F00
0F0F00
0F0F00
0F1E00
FFFFF0
FFFFF0
FFFFF0
FFFFF0
1C3C00
3C3C00
3C3C00
3C3C00
3C3C00
387800
ENDCHAR
STARTCHAR 0024
ENCODING 36
SWIDTH 553 0
DWIDTH 20 0
BBX 17 32 1 -4
BITMAP
00C000
00C000
07F800
1FFC00
3FFE00
3FFF00
7CDF00
7CCF80
78C800
78C000
7CC000
7EC000
3FC000
3FF800
1FFE00
07FF00
01FF80
00FF80
00CF80
00C780
18C780
F8C780
7CC780
7ECF80
7FFF00
3FFF00
1FFE00
07F800
00C000
00C000
00C000
00C000
ENDCHAR
STARTCHAR 0025
ENCODING 37
SWIDTH 886 0
DWIDTH 32 0
BBX 28 27 2 -1
BITMAP
3F001C00
7FC03C00
FFC03800
F1E07800
F1E07000
E1E0F000
E1E0E000
E1E1E000
F1E1C000
F1E3C000
FFC38000
7FC78000
3F070000
000F0200
000E1FC0
001E3FE0
001C3CF0
003C78F0
003878F0
007878F0
007078F0
00F078F0
00E078F0
01E078F0
01C03FF0
03C01FE0
03800F80
ENDCHAR
STARTCHAR 0026
ENCODING 38
SWIDTH 720 0
DWIDTH 26 0
BBX 23 27 2 -1
BITMAP
03FC00
07FE00
0FFF00
1F8F80
1F0780
1F0780
1F0780
1F8F80
0FFF00
0FFE00
07FC00
07F800
1FF800
3FFC00
7EFE78
FC7E78
F83FF8
F81FF8
F80FF0
F80FF0
F807F0
FC0FF8
7FFFFE
7FFFFE
3FFE7C
0FFC38
000008
ENDCHAR
STARTCHAR 0027
ENCODING 39
SWIDTH 249 0
DWIDTH 9 0
BBX 5 9 2 17
BITMAP
F8
F8
F8
F8
F8
F8
F8
F8
F0
ENDCHAR
STARTCHAR 0028
ENCODING 40
SWIDTH 332 0
DWIDTH 12 0
BBX 9 34 2 -8
BITMAP
0780
0F00
0F00
1E00
1E00
3E00
3C00
7C00
7C00
7800
7800
F800
F800
F800
F800
F800
F800
F800
F800
F800
F800
F800
7800
7800
7C00
7C00
3C00
3C00
1E00
1E00
0E00
0F00
0700
0780
ENDCHAR
STARTCHAR 0029
ENCODING 41
SWIDTH 332 0
DWIDTH 12 0
BBX 9 34 1 -8
BITMAP
7000
7800
7800
3C00
3C00
1E00
1E00
1F00
1F00
0F00
0F80
0F80
0F80
0F80
0F80
0F80
0F80
0F80
0F80
0F80
0F80
0F80
0F00
0F00
0F00
1F00
1E00
1E00
3C00
3C00
3800
7800
7000
F000
ENDCHAR
STARTCHAR 002A
ENCODING 42
SWIDTH 387 0
DWIDTH 14 0
BBX 12 12 1 14
BITMAP
0E00
0E00
8E00
E670
FFF0
FFF0
0F00
1F80
3B80
79C0
71C0
1080
ENDCHAR
STARTCHAR 002B
ENCODING 43
SWIDTH 581 0
DWIDTH 21 0
BBX 19 18 1 4
BITMAP
01F000
01F000
01F000
01F000
01F000
01F000
01F000
FFFFE0
FFFFE0
FFFFE0
FFFFE0
FFFFE0
01F000
01F000
01F000
01F000
01F000
01F000
ENDCHAR
STARTCHAR 002C
ENCODING 44
SWIDTH 276 0
DWIDTH 10 0
BBX 5 11 2 -6
BITMAP
F8
F8
F8
F8
F8
18
18
38
70
E0
40
ENDCHAR
STARTCHAR 002D
ENCODING 45
SWIDTH 332 0
DWIDTH 12 0
BBX 10 5 2 7
BITMAP
FFC0
FFC0
FFC0
FFC0
FFC0
ENDCHAR
STARTCHAR 002E
ENCODING 46
SWIDTH 276 0
DWIDTH 10 0
BBX 5 5 3 0
BITMAP
F8
F8
F8
F8
F8
ENDCHAR
STARTCHAR 002F
ENCODING 47
SWIDTH 276 0
DWIDTH 10 0
BBX 10 26 0 0
BITMAP
03C0
03C0
0380
0780
0780
0780
0700
0F00
0F00
0F00
0E00
0E00
1E00
1E00
1C00
1C00
3C00
3C00
3C00
3800
7800
7800
7800
7000
F000
F000
ENDCHAR
STARTCHAR 0030
ENCODING 48
SWIDTH 553 0
DWIDTH 20 0
BBX 16 26 2 0
BITMAP
07E0
1FF8
3FFC
3FFC
7E7E
7C3E
F81F
F81F
F81F
F81F
F81F
F81F
F81F
F81F
F81F
F81F
F81F
F81F
F81F
F81F
FC3E
7C3E
7FFE
3FFC
1FF8
0FF0
ENDCHAR
STARTCHAR 0031
ENCODING 49
SWIDTH 553 0
DWIDTH 20 0
BBX 11 26 3 0
BITMAP
01E0
01E0
03E0
07E0
0FE0
3FE0
FFE0
FFE0
FBE0
E3E0
83E0
03E0
03E0
03E0
03E0
03E0
03E0
03E0
03E0
03E0
03E0
03E0
03E0
03E0
03E0
03E0
ENDCHAR
STARTCHAR 0032
ENCODING 50
SWIDTH 553 0
DWIDTH 20 0
BBX 17 26 1 0
BITMAP
03F000
0FFC00
1FFF00
3FFF00
7E1F80
7C0F80
7C0F80
FC0F80
000F80
000F80
001F80
001F00
003F00
007E00
00FC00
01F800
07F000
07E000
0FC000
1F8000
3F0000
7FFF80
7FFF80
FFFF80
FFFF80
FFFF80
ENDCHAR
STARTCHAR 0033
ENCODING 51
SWIDTH 553 0
DWIDTH 20 0
BBX 18 26 1 0
BITMAP
03F000
0FFC00
1FFE00
3FFF00
7E3F00
7C1F00
7C1F00
001F00
001F00
003F00
01FE00
01FC00
01FC00
01FF00
001F00
000F80
000F80
000FC0
000FC0
F80F80
7C0F80
7E1F80
7FFF00
3FFF00
1FFE00
07F800
ENDCHAR
STARTCHAR 0034
ENCODING 52
SWIDTH 553 0
DWIDTH 20 0
BBX 18 26 1 0
BITMAP
001E00
003E00
007E00
007E00
00FE00
01FE00
03FE00
03FE00
07FE00
0FBE00
0F3E00
1F3E00
3E3E00
3C3E00
7C3E00
F83E00
FFFFC0
FFFFC0
FFFFC0
FFFFC0
FFFFC0
003E00
003E00
003E00
003E00
003E00
ENDCHAR
STARTCHAR 0035
ENCODING 53
SWIDTH 553 0
DWIDTH 20 0
BBX 17 26 2 0
BITMAP
1FFF00
1FFF00
3FFF00
3FFF00
3FFF00
3C0000
3C0000
7C0000
7C0000
7FF800
7FFC00
7FFE00
FFFF00
F83F00
001F80
000F80
000F80
000F80
000F80
F80F80
F81F00
FC1F00
7FFF00
7FFE00
3FFC00
0FF000
ENDCHAR
STARTCHAR 0036
ENCODING 54
SWIDTH 553 0
DWIDTH 20 0
BBX 17 26 2 0
BITMAP
03F000
0FFC00
1FFE00
3FFE00
7E3F00
7C1F00
FC1F00
F80000
F80000
F8E000
FBF800
FFFE00
FFFE00
FE3F00
FC1F00
F80F80
F80F80
F80F80
F80F80
F80F80
7C0F00
7E1F00
7FFF00
3FFE00
1FFC00
07F800
ENDCHAR
STARTCHAR 0037
ENCODING 55
SWIDTH 553 0
DWIDTH 20 0
BBX 16 26 2 0
BITMAP
FFFF
FFFF
FFFF
FFFF
FFFF
001E
003C
007C
00F8
00F8
01F0
01E0
03E0
03E0
07C0
07C0
0780
0F80
0F80
0F80
0F00
1F00
1F00
1F00
1F00
1F00
ENDCHAR
STARTCHAR 0038
ENCODING 56
SWIDTH 553 0
DWIDTH 20 0
BBX 17 26 1 0
BITMAP
03F000
0FFC00
1FFE00
3FFF00
7E1F00
7C0F80
7C0F80
7C0F80
7C0F00
3E1F00
3FFE00
0FFC00
0FFC00
1FFE00
3E3F00
7C0F80
7C0F80
780780
F80780
FC0F80
7C0F80
7E1F80
7FFF00
3FFF00
1FFE00
07F800
ENDCHAR
STARTCHAR 0039
ENCODING 57
SWIDTH 553 0
DWIDTH 20 0
BBX 17 26 1 0
BITMAP
03E000
0FF800
3FFC00
3FFE00
7E3F00
7C1F00
F81F80
F80F80
F80F80
F80F80
F80F80
F81F80
7C1F80
7F7F80
3FFF80
1FFF80
0FEF80
000F80
000F80
000F80
7C1F00
7C3F00
7FFE00
3FFE00
1FFC00
0FF000
ENDCHAR
STARTCHAR 003A
ENCODING 58
SWIDTH 332 0
DWIDTH 12 0
BBX 5 19 4 0
BITMAP
F8
F8
F8
F8
F8
00
00
00
00
00
00
00
00
00
F8
F8
F8
F8
F8
ENDCHAR
STARTCHAR 003B
ENCODING 59
SWIDTH 332 0
DWIDTH 12 0
BBX 5 25 3 -6
BITMAP
F8
F8
F8
F8
F8
00
00
00
00
00
00
00
00
00
F8
F8
F8
F8
F8
18
18
38
70
E0
40
ENDCHAR
STARTCHAR 003C
ENCODING 60
SWIDTH 581 0
DWIDTH 21 0
BBX 17 19 2 4
BITMAP
000180
000780
003F80
00FF80
03FF80
1FFE00
7FF000
FF8000
FE0000
FC0000
FF0000
FFE000
3FF800
07FF00
01FF80
007F80
001F80
000380
000080
ENDCHAR
STARTCHAR 003D
ENCODING 61
SWIDTH 581 0
DWIDTH 21 0
BBX 19 12 1 7
BITMAP
FFFFE0
FFFFE0
FFFFE0
FFFFE0
FFFFE0
000000
000000
000000
FFFFE0
FFFFE0
FFFFE0
FFFFE0
ENDCHAR
STARTCHAR 003E
ENCODING 62
SWIDTH 581 0
DWIDTH 21 0
BBX 17 19 2 4
BITMAP
C00000
F00000
FE0000
FF8000
FFE000
3FFC00
07FF00
00FF80
003F80
001F80
007F80
03FF80
0FFE00
7FF000
FFC000
FF0000
FC0000
E00000
800000
ENDCHAR
STARTCHAR 003F
ENCODING 63
SWIDTH 609 0
DWIDTH 22 0
BBX 18 26 2 0
BITMAP
07F800
1FFE00
3FFF00
7FFF80
7C0FC0
F807C0
F803C0
F803C0
0007C0
0007C0
001F80
003F80
007F00
00FE00
01F800
01F000
01F000
01E000
01E000
000000
000000
01F000
01F000
01F000
01F000
01F000
ENDCHAR
STARTCHAR 0040
ENCODING 64
SWIDTH 969 0
DWIDTH 35 0
BBX 34 34 1 -8
BITMAP
000FFF0000
003FFFC000
00FFFFF000
03F803F800
07E0007C00
0F80003E00
0F00001E00
1E07E7CF00
3C1FF7C700
383FFFC780
787E3F8380
787C1F8380
70F80F8380
70F00F8380
F1F00F0380
E1F00F0380
E1E00F0780
E1E01F0780
E1E01F0700
E1E01E0F00
F1F03E1E00
F1F07E3C00
70F8FFFC00
78FFFFF000
787FFFE000
3C1F1F8000
1E000003C0
1F00000780
0FC0001F00
07F0007E00
03FFFFFC00
00FFFFF000
001FFFC000
0000700000
ENDCHAR
STARTCHAR 0041
ENCODING 65
SWIDTH 720 0
DWIDTH 26 0
BBX 26 26 0 0
BITMAP
003F0000
003F0000
007F8000
007F8000
00FF8000
00FFC000
00FFC000
01F7E000
01F3E000
03F3E000
03E3F000
03E1F000
07C1F800
07C1F800
0FC0F800
0F80FC00
0FFFFC00
1FFFFE00
1FFFFE00
1FFFFE00
3F003F00
3E001F00
7E001F80
7C001F80
7C000F80
FC000FC0
ENDCHAR
STARTCHAR 0042
ENCODING 66
SWIDTH 720 0
DWIDTH 26 0
BBX 21 26 3 0
BITMAP
FFFE00
FFFF80
FFFFC0
FFFFE0
F83FF0
F803F0
F801F0
F801F0
F801F0
F803E0
FFFFE0
FFFFC0
FFFF80
FFFFE0
FFFFF0
F803F8
F801F8
F800F8
F800F8
F800F8
F801F8
F807F8
FFFFF0
FFFFE0
FFFFC0
FFFF00
ENDCHAR
STARTCHAR 0043
ENCODING 67
SWIDTH 720 0
DWIDTH 26 0
BBX 22 26 2 0
BITMAP
01FF00
07FFC0
0FFFF0
1FFFF0
3FC7F8
7F01FC
7E00FC
7C0078
FC0000
F80000
F80000
F80000
F80000
F80000
F80000
F80000
F80000
FC0070
FC007C
7E00FC
7E01F8
3F83F8
1FFFF0
0FFFE0
07FFC0
01FF00
ENDCHAR
STARTCHAR 0044
ENCODING 68
SWIDTH 720 0
DWIDTH 26 0
BBX 21 26 3 0
BITMAP
FFF800
FFFF00
FFFF80
FFFFC0
FFFFE0
F807F0
F803F0
F801F8
F801F8
F800F8
F800F8
F800F8
F800F8
F800F8
F800F8
F800F8
F800F8
F801F8
F801F8
F801F0
F803F0
F81FE0
FFFFE0
FFFFC0
FFFF00
FFFC00
ENDCHAR
STARTCHAR 0045
ENCODING 69
SWIDTH 664 0
DWIDTH 24 0
BBX 19 26 3 0
BITMAP
FFFFE0
FFFFE0
FFFFE0
FFFFE0
FFFFE0
F80000
F80000
F80000
F80000
F80000
FFFFC0
FFFFC0
FFFFC0
FFFFC0
FFFFC0
F80000
F80000
F80000
F80000
F80000
F80000
F80000
FFFFE0
FFFFE0
FFFFE0
FFFFE0
ENDCHAR
STARTCHAR 0046
ENCODING 70
SWIDTH 609 0
DWIDTH 22 0
BBX 17 26 3 0
BITMAP
FFFF80
FFFF80
FFFF80
FFFF80
FFFF80
F80000
F80000
F80000
F80000
F80000
F80000
FFFF00
FFFF00
FFFF00
FFFF00
F80000
F80000
F80000
F80000
F80000
F80000
F80000
F80000
F80000
F80000
F80000
ENDCHAR
STARTCHAR 0047
ENCODING 71
SWIDTH 775 0
DWIDTH 28 0
BBX 24 26 2 0
BITMAP
00FFC0
03FFF0
0FFFF8
1FFFFC
3FC1FE
3F007E
7E003E
7C003E
FC0000
F80000
F80000
F80000
F807FF
F807FF
F807FF
F807FF
FC001F
FC001F
7C001F
7E001F
3F003F
3FC1FF
1FFFFF
0FFFFE
07FFF8
01FFC0
ENDCHAR
STARTCHAR 0048
ENCODING 72
SWIDTH 720 0
DWIDTH 26 0
BBX 20 26 3 0
BITMAP
F801F0
F801F0
F801F0
F801F0
F801F0
F801F0
F801F0
F801F0
F801F0
F801F0
FFFFF0
FFFFF0
FFFFF0
FFFFF0
FFFFF0
F801F0
F801F0
F801F0
F801F0
F801F0
F801F0
F801F0
F801F0
F801F0
F801F0
F801F0
ENDCHAR
STARTCHAR 0049
ENCODING 73
SWIDTH 276 0
DWIDTH 10 0
BBX 6 26 2 0
BITMAP
FC
FC
FC
FC
FC
FC
FC
FC
FC
FC
FC
FC
FC
FC
FC
FC
FC
FC
FC
FC
FC
FC
FC
FC
FC
FC
ENDCHAR
STARTCHAR 004A
ENCODING 74
SWIDTH 553 0
DWIDTH 20 0
BBX 16 26 1 0
BITMAP
001F
001F
001F
001F
001F
001F
001F
001F
001F
001F
001F
001F
001F
001F
001F
001F
001F
081F
F81F
F81F
F81F
FC3F
FFFE
7FFE
3FFC
1FF0
ENDCHAR
STARTCHAR 004B
ENCODING 75
SWIDTH 720 0
DWIDTH 26 0
BBX 23 26 3 0
BITMAP
F801FC
F803F8
F807F0
F80FE0
F81FC0
F81F80
F83F00
F87E00
F8FC00
F9F800
FBF800
FFFC00
FFFC00
FFFE00
FFFF00
FF3F00
FE1F80
FC1F80
F80FC0
F80FE0
F807E0
F803F0
F803F8
F801F8
F801FC
F800FE
ENDCHAR
STARTCHAR 004C
ENCODING 76
SWIDTH 609 0
DWIDTH 22 0
BBX 18 26 3 0
BITMAP
F80000
F80000
F80000
F80000
F80000
F80000
F80000
F80000
F80000
F80000
F80000
F80000
F80000
F80000
F80000
F80000
F80000
F80000
F80000
F80000
F80000
F80000
FFFFC0
FFFFC0
FFFFC0
FFFFC0
ENDCHAR
STARTCHAR 004D
ENCODING 77
SWIDTH 830 0
DWIDTH 30 0
BBX 25 26 3 0
BITMAP
FE007F80
FF00FF80
FF00FF80
FF00FF80
FF80FF80
FF81FF80
F781EF80
F781EF80
F7C3EF80
F7C3EF80
F3C3CF80
F3C3CF80
F3E7CF80
F3E7CF80
F1E78F80
F1E78F80
F1FF8F80
F1FF8F80
F0FF0F80
F0FF0F80
F0FF0F80
F0FF0F80
F07E0F80
F07E0F80
F07E0F80
F07E0F80
ENDCHAR
STARTCHAR 004E
ENCODING 78
SWIDTH 720 0
DWIDTH 26 0
BBX 20 26 3 0
BITMAP
F801F0
FC01F0
FC01F0
FE01F0
FE01F0
FF01F0
FF81F0
FF81F0
FFC1F0
FFE1F0
FFE1F0
FBF1F0
F9F1F0
F9F9F0
F8FDF0
F8FDF0
F87FF0
F83FF0
F83FF0
F81FF0
F80FF0
F80FF0
F807F0
F807F0
F803F0
F801F0
ENDCHAR
STARTCHAR 004F
ENCODING 79
SWIDTH 775 0
DWIDTH 28 0
BBX 25 26 2 0
BITMAP
01FF8000
07FFE000
0FFFF000
1FFFF800
3FC3FC00
7F00FE00
7E007E00
FC003F00
FC001F00
F8001F00
F8001F80
F8001F80
F8001F80
F8001F80
F8001F80
F8001F80
F8001F00
FC001F00
FC003F00
7E007E00
7F00FE00
3FC1FC00
1FFFFC00
0FFFF800
07FFE000
01FF8000
ENDCHAR
STARTCHAR 0050
ENCODING 80
SWIDTH 664 0
DWIDTH 24 0
BBX 19 26 3 0
BITMAP
FFFC00
FFFF00
FFFFC0
FFFFC0
FFFFE0
F807E0
F803E0
F803E0
F803E0
F803E0
F807E0
F81FE0
FFFFC0
FFFFC0
FFFF80
FFFE00
F80000
F80000
F80000
F80000
F80000
F80000
F80000
F80000
F80000
F80000
ENDCHAR
STARTCHAR 0051
ENCODING 81
SWIDTH 775 0
DWIDTH 28 0
BBX 25 29 2 -3
BITMAP
01FF8000
07FFE000
0FFFF800
1FFFFC00
3FC3FC00
7F00FE00
7E007E00
FC003F00
FC001F00
F8001F00
F8001F80
F8001F80
F8001F80
F8001F80
F8001F80
F8001F00
F8001F00
FC081F00
FC0E3F00
7E1FFE00
7F0FFE00
3F83FC00
1FFFFC00
0FFFFE00
07FFFF80
01FFBF80
00000F80
00000700
00000100
ENDCHAR
STARTCHAR 0052
ENCODING 82
SWIDTH 720 0
DWIDTH 26 0
BBX 23 26 3 0
BITMAP
FFFE00
FFFFC0
FFFFE0
FFFFF0
FFFFF0
F801F8
F801F8
F801F8
F801F8
F801F8
F803F0
FFFFF0
FFFFE0
FFFF80
FFFC00
F87E00
F83F80
F81F80
F80FC0
F80FE0
F807E0
F803F0
F803F8
F801F8
F800FC
F800FE
ENDCHAR
STARTCHAR 0053
ENCODING 83
SWIDTH 664 0
DWIDTH 24 0
BBX 21 26 1 0
BITMAP
03FF00
0FFFC0
1FFFE0
3FFFE0
3F07F0
7E03F0
7C01F8
7E01F8
7F0000
3FC000
3FFC00
1FFF80
0FFFE0
03FFF0
007FF0
0007F8
0001F8
7C00F8
FC00F8
7C00F8
7E01F8
7F03F8
3FFFF0
1FFFE0
0FFFC0
03FF80
ENDCHAR
STARTCHAR 0054
ENCODING 84
SWIDTH 609 0
DWIDTH 22 0
BBX 20 26 1 0
BITMAP
FFFFF0
FFFFF0
FFFFF0
FFFFF0
FFFFF0
01F800
01F800
01F800
01F800
01F800
01F800
01F800
01F800
01F800
01F800
01F800
01F800
01F800
01F800
01F800
01F800
01F800
01F800
01F800
01F800
01F800
ENDCHAR
STARTCHAR 0055
ENCODING 85
SWIDTH 720 0
DWIDTH 26 0
BBX 20 26 3 0
BITMAP
F801F0
F801F0
F801F0
F801F0
F801F0
F801F0
F801F0
F801F0
F801F0
F801F0
F801F0
F801F0
F801F0
F801F0
F801F0
F801F0
F801F0
F801F0
F801F0
F801F0
FC03F0
FF07E0
7FFFE0
3FFFC0
1FFF80
0FFF00
ENDCHAR
STARTCHAR 0056
ENCODING 86
SWIDTH 664 0
DWIDTH 24 0
BBX 24 26 0 0
BITMAP
FC003F
FC003F
7C003E
7E007E
3E007C
3E007C
3F00FC
1F00F8
1F80F8
1F81F8
0F81F0
0FC1F0
0FC3F0
07C3E0
07E3E0
07E7E0
03E7C0
03F7C0
01FF80
01FF80
01FF80
00FF00
00FF00
00FF00
007E00
007E00
ENDCHAR
STARTCHAR 0057
ENCODING 87
SWIDTH 941 0
DWIDTH 34 0
BBX 34 26 0 0
BITMAP
FC03F007C0
FC03F80FC0
7C07F80F80
7C07F80F80
7C07F80F80
7E07FC0F80
3E0FFC1F80
3E0FFC1F00
3E0FBC1F00
3F0F3E1F00
1F1F3E1F00
1F1F3E3E00
1F1F1E3E00
1F1E1F3E00
0FBE1F3E00
0FBE1F7C00
0FBC0F7C00
0FFC0FFC00
0FFC0FFC00
07FC0FF800
07F807F800
07F807F800
07F807F800
03F803F000
03F003F000
03F003F000
ENDCHAR
STARTCHAR 0058
ENCODING 88
SWIDTH 664 0
DWIDTH 24 0
BBX 24 26 0 0
BITMAP
7E007E
3F00FC
3F00FC
1F81F8
0FC1F0
0FC3F0
07E7E0
03F7E0
03FFC0
01FF80
00FF80
00FF00
007E00
00FF00
00FF00
01FF80
03FFC0
03FFC0
07E7E0
0FC3F0
0FC3F0
1F81F8
3F81FC
3F00FC
7E007E
FE007F
ENDCHAR
STARTCHAR 0059
ENCODING 89
SWIDTH 664 0
DWIDTH 24 0
BBX 24 26 0 0
BITMAP
FC003F
7E007E
7E007E
3F00FC
1F80F8
1F81F8
0FC3F0
07C3E0
07E7E0
03F7C0
03FFC0
01FF80
00FF00
00FF00
007E00
007E00
007E00
007E00
007E00
007E00
007E00
007E00
007E00
007E00
007E00
007E00
ENDCHAR
STARTCHAR 005A
ENCODING 90
SWIDTH 609 0
DWIDTH 22 0
BBX 21 26 0 0
BITMAP
3FFFF8
3FFFF8
3FFFF8
3FFFF8
3FFFF8
0007F0
000FE0
000FC0
001F80
003F80
007F00
00FE00
00FC00
01F800
03F000
07F000
0FE000
1FC000
1F8000
3F0000
7F0000
FE0000
FFFFF8
FFFFF8
FFFFF8
FFFFF8
ENDCHAR
STARTCHAR 005B
ENCODING 91
SWIDTH 332 0
DWIDTH 12 0
BBX 8 33 3 -7
BITMAP
FF
FF
FF
FF
F0
F0
F0
F0
F0
F0
F0
F0
F0
F0
F0
F0
F0
F0
F0
F0
F0
F0
F0
F0
F0
F0
F0
F0
F0
FF
FF
FF
FF
ENDCHAR
STARTCHAR 005C
ENCODING 92
SWIDTH 276 0
DWIDTH 10 0
BBX 10 26 0 0
BITMAP
F000
F000
7000
7800
7800
7800
3800
3800
3C00
3C00
1C00
1C00
1E00
1E00
1E00
0E00
0F00
0F00
0F00
0700
0780
0780
0780
0380
03C0
03C0
ENDCHAR
STARTCHAR 005D
ENCODING 93
SWIDTH 332 0
DWIDTH 12 0
BBX 8 33 1 -7
BITMAP
FF
FF
FF
FF
0F
0F
0F
0F
0F
0F
0F
0F
0F
0F
0F
0F
0F
0F
0F
0F
0F
0F
0F
0F
0F
0F
0F
0F
0F
FF
FF
FF
FF
ENDCHAR
STARTCHAR 005E
ENCODING 94
SWIDTH 581 0
DWIDTH 21 0
BBX 17 14 2 12
BITMAP
03E000
03E000
07F000
07F000
0FF800
0F7800
1F7C00
1F7C00
1E3E00
3E3E00
3C1F00
7C1F00
7C1F00
F80F80
ENDCHAR
STARTCHAR 005F
ENCODING 95
SWIDTH 553 0
DWIDTH 20 0
BBX 20 3 0 -7
BITMAP
FFFFF0
FFFFF0
FFFFF0
ENDCHAR
STARTCHAR 0060
ENCODING 96
SWIDTH 332 0
DWIDTH 12 0
BBX 8 5 1 21
BITMAP
FC
7C
3E
1E
0F
ENDCHAR
STARTCHAR 0061
ENCODING 97
SWIDTH 553 0
DWIDTH 20 0
BBX 18 19 1 0
BITMAP
07FC00
1FFE00
3FFF00
7FFF00
7C1F80
1C0F80
000F80
003F80
07FF80
1FFF80
7FCF80
7E0F80
F80F80
F80F80
FC1F80
FC3F80
7FFF80
3FFF80
1FC7C0
ENDCHAR
STARTCHAR 0062
ENCODING 98
SWIDTH 609 0
DWIDTH 22 0
BBX 19 26 2 0
BITMAP
F80000
F80000
F80000
F80000
F80000
F80000
F80000
F8FC00
FBFF00
FFFF80
FFFF80
FE0FC0
FC07C0
FC07C0
F807E0
F803E0
F803E0
F803E0
FC07E0
FC07C0
FC07C0
FE0FC0
FFFF80
FFFF80
FBFF00
F9FC00
ENDCHAR
STARTCHAR 0063
ENCODING 99
SWIDTH 553 0
DWIDTH 20 0
BBX 18 19 1 0
BITMAP
03F800
0FFE00
1FFF00
3FFF80
3E0F80
7C07C0
7C0400
7C0000
7C0000
FC0000
7C0000
7C0000
7C0780
7C07C0
7E0FC0
3FFF80
1FFF00
0FFE00
07FC00
ENDCHAR
STARTCHAR 0064
ENCODING 100
SWIDTH 609 0
DWIDTH 22 0
BBX 19 26 1 0
BITMAP
0003E0
0003E0
0003E0
0003E0
0003E0
0003E0
0003E0
07E3E0
0FFBE0
1FFFE0
3FFFE0
7E0FE0
7C07E0
7C07E0
7C03E0
7C03E0
FC03E0
7C03E0
7C03E0
7C07E0
7C07E0
7E0FE0
3FFFE0
1FFFE0
1FFBE0
07F3E0
ENDCHAR
STARTCHAR 0065
ENCODING 101
SWIDTH 553 0
DWIDTH 20 0
BBX 18 19 1 0
BITMAP
07F000
0FFC00
1FFE00
3FFF00
7E1F80
7C0F80
780780
F80780
FFFFC0
FFFFC0
FFFFC0
F80000
F80000
7C0E00
7C0F80
3F1F80
3FFF00
1FFE00
07FC00
ENDCHAR
STARTCHAR 0066
ENCODING 102
SWIDTH 332 0
DWIDTH 12 0
BBX 13 26 0 0
BITMAP
07F8
0FF8
0FF8
1FF0
1F00
1F00
1F00
FFF0
FFF0
FFF0
FFF0
1F00
1F00
1F00
1F00
1F00
1F00
1F00
1F00
1F00
1F00
1F00
1F00
1F00
1F00
1F00
ENDCHAR
STARTCHAR 0067
ENCODING 103
SWIDTH 609 0
DWIDTH 22 0
BBX 19 27 1 -8
BITMAP
07E3E0
0FFBE0
1FFFE0
3FFFE0
7E0FE0
7C07E0
7C07E0
7C03E0
7C03E0
FC03E0
7C03E0
7C03E0
7C07E0
7E07E0
7F0FE0
3FFFE0
1FFBE0
0FF3E0
07E3E0
0003E0
6003E0
7E07C0
7F0FC0
3FFFC0
1FFF80
0FFE00
007000
ENDCHAR
STARTCHAR 0068
ENCODING 104
SWIDTH 609 0
DWIDTH 22 0
BBX 17 26 3 0
BITMAP
F80000
F80000
F80000
F80000
F80000
F80000
F80000
F9F800
FBFE00
FFFF00
FFFF00
FC1F00
F81F80
F80F80
F80F80
F80F80
F80F80
F80F80
F80F80
F80F80
F80F80
F80F80
F80F80
F80F80
F80F80
F80F80
ENDCHAR
STARTCHAR 0069
ENCODING 105
SWIDTH 276 0
DWIDTH 10 0
BBX 5 26 3 0
BITMAP
F8
F8
F8
F8
F8
00
00
F8
F8
F8
F8
F8
F8
F8
F8
F8
F8
F8
F8
F8
F8
F8
F8
F8
F8
F8
ENDCHAR
STARTCHAR 006A
ENCODING 106
SWIDTH 276 0
DWIDTH 10 0
BBX 9 34 -2 -8
BITMAP
0F80
0F80
0F80
0F80
0F80
0000
0000
0F80
0F80
0F80
0F80
0F80
0F80
0F80
0F80
0F80
0F80
0F80
0F80
0F80
0F80
0F80
0F80
0F80
0F80
0F80
0F80
0F80
0F80
7F80
7F80
7F00
FF00
3800
ENDCHAR
STARTCHAR 006B
ENCODING 107
SWIDTH 553 0
DWIDTH 20 0
BBX 17 26 2 0
BITMAP
F80000
F80000
F80000
F80000
F80000
F80000
F80000
F81F80
F83F00
F87E00
F8FC00
F9F800
F9F000
FBE000
FFE000
FFF000
FFF000
FFF800
FEF800
FC7C00
F87E00
F83E00
F83F00
F81F00
F80F80
F80F80
ENDCHAR
STARTCHAR 006C
ENCODING 108
SWIDTH 276 0
DWIDTH 10 0
BBX 5 26 3 0
BITMAP
F8
F8
F8
F8
F8
F8
F8
F8
F8
F8
F8
F8
F8
F8
F8
F8
F8
F8
F8
F8
F8
F8
F8
F8
F8
F8
ENDCHAR
STARTCHAR 006D
ENCODING 109
SWIDTH 886 0
DWIDTH 32 0
BBX 28 19 2 0
BITMAP
F8FC1F80
FBFE7FC0
FFFFFFE0
FFFFFFE0
FE1FC3F0
FC1F81F0
F81F81F0
F80F81F0
F80F81F0
F80F81F0
F80F81F0
F80F81F0
F80F81F0
F80F81F0
F80F81F0
F80F81F0
F80F81F0
F80F81F0
F80F81F0
ENDCHAR
STARTCHAR 006E
ENCODING 110
SWIDTH 609 0
DWIDTH 22 0
BBX 17 19 3 0
BITMAP
F1F800
F3FE00
F7FF00
FFFF00
FC1F00
F81F80
F80F80
F80F80
F80F80
F80F80
F80F80
F80F80
F80F80
F80F80
F80F80
F80F80
F80F80
F80F80
F80F80
ENDCHAR
STARTCHAR 006F
ENCODING 111
SWIDTH 609 0
DWIDTH 22 0
BBX 20 19 1 0
BITMAP
03FC00
0FFF00
1FFF80
3FFFC0
3F0FE0
7E07E0
7C03E0
7C03F0
7C01F0
FC01F0
FC01F0
7C01F0
7C03E0
7E03E0
7F07E0
3FFFC0
1FFF80
0FFF00
03FC00
ENDCHAR
STARTCHAR 0070
ENCODING 112
SWIDTH 609 0
DWIDTH 22 0
BBX 19 26 2 -7
BITMAP
F8FC00
FBFF00
FFFF80
FFFF80
FE0FC0
FC07C0
FC07C0
FC07E0
F803E0
F803E0
F803E0
FC03E0
FC07C0
FC07C0
FE0FC0
FFFF80
FFFF80
FBFF00
F9FC00
F80000
F80000
F80000
F80000
F80000
F80000
F80000
ENDCHAR
STARTCHAR 0071
ENCODING 113
SWIDTH 609 0
DWIDTH 22 0
BBX 18 26 2 -7
BITMAP
0FE7C0
1FF7C0
3FFFC0
7FFFC0
7E1FC0
FC0FC0
F807C0
F807C0
F807C0
F807C0
F807C0
F807C0
F807C0
F80FC0
FC1FC0
7FFFC0
3FFFC0
3FF7C0
0FE7C0
0007C0
0007C0
0007C0
0007C0
0007C0
0007C0
0007C0
ENDCHAR
STARTCHAR 0072
ENCODING 114
SWIDTH 387 0
DWIDTH 14 0
BBX 12 19 2 0
BITMAP
F9F0
FBF0
FFF0
FFF0
FF20
FC00
FC00
FC00
FC00
F800
F800
F800
F800
F800
F800
F800
F800
F800
F800
ENDCHAR
STARTCHAR 0073
ENCODING 115
SWIDTH 553 0
DWIDTH 20 0
BBX 17 19 1 0
BITMAP
0FF800
3FFE00
3FFF00
7E7F00
781F80
780800
7E0000
7FE000
7FFC00
3FFF00
0FFF80
01FF80
001F80
780F80
FC0F80
7E1F80
7FFF00
3FFE00
0FFC00
ENDCHAR
STARTCHAR 0074
ENCODING 116
SWIDTH 332 0
DWIDTH 12 0
BBX 11 25 1 0
BITMAP
0600
0E00
3E00
3E00
3E00
3E00
FFC0
FFC0
FFC0
FFC0
3E00
3E00
3E00
3E00
3E00
3E00
3E00
3E00
3E00
3E00
3E00
3FC0
3FC0
3FC0
1FE0
ENDCHAR
STARTCHAR 0075
ENCODING 117
SWIDTH 609 0
DWIDTH 22 0
BBX 18 19 2 0
BITMAP
F807C0
F807C0
F807C0
F807C0
F807C0
F807C0
F807C0
F807C0
F807C0
F807C0
F807C0
FC0FC0
7C0FC0
7C0FC0
7C1FC0
7F3FC0
7FFFC0
3FF7C0
1FC7C0
ENDCHAR
STARTCHAR 0076
ENCODING 118
SWIDTH 553 0
DWIDTH 20 0
BBX 20 19 0 0
BITMAP
F803F0
7C03E0
7C03E0
7E07C0
3E07C0
3E07C0
1F0F80
1F0F80
1F1F00
0F9F00
0F9F00
07BE00
07FE00
03FC00
03FC00
03FC00
01F800
01F800
00F000
ENDCHAR
STARTCHAR 0077
ENCODING 119
SWIDTH 775 0
DWIDTH 28 0
BBX 28 19 0 0
BITMAP
F80F81F0
781F81F0
7C1F81E0
7C1F83E0
7C1FC3E0
3C3FC3C0
3E3FC7C0
3E3FC7C0
1E3FE780
1F79EF80
1F79EF80
0F79EF00
0FF8FF00
0FF0FF00
07F0FF00
07F0FE00
07F07E00
03E07E00
03E07C00
ENDCHAR
STARTCHAR 0078
ENCODING 120
SWIDTH 553 0
DWIDTH 20 0
BBX 18 19 1 0
BITMAP
FC0FC0
FC0F80
7E1F80
3F3F00
3F7E00
1FFC00
0FFC00
07F800
07F000
03F000
07F800
0FF800
0FFC00
1FFE00
3F3F00
3E3F00
7E1F80
FC0FC0
F80FC0
ENDCHAR
STARTCHAR 0079
ENCODING 121
SWIDTH 553 0
DWIDTH 20 0
BBX 19 27 0 -8
BITMAP
FC03E0
7C03E0
7C03E0
7E07C0
3E07C0
3E07C0
1F0F80
1F0F80
1F0F00
0F9F00
0F9F00
0F9E00
07FE00
07FE00
03FC00
03FC00
03FC00
01F800
01F800
01F000
01F000
03F000
47E000
3FE000
3FC000
3F8000
0C0000
ENDCHAR
STARTCHAR 007A
ENCODING 122
SWIDTH 498 0
DWIDTH 18 0
BBX 16 19 1 0
BITMAP
FFFF
FFFF
FFFF
FFFF
007E
00FC
01F8
03F8
07F0
07E0
0FC0
1F80
3F00
7E00
FC00
FFFF
FFFF
FFFF
FFFF
ENDCHAR
STARTCHAR 007B
ENCODING 123
SWIDTH 387 0
DWIDTH 14 0
BBX 12 34 1 -8
BITMAP
01F0
07F0
07F0
0FF0
0F80
0F80
0F80
0F80
0F80
0F00
0F00
0F00
1F00
1F00
FE00
FE00
F800
FC00
FE00
3F00
1F00
0F00
0F00
0F00
0F00
0F80
0F80
0F80
0F80
0FF0
0FF0
07F0
03F0
0030
ENDCHAR
STARTCHAR 007C
ENCODING 124
SWIDTH 276 0
DWIDTH 10 0
BBX 4 34 3 -8
BITMAP
F0
F0
F0
F0
F0
F0
F0
F0
F0
F0
F0
F0
F0
F0
F0
F0
F0
F0
F0
F0
F0
F0
F0
F0
F0
F0
F0
F0
F0
F0
F0
F0
F0
F0
ENDCHAR
STARTCHAR 007D
ENCODING 125
SWIDTH 387 0
DWIDTH 14 0
BBX 12 34 1 -8
BITMAP
F800
FE00
FE00
FF00
1F00
1F00
1F00
1F00
1F00
1F00
0F00
0F00
0F80
0F80
0FF0
07F0
03F0
03F0
07F0
0F80
0F80
0F00
0F00
0F00
1F00
1F00
1F00
1F00
1F00
FF00
FE00
FE00
FC00
C000
ENDCHAR
STARTCHAR 007E
ENCODING 126
SWIDTH 581 0
DWIDTH 21 0
BBX 19 7 1 9
BITMAP
1F8020
7FE060
FFFFE0
FFFFE0
F3FFE0
C07FC0
800F00
ENDCHAR
STARTCHAR 00A0
ENCODING 160
SWIDTH 276 0
DWIDTH 10 0
BBX 0 0 0 0
BITMAP
ENDCHAR
STARTCHAR 00A1
ENCODING 161
SWIDTH 332 0
DWIDTH 12 0
BBX 6 26 3 -7
BITMAP
7C
7C
7C
7C
7C
00
00
38
38
78
78
78
78
78
78
78
78
7C
7C
FC
FC
FC
FC
FC
FC
FC
ENDCHAR
STARTCHAR 00A2
ENCODING 162
SWIDTH 553 0
DWIDTH 20 0
BBX 18 33 1 -7
BITMAP
000400
000600
000600
000E00
000C00
000C00
001C00
03F800
0FFE00
1FFF00
3FFF80
3E3F80
7C37C0
7C7400
7C6000
7C6000
FCE000
FCC000
7CC000
7DC780
7D87C0
7F8FC0
3FFF80
1FFF00
0FFE00
07FC00
070000
060000
060000
0E0000
0C0000
0C0000
1C0000
ENDCHAR
STARTCHAR 00A3
ENCODING 163
SWIDTH 553 0
DWIDTH 20 0
BBX 19 26 0 0
BITMAP
01FE00
07FF00
0FFF80
1FFFC0
1F07C0
3E07C0
3E03E0
3E0000
3E0000
1E0000
1F0000
FFF800
FFF800
FFF800
FFF800
0F8000
0F8000
0F8000
1F0000
1F0000
3E0000
7FE0C0
FFFFC0
7FFFE0
7FFFE0
303FE0
ENDCHAR
STARTCHAR 00A4
ENCODING 164
SWIDTH 553 0
DWIDTH 20 0
BBX 18 18 1 4
BITMAP
200100
70C380
FFFFC0
FFFFC0
7FFF80
3FFF00
3E1F00
7C0F80
780F80
780780
7C0F80
3C0F00
3F3F00
3FFF00
7FFF80
FFFFC0
7BF780
300300
ENDCHAR
STARTCHAR 00A5
ENCODING 165
SWIDTH 553 0
DWIDTH 20 0
BBX 20 26 0 0
BITMAP
FC03F0
7C03E0
7E07E0
3E07C0
3E0FC0
1F0F80
1F1F80
0F9F00
0F9F00
07FE00
07FE00
7FFFE0
7FFFE0
7FFFE0
7FFFE0
01F000
01F000
7FFFE0
7FFFE0
7FFFE0
7FFFE0
01F000
01F000
01F000
01F000
01F000
ENDCHAR
STARTCHAR 00A6
ENCODING 166
SWIDTH 276 0
DWIDTH 10 0
BBX 4 34 3 -8
BITMAP
F0
F0
F0
F0
F0
F0
F0
F0
F0
F0
F0
F0
F0
F0
00
00
00
00
00
00
F0
F0
F0
F0
F0
F0
F0
F0
F0
F0
F0
F0
F0
F0
ENDCHAR
STARTCHAR 00A7
ENCODING 167
SWIDTH 553 0
DWIDTH 20 0
BBX 18 34 1 -8
BITMAP
07F800
1FFC00
3FFE00
3FFF00
3E1F00
3E1F00
3E0000
3F0000
1FC000
1FE000
3FF800
7FFC00
79FE00
F87F00
F83F80
F81FC0
FC07C0
7E07C0
7F87C0
3FC7C0
1FEF80
0FFF00
03FE00
01FE00
007F00
003F00
001F80
7C0F80
7E0F80
3F1F00
3FFF00
1FFE00
0FFC00
00C000
ENDCHAR
STARTCHAR 00A8
ENCODING 168
SWIDTH 332 0
DWIDTH 12 0
BBX 12 4 0 22
BITMAP
F0F0
F0F0
F0F0
F0F0
ENDCHAR
STARTCHAR 00A9
ENCODING 169
SWIDTH 747 0
DWIDTH 27 0
BBX 27 27 0 -1
BITMAP
007FC000
03FFF000
07F1FC00
0F003E00
1E000F00
3C000780
383F8380
707FC1C0
70F1E1C0
E1E0E0C0
E1C000E0
E1C000E0
E1C000E0
E1C000E0
E1C000E0
E1C040E0
E1E0E0C0
60E1E1C0
70FFC1C0
783F8380
380E0780
1C000F00
0F001E00
07C07C00
03FFF800
00FFE000
000C0000
ENDCHAR
STARTCHAR 00AA
ENCODING 170
SWIDTH 360 0
DWIDTH 13 0
BBX 11 13 1 13
BITMAP
3FC0
7FE0
FBE0
71E0
01E0
1FE0
7FE0
F9E0
E1E0
F1E0
FFE0
FFE0
3CE0
ENDCHAR
STARTCHAR 00AB
ENCODING 171
SWIDTH 553 0
DWIDTH 20 0
BBX 16 16 2 1
BITMAP
078F
0F1E
1F3C
1E7C
3C78
7CF8
F9F0
F9F0
F9F0
7CF8
3C78
3E7C
1E3C
0F1E
0F1E
078F
ENDCHAR
STARTCHAR 00AC
ENCODING 172
SWIDTH 581 0
DWIDTH 21 0
BBX 19 12 1 7
BITMAP
FFFFE0
FFFFE0
FFFFE0
FFFFE0
FFFFE0
0003E0
0003E0
0003E0
0003E0
0003E0
0003E0
0003E0
ENDCHAR
STARTCHAR 00AD
ENCODING 173
SWIDTH 332 0
DWIDTH 12 0
BBX 10 5 2 7
BITMAP
FFC0
FFC0
FFC0
FFC0
FFC0
ENDCHAR
STARTCHAR 00AE
ENCODING 174
SWIDTH 747 0
DWIDTH 27 0
BBX 27 27 0 -1
BITMAP
007FC000
03FFF000
07F1FC00
0F003E00
1E000F00
3C000780
39FF8380
71FFC1C0
71C3E1C0
E1C0E0C0
E1C0E0E0
E1C1E0E0
E1FFC0E0
E1FF80E0
E1DF00E0
E1C780E0
E1C3C0C0
61C1C1C0
71C1E1C0
79C0E380
38000780
1C000F00
0F001E00
07C07C00
03FFF800
00FFE000
000C0000
ENDCHAR
STARTCHAR 00AF
ENCODING 175
SWIDTH 553 0
DWIDTH 20 0
BBX 20 4 0 27
BITMAP
FFFFF0
FFFFF0
FFFFF0
FFFFF0
ENDCHAR
STARTCHAR 00B0
ENCODING 176
SWIDTH 387 0
DWIDTH 14 0
BBX 11 11 2 15
BITMAP
3F00
7F80
FFC0
E1E0
E0E0
C0E0
E0E0
F1C0
FFC0
7F80
1E00
ENDCHAR
STARTCHAR 00B1
ENCODING 177
SWIDTH 553 0
DWIDTH 20 0
BBX 18 24 1 0
BITMAP
01E000
01E000
01E000
01E000
01E000
01E000
FFFFC0
FFFFC0
FFFFC0
FFFFC0
FFFFC0
01E000
01E000
01E000
01E000
01E000
01E000
01E000
000000
FFFFC0
FFFFC0
FFFFC0
FFFFC0
FFFFC0
ENDCHAR
STARTCHAR 00B2
ENCODING 178
SWIDTH 332 0
DWIDTH 12 0
BBX 10 13 1 13
BITMAP
3F00
7F80
FFC0
E1C0
01C0
03C0
0780
0F00
3E00
7C00
FFC0
FFC0
FFC0
ENDCHAR
STARTCHAR 00B3
ENCODING 179
SWIDTH 332 0
DWIDTH 12 0
BBX 10 13 1 13
BITMAP
3F00
7F80
F7C0
E3C0
0380
0F80
0F80
03C0
01C0
E1C0
F3C0
7F80
3F00
ENDCHAR
STARTCHAR 00B4
ENCODING 180
SWIDTH 332 0
DWIDTH 12 0
BBX 7 5 4 21
BITMAP
7E
7C
F8
F0
E0
ENDCHAR
STARTCHAR 00B5
ENCODING 181
SWIDTH 581 0
DWIDTH 21 0
BBX 17 26 2 -7
BITMAP
F80F80
F80F80
F80F80
F80F80
F80F80
F80F80
F80F80
F80F80
F80F80
F80F80
F80F80
F80F80
F80F80
FC1F80
FC1F80
FFFF80
FFFF80
FFFF80
FBEF80
F80000
F80000
F80000
F80000
F80000
F80000
F80000
ENDCHAR
STARTCHAR 00B6
ENCODING 182
SWIDTH 553 0
DWIDTH 20 0
BBX 20 33 0 -7
BITMAP
07FFF0
1FFFF0
3FFFF0
7FFFF0
7FFFF0
FFE3C0
FFE3C0
FFE3C0
FFE3C0
FFE3C0
FFE3C0
7FE3C0
3FE3C0
1FE3C0
03E3C0
01E3C0
01E3C0
01E3C0
01E3C0
01E3C0
01E3C0
01E3C0
01E3C0
01E3C0
01E3C0
01E3C0
01E3C0
01E3C0
01E3C0
01E3C0
01E3C0
01E3C0
01E3C0
ENDCHAR
STARTCHAR 00B7
ENCODING 183
SWIDTH 276 0
DWIDTH 10 0
BBX 5 5 3 10
BITMAP
F8
F8
F8
F8
F8
ENDCHAR
STARTCHAR 00B8
ENCODING 184
SWIDTH 332 0
DWIDTH 12 0
BBX 9 7 1 -7
BITMAP
1E00
3F80
0780
0380
0780
FF80
FE00
ENDCHAR
STARTCHAR 00B9
ENCODING 185
SWIDTH 332 0
DWIDTH 12 0
BBX 7 13 2 13
BITMAP
0E
1E
7E
FE
FE
9E
1E
1E
1E
1E
1E
1E
1E
ENDCHAR
STARTCHAR 00BA
ENCODING 186
SWIDTH 360 0
DWIDTH 13 0
BBX 13 13 0 13
BITMAP
1FC0
3FE0
7FF0
78F0
7078
7078
F078
7078
7870
78F0
3FF0
3FE0
0F80
ENDCHAR
STARTCHAR 00BB
ENCODING 187
SWIDTH 553 0
DWIDTH 20 0
BBX 16 16 2 1
BITMAP
F1E0
78F0
7CF8
3C78
1E7C
1F3E
0F1E
0F9F
0F9F
1F3E
1E3C
3E7C
3C78
78F0
78F0
F1E0
ENDCHAR
STARTCHAR 00BC
ENCODING 188
SWIDTH 830 0
DWIDTH 30 0
BBX 28 27 2 -1
BITMAP
0E001C00
1E003800
7E003800
FE007000
FE006000
9E00E000
1E00C000
1E01C000
1E038000
1E038000
1E070000
1E070000
1E0E0000
000C01C0
001C03C0
003807C0
003807C0
00700FC0
00701DC0
00E039C0
00C071C0
01C071C0
0180FFF0
0380FFF0
070001C0
070001C0
0E0001C0
ENDCHAR
STARTCHAR 00BD
ENCODING 189
SWIDTH 830 0
DWIDTH 30 0
BBX 27 27 2 -1
BITMAP
0E001C00
1E003800
7E003800
FE007000
FE006000
9E00E000
1E00C000
1E01C000
1E038000
1E038000
1E070000
1E070000
1E0E0000
000C0600
001C3FC0
00383FE0
003878E0
007070E0
007001E0
00E003E0
00C007C0
01C00F80
01801E00
03803C00
07007FE0
07007FE0
0E007FE0
ENDCHAR
STARTCHAR 00BE
ENCODING 190
SWIDTH 830 0
DWIDTH 30 0
BBX 29 27 1 -1
BITMAP
3F000E00
7F800E00
F7C01C00
E3C01800
03803800
0F803000
0F807000
03C0E000
01C0E000
E1C1C000
F3C1C000
7F838000
3F030000
000700E0
000E01E0
000E03E0
001C03E0
001C07E0
00380EE0
00301CE0
007038E0
00E038E0
00E07FF8
01C07FF8
01C000E0
038000E0
030000E0
ENDCHAR
STARTCHAR 00BF
ENCODING 191
SWIDTH 609 0
DWIDTH 22 0
BBX 18 26 2 -7
BITMAP
03E000
03E000
03E000
03E000
03E000
000000
000000
01E000
01E000
01E000
03E000
07E000
0FC000
1F8000
3F0000
7E0000
FC0000
F80000
F80300
F807C0
F807C0
FC0FC0
7F3F80
3FFF00
1FFE00
0FFC00
ENDCHAR
STARTCHAR 00C0
ENCODING 192
SWIDTH 720 0
DWIDTH 26 0
BBX 26 33 0 0
BITMAP
00F80000
007C0000
003C0000
001E0000
001E0000
000F0000
00000000
003F0000
003F0000
007F8000
007F8000
00FF8000
00FFC000
00FFC000
01F7E000
01F3E000
03F3E000
03E3F000
03E1F000
07C1F800
07C1F800
0FC0F800
0F80FC00
0FFFFC00
1FFFFE00
1FFFFE00
1FFFFE00
3F003F00
3E001F00
7E001F80
7C001F80
7C000F80
FC000FC0
ENDCHAR
STARTCHAR 00C1
ENCODING 193
SWIDTH 720 0
DWIDTH 26 0
BBX 26 33 0 0
BITMAP
000FC000
000F8000
001F0000
001E0000
003C0000
00380000
00000000
003F0000
003F0000
007F8000
007F8000
00FF8000
00FFC000
00FFC000
01F7E000
01F3E000
03F3E000
03E3F000
03E1F000
07C1F800
07C1F800
0FC0F800
0F80FC00
0FFFFC00
1FFFFE00
1FFFFE00
1FFFFE00
3F003F00
3E001F00
7E001F80
7C001F80
7C000F80
FC000FC0
ENDCHAR
STARTCHAR 00C2
ENCODING 194
SWIDTH 720 0
DWIDTH 26 0
BBX 26 33 0 0
BITMAP
003E0000
003F0000
007F8000
00F78000
00F3C000
01E1E000
00000000
003F0000
003F0000
007F8000
007F8000
00FF8000
00FFC000
00FFC000
01F7E000
01F3E000
03F3E000
03E3F000
03E1F000
07C1F800
07C1F800
0FC0F800
0F80FC00
0FFFFC00
1FFFFE00
1FFFFE00
1FFFFE00
3F003F00
3E001F00
7E001F80
7C001F80
7C000F80
FC000FC0
ENDCHAR
STARTCHAR 00C3
ENCODING 195
SWIDTH 720 0
DWIDTH 26 0
BBX 26 32 0 0
BITMAP
00E0E000
01FCE000
01FFC000
019FC000
03830000
00000000
003F0000
003F0000
007F8000
007F8000
00FF8000
00FFC000
00FFC000
01F7E000
01F3E000
03F3E000
03E3F000
03E1F000
07C1F800
07C1F800
0FC0F800
0F80FC00
0FFFFC00
1FFFFE00
1FFFFE00
1FFFFE00
3F003F00
3E001F00
7E001F80
7C001F80
7C000F80
FC000FC0
ENDCHAR
STARTCHAR 00C4
ENCODING 196
SWIDTH 720 0
DWIDTH 26 0
BBX 26 32 0 0
BITMAP
01E3E000
01E3E000
01E3E000
01E3E000
01E3E000
00000000
003F0000
003F0000
007F8000
007F8000
00FF8000
00FFC000
00FFC000
01F7E000
01F3E000
03F3E000
03E3F000
03E1F000
07C1F800
07C1F800
0FC0F800
0F80FC00
0FFFFC00
1FFFFE00
1FFFFE00
1FFFFE00
3F003F00
3E001F00
7E001F80
7C001F80
7C000F80
FC000FC0
ENDCHAR
STARTCHAR 00C5
ENCODING 197
SWIDTH 720 0
DWIDTH 26 0
BBX 26 31 0 0
BITMAP
001E0000
003F0000
00730000
00630000
00730000
003F0000
003F0000
007F8000
007F8000
00FF8000
00FFC000
00FFC000
01F7E000
01F3E000
03F3E000
03E3F000
03E1F000
07C1F800
07C1F800
0FC0F800
0F80FC00
0FFFFC00
1FFFFE00
1FFFFE00
1FFFFE00
3F003F00
3E001F00
7E001F80
7C001F80
7C000F80
FC000FC0
ENDCHAR
STARTCHAR 00C6
ENCODING 198
SWIDTH 996 0
DWIDTH 36 0
BBX 35 26 -1 0
BITMAP
001FFFFFE0
001FFFFFE0
003FFFFFE0
003FFFFFE0
003E7FFFE0
007C7C0000
007C7C0000
00F87C0000
00F87C0000
01F07C0000
01F07FFFC0
03F07FFFC0
03E07FFFC0
07E07FFFC0
07C07FFFC0
0FFFFC0000
0FFFFC0000
1FFFFC0000
1FFFFC0000
1FFFFC0000
3F007C0000
3E007C0000
7E007FFFE0
7C007FFFE0
FC007FFFE0
F8007FFFE0
ENDCHAR
STARTCHAR 00C7
ENCODING 199
SWIDTH 720 0
DWIDTH 26 0
BBX 22 33 2 -7
BITMAP
01FF00
07FFC0
0FFFF0
1FFFF0
3FC7F8
7F01FC
7E00FC
7C0078
FC0000
F80000
F80000
F80000
F80000
F80000
F80000
F80000
F80000
FC0070
FC007C
7E00FC
7E01F8
3F83F8
1FFFF0
0FFFE0
07FFC0
01FF00
003800
00FE00
000F00
000F00
000F00
03FE00
03FC00
ENDCHAR
STARTCHAR 00C8
ENCODING 200
SWIDTH 664 0
DWIDTH 24 0
BBX 19 33 3 0
BITMAP
0FC000
07C000
03E000
01E000
00F000
007000
000000
FFFFE0
FFFFE0
FFFFE0
FFFFE0
FFFFE0
F80000
F80000
F80000
F80000
F80000
FFFFC0
FFFFC0
FFFFC0
FFFFC0
FFFFC0
F80000
F80000
F80000
F80000
F80000
F80000
F80000
FFFFE0
FFFFE0
FFFFE0
FFFFE0
ENDCHAR
STARTCHAR 00C9
ENCODING 201
SWIDTH 664 0
DWIDTH 24 0
BBX 19 33 3 0
BITMAP
007C00
00F800
00F000
01E000
01C000
03C000
000000
FFFFE0
FFFFE0
FFFFE0
FFFFE0
FFFFE0
F80000
F80000
F80000
F80000
F80000
FFFFC0
FFFFC0
FFFFC0
FFFFC0
FFFFC0
F80000
F80000
F80000
F80000
F80000
F80000
F80000
FFFFE0
FFFFE0
FFFFE0
FFFFE0
ENDCHAR
STARTCHAR 00CA
ENCODING 202
SWIDTH 664 0
DWIDTH 24 0
BBX 19 33 3 0
BITMAP
01E000
03F000
07F800
0FF800
0F3C00
1E1E00
000000
FFFFE0
FFFFE0
FFFFE0
FFFFE0
FFFFE0
F80000
F80000
F80000
F80000
F80000
FFFFC0
FFFFC0
FFFFC0
FFFFC0
FFFFC0
F80000
F80000
F80000
F80000
F80000
F80000
F80000
FFFFE0
FFFFE0
FFFFE0
FFFFE0
ENDCHAR
STARTCHAR 00CB
ENCODING 203
SWIDTH 664 0
DWIDTH 24 0
BBX 19 32 3 0
BITMAP
1E1E00
1E1E00
1E1E00
1E1E00
1E1E00
000000
FFFFE0
FFFFE0
FFFFE0
FFFFE0
FFFFE0
F80000
F80000
F80000
F80000
F80000
FFFFC0
FFFFC0
FFFFC0
FFFFC0
FFFFC0
F80000
F80000
F80000
F80000
F80000
F80000
F80000
FFFFE0
FFFFE0
FFFFE0
FFFFE0
ENDCHAR
STARTCHAR 00CC
ENCODING 204
SWIDTH 276 0
DWIDTH 10 0
BBX 8 33 0 0
BITMAP
F8
7C
3C
1E
0E
07
00
3F
3F
3F
3F
3F
3F
3F
3F
3F
3F
3F
3F
3F
3F
3F
3F
3F
3F
3F
3F
3F
3F
3F
3F
3F
3F
ENDCHAR
STARTCHAR 00CD
ENCODING 205
SWIDTH 276 0
DWIDTH 10 0
BBX 8 33 2 0
BITMAP
3F
3E
7C
78
F0
E0
00
FC
FC
FC
FC
FC
FC
FC
FC
FC
FC
FC
FC
FC
FC
FC
FC
FC
FC
FC
FC
FC
FC
FC
FC
FC
FC
ENDCHAR
STARTCHAR 00CE
ENCODING 206
SWIDTH 276 0
DWIDTH 10 0
BBX 12 33 -1 0
BITMAP
0F80
1F80
1FC0
3DE0
79E0
F0F0
0000
1F80
1F80
1F80
1F80
1F80
1F80
1F80
1F80
1F80
1F80
1F80
1F80
1F80
1F80
1F80
1F80
1F80
1F80
1F80
1F80
1F80
1F80
1F80
1F80
1F80
1F80
ENDCHAR
STARTCHAR 00CF
ENCODING 207
SWIDTH 276 0
DWIDTH 10 0
BBX 12 32 -1 0
BITMAP
F0F0
F0F0
F0F0
F0F0
F0F0
0000
1F80
1F80
1F80
1F80
1F80
1F80
1F80
1F80
1F80
1F80
1F80
1F80
1F80
1F80
1F80
1F80
1F80
1F80
1F80
1F80
1F80
1F80
1F80
1F80
1F80
1F80
ENDCHAR
STARTCHAR 00D0
ENCODING 208
SWIDTH 720 0
DWIDTH 26 0
BBX 24 26 0 0
BITMAP
1FFF00
1FFFE0
1FFFF0
1FFFF8
1FFFFC
1F00FE
1F007E
1F003F
1F003F
1F001F
1F001F
FFF81F
FFF81F
FFF81F
FFF81F
1F001F
1F001F
1F001F
1F003F
1F003E
1F007E
1F07FC
1FFFFC
1FFFF8
1FFFE0
1FFF80
ENDCHAR
STARTCHAR 00D1
ENCODING 209
SWIDTH 720 0
DWIDTH 26 0
BBX 20 32 3 0
BITMAP
038300
07E700
0FFF00
0E7E00
0C0C00
000000
F801F0
FC01F0
FC01F0
FE01F0
FE01F0
FF01F0
FF81F0
FF81F0
FFC1F0
FFE1F0
FFE1F0
FBF1F0
F9F1F0
F9F9F0
F8FDF0
F8FDF0
F87FF0
F83FF0
F83FF0
F81FF0
F80FF0
F80FF0
F807F0
F807F0
F803F0
F801F0
ENDCHAR
STARTCHAR 00D2
ENCODING 210
SWIDTH 775 0
DWIDTH 28 0
BBX 25 33 2 0
BITMAP
01F00000
00F80000
00780000
003C0000
001C0000
000E0000
00000000
01FF8000
07FFE000
0FFFF000
1FFFF800
3FC3FC00
7F00FE00
7E007E00
FC003F00
FC001F00
F8001F00
F8001F80
F8001F80
F8001F80
F8001F80
F8001F80
F8001F80
F8001F00
FC001F00
FC003F00
7E007E00
7F00FE00
3FC1FC00
1FFFFC00
0FFFF800
07FFE000
01FF8000
ENDCHAR
STARTCHAR 00D3
ENCODING 211
SWIDTH 775 0
DWIDTH 28 0
BBX 25 33 2 0
BITMAP
001F8000
001F0000
003E0000
003C0000
00780000
00700000
00000000
01FF8000
07FFE000
0FFFF000
1FFFF800
3FC3FC00
7F00FE00
7E007E00
FC003F00
FC001F00
F8001F00
F8001F80
F8001F80
F8001F80
F8001F80
F8001F80
F8001F80
F8001F00
FC001F00
FC003F00
7E007E00
7F00FE00
3FC1FC00
1FFFFC00
0FFFF800
07FFE000
01FF8000
ENDCHAR
STARTCHAR 00D4
ENCODING 212
SWIDTH 775 0
DWIDTH 28 0
BBX 25 33 2 0
BITMAP
003C0000
007E0000
00FF0000
01FF0000
01E78000
03C3C000
00000000
01FF8000
07FFE000
0FFFF000
1FFFF800
3FC3FC00
7F00FE00
7E007E00
FC003F00
FC001F00
F8001F00
F8001F80
F8001F80
F8001F80
F8001F80
F8001F80
F8001F80
F8001F00
FC001F00
FC003F00
7E007E00
7F00FE00
3FC1FC00
1FFFFC00
0FFFF800
07FFE000
01FF8000
ENDCHAR
STARTCHAR 00D5
ENCODING 213
SWIDTH 775 0
DWIDTH 28 0
BBX 25 32 2 0
BITMAP
00C1C000
03F9C000
03FF8000
033F8000
03060000
00000000
01FF8000
07FFE000
0FFFF000
1FFFF800
3FC3FC00
7F00FE00
7E007E00
FC003F00
FC001F00
F8001F00
F8001F80
F8001F80
F8001F80
F8001F80
F8001F80
F8001F80
F8001F00
FC001F00
FC003F00
7E007E00
7F00FE00
3FC1FC00
1FFFFC00
0FFFF800
07FFE000
01FF8000
ENDCHAR
STARTCHAR 00D6
ENCODING 214
SWIDTH 775 0
DWIDTH 28 0
BBX 25 32 2 0
BITMAP
03C7C000
03C7C000
03C7C000
03C7C000
03C7C000
00000000
01FF8000
07FFE000
0FFFF000
1FFFF800
3FC3FC00
7F00FE00
7E007E00
FC003F00
FC001F00
F8001F00
F8001F80
F8001F80
F8001F80
F8001F80
F8001F80
F8001F80
F8001F00
FC001F00
FC003F00
7E007E00
7F00FE00
3FC1FC00
1FFFFC00
0FFFF800
07FFE000
01FF8000
ENDCHAR
STARTCHAR 00D7
ENCODING 215
SWIDTH 581 0
DWIDTH 21 0
BBX 17 17 2 4
BITMAP
300600
780F00
FC1F80
FE3F00
7F7E00
3FFC00
1FF800
0FF000
07F000
0FF800
1FFC00
3FFE00
7E7F00
FC3F80
781F00
300E00
000400
ENDCHAR
STARTCHAR 00D8
ENCODING 216
SWIDTH 775 0
DWIDTH 28 0
BBX 26 28 1 -1
BITMAP
00000100
00FFC380
03FFF7C0
07FFFF80
0FFFFF00
1FE1FE00
3F807F00
3F007F00
7E00FF80
7E01EF80
7C03EF80
7C07CF80
7C0F8FC0
7C0F0FC0
7C1E0FC0
7C3C0FC0
7C780FC0
7CF00F80
7FE00F80
7FE01F80
3FC01F00
3F803F00
1FC0FE00
1FFFFE00
3FFFFC00
7BFFF000
F0FFC000
20000000
ENDCHAR
STARTCHAR 00D9
ENCODING 217
SWIDTH 720 0
DWIDTH 26 0
BBX 20 33 3 0
BITMAP
07C000
03E000
01E000
01F000
00F000
007800
000000
F801F0
F801F0
F801F0
F801F0
F801F0
F801F0
F801F0
F801F0
F801F0
F801F0
F801F0
F801F0
F801F0
F801F0
F801F0
F801F0
F801F0
F801F0
F801F0
F801F0
FC03F0
FF07E0
7FFFE0
3FFFC0
1FFF80
0FFF00
ENDCHAR
STARTCHAR 00DA
ENCODING 218
SWIDTH 720 0
DWIDTH 26 0
BBX 20 33 3 0
BITMAP
007E00
007C00
00F800
00F000
01E000
01C000
000000
F801F0
F801F0
F801F0
F801F0
F801F0
F801F0
F801F0
F801F0
F801F0
F801F0
F801F0
F801F0
F801F0
F801F0
F801F0
F801F0
F801F0
F801F0
F801F0
F801F0
FC03F0
FF07E0
7FFFE0
3FFFC0
1FFF80
0FFF00
ENDCHAR
STARTCHAR 00DB
ENCODING 219
SWIDTH 720 0
DWIDTH 26 0
BBX 20 33 3 0
BITMAP
00F000
01F800
03FC00
03FE00
079E00
0F0F00
000000
F801F0
F801F0
F801F0
F801F0
F801F0
F801F0
F801F0
F801F0
F801F0
F801F0
F801F0
F801F0
F801F0
F801F0
F801F0
F801F0
F801F0
F801F0
F801F0
F801F0
FC03F0
FF07E0
7FFFE0
3FFFC0
1FFF80
0FFF00
ENDCHAR
STARTCHAR 00DC
ENCODING 220
SWIDTH 720 0
DWIDTH 26 0
BBX 20 32 3 0
BITMAP
0F0F00
0F0F00
0F0F00
0F0F00
0F0F00
000000
F801F0
F801F0
F801F0
F801F0
F801F0
F801F0
F801F0
F801F0
F801F0
F801F0
F801F0
F801F0
F801F0
F801F0
F801F0
F801F0
F801F0
F801F0
F801F0
F801F0
FC03F0
FF07E0
7FFFE0
3FFFC0
1FFF80
0FFF00
ENDCHAR
STARTCHAR 00DD
ENCODING 221
SWIDTH 664 0
DWIDTH 24 0
BBX 24 33 0 0
BITMAP
001F80
001F00
003E00
003C00
007800
007000
000000
FC003F
7E007E
7E007E
3F00FC
1F80F8
1F81F8
0FC3F0
07C3E0
07E7E0
03F7C0
03FFC0
01FF80
00FF00
00FF00
007E00
007E00
007E00
007E00
007E00
007E00
007E00
007E00
007E00
007E00
007E00
007E00
ENDCHAR
STARTCHAR 00DE
ENCODING 222
SWIDTH 664 0
DWIDTH 24 0
BBX 19 26 3 0
BITMAP
F80000
F80000
F80000
F80000
F80000
FFFE00
FFFF80
FFFFC0
FFFFC0
F87FE0
F807E0
F803E0
F803E0
F803E0
F803E0
F807E0
F80FE0
FFFFC0
FFFFC0
FFFF00
FFFC00
F80000
F80000
F80000
F80000
F80000
ENDCHAR
STARTCHAR 00DF
ENCODING 223
SWIDTH 609 0
DWIDTH 22 0
BBX 19 26 2 0
BITMAP
0FF000
1FFC00
3FFE00
7FFE00
7C3E00
7C3E00
7C3E00
F83E00
F87C00
F87C00
F8F800
F8F800
F8FC00
F8FE00
F87F00
F83F80
F81F80
F80FC0
F807C0
F803E0
F803E0
F823E0
F8FFC0
F9FFC0
F8FF80
F87F00
ENDCHAR
STARTCHAR 00E0
ENCODING 224
SWIDTH 553 0
DWIDTH 20 0
BBX 18 26 1 0
BITMAP
0FC000
07C000
03C000
01E000
00E000
000000
000000
07FC00
1FFE00
3FFF00
7FFF00
7C1F80
1C0F80
000F80
003F80
07FF80
1FFF80
7FCF80
7E0F80
F80F80
F80F80
FC1F80
FC3F80
7FFF80
3FFF80
1FC7C0
ENDCHAR
STARTCHAR 00E1
ENCODING 225
SWIDTH 553 0
DWIDTH 20 0
BBX 18 26 1 0
BITMAP
007C00
00F800
00F000
01E000
01C000
000000
000000
07FC00
1FFE00
3FFF00
7FFF00
7C1F80
1C0F80
000F80
003F80
07FF80
1FFF80
7FCF80
7E0F80
F80F80
F80F80
FC1F80
FC3F80
7FFF80
3FFF80
1FC7C0
ENDCHAR
STARTCHAR 00E2
ENCODING 226
SWIDTH 553 0
DWIDTH 20 0
BBX 18 26 1 0
BITMAP
03F000
03F800
07F800
0F3C00
1E1E00
000000
000000
07FC00
1FFE00
3FFF00
7FFF00
7C1F80
1C0F80
000F80
003F80
07FF80
1FFF80
7FCF80
7E0F80
F80F80
F80F80
FC1F80
FC3F80
7FFF80
3FFF80
1FC7C0
ENDCHAR
STARTCHAR 00E3
ENCODING 227
SWIDTH 553 0
DWIDTH 20 0
BBX 18 26 1 0
BITMAP
070600
0FCE00
1FFE00
1CFC00
181800
000000
000000
07FC00
1FFE00
3FFF00
7FFF00
7C1F80
1C0F80
000F80
003F80
07FF80
1FFF80
7FCF80
7E0F80
F80F80
F80F80
FC1F80
FC3F80
7FFF80
3FFF80
1FC7C0
ENDCHAR
STARTCHAR 00E4
ENCODING 228
SWIDTH 553 0
DWIDTH 20 0
BBX 18 26 1 0
BITMAP
1E1E00
1E1E00
1E1E00
1E1E00
000000
000000
000000
07FC00
1FFE00
3FFF00
7FFF00
7C1F80
1C0F80
000F80
003F80
07FF80
1FFF80
7FCF80
7E0F80
F80F80
F80F80
FC1F80
FC3F80
7FFF80
3FFF80
1FC7C0
ENDCHAR
STARTCHAR 00E5
ENCODING 229
SWIDTH 553 0
DWIDTH 20 0
BBX 18 27 1 0
BITMAP
01E000
03F000
033000
031800
033000
03F000
00C000
000000
07FC00
1FFE00
3FFF00
7FFF00
7C1F80
1C0F80
000F80
003F80
07FF80
1FFF80
7FCF80
7E0F80
F80F80
F80F80
FC1F80
FC3F80
7FFF80
3FFF80
1FC7C0
ENDCHAR
STARTCHAR 00E6
ENCODING 230
SWIDTH 886 0
DWIDTH 32 0
BBX 28 19 2 0
BITMAP
0FF8FE00
3FFFFF80
7FFFFFC0
7FFFFFE0
F83F83E0
381F81F0
001F01F0
007F01F0
0FFFFFF0
3FFFFFF0
7F9FFFF0
FC1F0000
F81F0000
F81F81C0
F83F81F0
FC7FE7E0
FFFFFFE0
7FF3FFC0
3FC0FF00
ENDCHAR
STARTCHAR 00E7
ENCODING 231
SWIDTH 553 0
DWIDTH 20 0
BBX 18 26 1 -7
BITMAP
03F800
0FFE00
1FFF00
3FFF80
3E0F80
7C07C0
7C0400
7C0000
7C0000
FC0000
7C0000
7C0000
7C0780
7C07C0
7E0FC0
3FFF80
1FFF00
0FFE00
07FC00
00F000
01F800
003C00
001C00
003C00
07FC00
07F000
ENDCHAR
STARTCHAR 00E8
ENCODING 232
SWIDTH 553 0
DWIDTH 20 0
BBX 18 26 1 0
BITMAP
0F8000
07C000
03C000
01E000
00E000
000000
000000
07F000
0FFC00
1FFE00
3FFF00
7E1F80
7C0F80
780780
F80780
FFFFC0
FFFFC0
FFFFC0
F80000
F80000
7C0E00
7C0F80
3F1F80
3FFF00
1FFE00
07FC00
ENDCHAR
STARTCHAR 00E9
ENCODING 233
SWIDTH 553 0
DWIDTH 20 0
BBX 18 26 1 0
BITMAP
00FC00
00F800
00F000
01E000
01C000
000000
000000
07F000
0FFC00
1FFE00
3FFF00
7E1F80
7C0F80
780780
F80780
FFFFC0
FFFFC0
FFFFC0
F80000
F80000
7C0E00
7C0F80
3F1F80
3FFF00
1FFE00
07FC00
ENDCHAR
STARTCHAR 00EA
ENCODING 234
SWIDTH 553 0
DWIDTH 20 0
BBX 18 26 1 0
BITMAP
03F000
07F800
07F800
0F3C00
1E1E00
000000
000000
07F000
0FFC00
1FFE00
3FFF00
7E1F80
7C0F80
780780
F80780
FFFFC0
FFFFC0
FFFFC0
F80000
F80000
7C0E00
7C0F80
3F1F80
3FFF00
1FFE00
07FC00
ENDCHAR
STARTCHAR 00EB
ENCODING 235
SWIDTH 553 0
DWIDTH 20 0
BBX 18 26 1 0
BITMAP
1E1E00
1E1E00
1E1E00
1E1E00
000000
000000
000000
07F000
0FFC00
1FFE00
3FFF00
7E1F80
7C0F80
780780
F80780
FFFFC0
FFFFC0
FFFFC0
F80000
F80000
7C0E00
7C0F80
3F1F80
3FFF00
1FFE00
07FC00
ENDCHAR
STARTCHAR 00EC
ENCODING 236
SWIDTH 276 0
DWIDTH 10 0
BBX 8 26 0 0
BITMAP
FC
7C
3C
1E
0E
00
00
1F
1F
1F
1F
1F
1F
1F
1F
1F
1F
1F
1F
1F
1F
1F
1F
1F
1F
1F
ENDCHAR
STARTCHAR 00ED
ENCODING 237
SWIDTH 276 0
DWIDTH 10 0
BBX 8 26 2 0
BITMAP
3F
3E
7C
78
F0
00
00
7C
7C
7C
7C
7C
7C
7C
7C
7C
7C
7C
7C
7C
7C
7C
7C
7C
7C
7C
ENDCHAR
STARTCHAR 00EE
ENCODING 238
SWIDTH 276 0
DWIDTH 10 0
BBX 12 26 -1 0
BITMAP
1F80
1FC0
3FC0
79E0
F0F0
0000
0000
0F80
0F80
0F80
0F80
0F80
0F80
0F80
0F80
0F80
0F80
0F80
0F80
0F80
0F80
0F80
0F80
0F80
0F80
0F80
ENDCHAR
STARTCHAR 00EF
ENCODING 239
SWIDTH 276 0
DWIDTH 10 0
BBX 12 26 -1 0
BITMAP
F0F0
F0F0
F0F0
F0F0
0000
0000
0000
0F80
0F80
0F80
0F80
0F80
0F80
0F80
0F80
0F80
0F80
0F80
0F80
0F80
0F80
0F80
0F80
0F80
0F80
0F80
ENDCHAR
STARTCHAR 00F0
ENCODING 240
SWIDTH 609 0
DWIDTH 22 0
BBX 20 26 1 0
BITMAP
07E200
01FF00
00FE00
00FC00
03FE00
071F00
041F00
01CF80
07FFC0
1FFFC0
1FFFE0
3F1FE0
7E07E0
7C03E0
7C03F0
7C03F0
FC01F0
FC01F0
7C03F0
7C03E0
7E03E0
3F07E0
3FFFC0
1FFF80
0FFF00
03FC00
ENDCHAR
STARTCHAR 00F1
ENCODING 241
SWIDTH 609 0
DWIDTH 22 0
BBX 17 26 3 0
BITMAP
0E0C00
1F9C00
3FFC00
39F800
303000
000000
000000
F1F800
F3FE00
F7FF00
FFFF00
FC1F00
F81F80
F80F80
F80F80
F80F80
F80F80
F80F80
F80F80
F80F80
F80F80
F80F80
F80F80
F80F80
F80F80
F80F80
ENDCHAR
STARTCHAR 00F2
ENCODING 242
SWIDTH 609 0
DWIDTH 22 0
BBX 20 26 1 0
BITMAP
07E000
03E000
01E000
00F000
007000
000000
000000
03FC00
0FFF00
1FFF80
3FFFC0
3F0FE0
7E07E0
7C03E0
7C03F0
7C01F0
FC01F0
FC01F0
7C01F0
7C03E0
7E03E0
7F07E0
3FFFC0
1FFF80
0FFF00
03FC00
ENDCHAR
STARTCHAR 00F3
ENCODING 243
SWIDTH 609 0
DWIDTH 22 0
BBX 20 26 1 0
BITMAP
003E00
007C00
007800
00F000
00E000
000000
000000
03FC00
0FFF00
1FFF80
3FFFC0
3F0FE0
7E07E0
7C03E0
7C03F0
7C01F0
FC01F0
FC01F0
7C01F0
7C03E0
7E03E0
7F07E0
3FFFC0
1FFF80
0FFF00
03FC00
ENDCHAR
STARTCHAR 00F4
ENCODING 244
SWIDTH 609 0
DWIDTH 22 0
BBX 20 26 1 0
BITMAP
01F800
01FC00
03FC00
079E00
0F0F00
000000
000000
03FC00
0FFF00
1FFF80
3FFFC0
3F0FE0
7E07E0
7C03E0
7C03F0
7C01F0
FC01F0
FC01F0
7C01F0
7C03E0
7E03E0
7F07E0
3FFFC0
1FFF80
0FFF00
03FC00
ENDCHAR
STARTCHAR 00F5
ENCODING 245
SWIDTH 609 0
DWIDTH 22 0
BBX 20 26 1 0
BITMAP
038300
07E700
0FFF00
0E7E00
0C0C00
000000
000000
03FC00
0FFF00
1FFF80
3FFFC0
3F0FE0
7E07E0
7C03E0
7C03F0
7C01F0
FC01F0
FC01F0
7C01F0
7C03E0
7E03E0
7F07E0
3FFFC0
1FFF80
0FFF00
03FC00
ENDCHAR
STARTCHAR 00F6
ENCODING 246
SWIDTH 609 0
DWIDTH 22 0
BBX 20 26 1 0
BITMAP
0F0F00
0F0F00
0F0F00
0F0F00
000000
000000
000000
03FC00
0FFF00
1FFF80
3FFFC0
3F0FE0
7E07E0
7C03E0
7C03F0
7C01F0
FC01F0
FC01F0
7C01F0
7C03E0
7E03E0
7F07E0
3FFFC0
1FFF80
0FFF00
03FC00
ENDCHAR
STARTCHAR 00F7
ENCODING 247
SWIDTH 553 0
DWIDTH 20 0
BBX 18 19 1 3
BITMAP
03E000
03E000
03E000
03E000
03E000
000000
000000
FFFFC0
FFFFC0
FFFFC0
FFFFC0
FFFFC0
000000
000000
03E000
03E000
03E000
03E000
03E000
ENDCHAR
STARTCHAR 00F8
ENCODING 248
SWIDTH 609 0
DWIDTH 22 0
BBX 19 21 2 -1
BITMAP
000080
07F9C0
0FFFC0
3FFF80
7FFF80
7E0FC0
FC1FC0
F83FC0
F87BE0
F873E0
F0E3E0
F9C3E0
FB83E0
FF03E0
FF07C0
7E0FC0
7FBF80
3FFF00
7FFE00
E7F800
400000
ENDCHAR
STARTCHAR 00F9
ENCODING 249
SWIDTH 609 0
DWIDTH 22 0
BBX 18 26 2 0
BITMAP
0F8000
07C000
03C000
01E000
00E000
000000
000000
F807C0
F807C0
F807C0
F807C0
F807C0
F807C0
F807C0
F807C0
F807C0
F807C0
F807C0
FC0FC0
7C0FC0
7C0FC0
7C1FC0
7F3FC0
7FFFC0
3FF7C0
1FC7C0
ENDCHAR
STARTCHAR 00FA
ENCODING 250
SWIDTH 609 0
DWIDTH 22 0
BBX 18 26 2 0
BITMAP
007C00
00F800
00F000
01E000
01C000
000000
000000
F807C0
F807C0
F807C0
F807C0
F807C0
F807C0
F807C0
F807C0
F807C0
F807C0
F807C0
FC0FC0
7C0FC0
7C0FC0
7C1FC0
7F3FC0
7FFFC0
3FF7C0
1FC7C0
ENDCHAR
STARTCHAR 00FB
ENCODING 251
SWIDTH 609 0
DWIDTH 22 0
BBX 18 26 2 0
BITMAP
03F000
07F800
07F800
0F3C00
1E1E00
000000
000000
F807C0
F807C0
F807C0
F807C0
F807C0
F807C0
F807C0
F807C0
F807C0
F807C0
F807C0
FC0FC0
7C0FC0
7C0FC0
7C1FC0
7F3FC0
7FFFC0
3FF7C0
1FC7C0
ENDCHAR
STARTCHAR 00FC
ENCODING 252
SWIDTH 609 0
DWIDTH 22 0
BBX 18 26 2 0
BITMAP
1E1E00
1E1E00
1E1E00
1E1E00
000000
000000
000000
F807C0
F807C0
F807C0
F807C0
F807C0
F807C0
F807C0
F807C0
F807C0
F807C0
F807C0
FC0FC0
7C0FC0
7C0FC0
7C1FC0
7F3FC0
7FFFC0
3FF7C0
1FC7C0
ENDCHAR
STARTCHAR 00FD
ENCODING 253
SWIDTH 553 0
DWIDTH 20 0
BBX 19 34 0 -8
BITMAP
007E00
007C00
00F800
00F000
00E000
000000
000000
FC03E0
7C03E0
7C03E0
7E07C0
3E07C0
3E07C0
1F0F80
1F0F80
1F0F00
0F9F00
0F9F00
0F9E00
07FE00
07FE00
03FC00
03FC00
03FC00
01F800
01F800
01F000
01F000
03F000
47E000
3FE000
3FC000
3F8000
0C0000
ENDCHAR
STARTCHAR 00FE
ENCODING 254
SWIDTH 609 0
DWIDTH 22 0
BBX 19 33 2 -7
BITMAP
F80000
F80000
F80000
F80000
F80000
F80000
F80000
F8FC00
F9FF00
FFFF80
FFFF80
FE0FC0
FC07C0
FC07C0
FC07E0
F803E0
F803E0
F803E0
FC03E0
FC07C0
FC07C0
FE0FC0
FFFF80
FFFF80
FBFF00
F9FC00
F80000
F80000
F80000
F80000
F80000
F80000
F80000
ENDCHAR
STARTCHAR 00FF
ENCODING 255
SWIDTH 553 0
DWIDTH 20 0
BBX 19 34 0 -8
BITMAP
0F0F00
0F0F00
0F0F00
0F0F00
000000
000000
000000
FC03E0
7C03E0
7C03E0
7E07C0
3E07C0
3E07C0
1F0F80
1F0F80
1F0F00
0F9F00
0F9F00
0F9E00
07FE00
07FE00
03FC00
03FC00
03FC00
01F800
01F800
01F000
01F000
03F000
47E000
3FE000
3FC000
3F8000
0C0000
ENDCHAR
STARTCHAR 0100
ENCODING 256
SWIDTH 720 0
DWIDTH 26 0
BBX 26 31 0 0
BITMAP
01FFE000
01FFE000
01FFE000
00000000
00000000
003F0000
003F0000
007F8000
007F8000
00FF8000
00FFC000
00FFC000
01F7E000
01F3E000
03F3E000
03E3F000
03E1F000
07C1F800
07C1F800
0FC0F800
0F80FC00
0FFFFC00
1FFFFE00
1FFFFE00
1FFFFE00
3F003F00
3E001F00
7E001F80
7C001F80
7C000F80
FC000FC0
ENDCHAR
STARTCHAR 0101
ENCODING 257
SWIDTH 553 0
DWIDTH 20 0
BBX 18 25 1 0
BITMAP
1FFE00
1FFE00
1FFE00
000000
000000
000000
07FC00
1FFE00
3FFF00
7FFF00
7C1F80
1C0F80
000F80
003F80
07FF80
1FFF80
7FCF80
7E0F80
F80F80
F80F80
FC1F80
FC3F80
7FFF80
3FFF80
1FC7C0
ENDCHAR
STARTCHAR 0102
ENCODING 258
SWIDTH 720 0
DWIDTH 26 0
BBX 26 32 0 0
BITMAP
00C0C000
00E1C000
00FFC000
007F8000
001C0000
00000000
003F0000
003F0000
007F8000
007F8000
00FF8000
00FFC000
00FFC000
01F7E000
01F3E000
03F3E000
03E3F000
03E1F000
07C1F800
07C1F800
0FC0F800
0F80FC00
0FFFFC00
1FFFFE00
1FFFFE00
1FFFFE00
3F003F00
3E001F00
7E001F80
7C001F80
7C000F80
FC000FC0
ENDCHAR
STARTCHAR 0103
ENCODING 259
SWIDTH 553 0
DWIDTH 20 0
BBX 18 26 1 0
BITMAP
0C0C00
0E1C00
0FFC00
07F800
01E000
000000
000000
07FC00
1FFE00
3FFF00
7FFF00
7C1F80
1C0F80
000F80
003F80
07FF80
1FFF80
7FCF80
7E0F80
F80F80
F80F80
FC1F80
FC3F80
7FFF80
3FFF80
1FC7C0
ENDCHAR
STARTCHAR 0104
ENCODING 260
SWIDTH 720 0
DWIDTH 26 0
BBX 28 34 0 -8
BITMAP
003F0000
003F0000
007F8000
007F8000
00FF8000
00FFC000
00FFC000
01F7E000
01F3E000
03F3E000
03E3F000
03E1F000
07C1F800
07C1F800
0FC0F800
0F80FC00
0FFFFC00
1FFFFE00
1FFFFE00
1FFFFE00
3F003F00
3E001F00
7E001F80
7C001F80
7C000F80
FC000FC0
00000E00
00000E00
00000E00
00000E00
00000F10
00000FF0
000007F0
00000180
ENDCHAR
STARTCHAR 0105
ENCODING 261
SWIDTH 553 0
DWIDTH 20 0
BBX 20 27 1 -8
BITMAP
07FC00
1FFE00
3FFF00
7FFF00
7C1F80
1C0F80
000F80
003F80
07FF80
1FFF80
7FCF80
7E0F80
F80F80
F80F80
FC1F80
FC3F80
7FFF80
3FFF80
1FC7C0
000700
000600
000600
000F00
000780
0007F0
0003F0
0000C0
ENDCHAR
STARTCHAR 0106
ENCODING 262
SWIDTH 720 0
DWIDTH 26 0
BBX 22 33 2 0
BITMAP
001F00
003E00
003C00
007800
007000
00E000
000000
01FF00
07FFC0
0FFFF0
1FFFF0
3FC7F8
7F01FC
7E00FC
7C0078
FC0000
F80000
F80000
F80000
F80000
F80000
F80000
F80000
F80000
FC0070
FC007C
7E00FC
7E01F8
3F83F8
1FFFF0
0FFFE0
07FFC0
01FF00
ENDCHAR
STARTCHAR 0107
ENCODING 263
SWIDTH 553 0
DWIDTH 20 0
BBX 18 26 1 0
BITMAP
007C00
00F800
00F000
01E000
01C000
000000
000000
03F800
0FFE00
1FFF00
3FFF80
3E0F80
7C07C0
7C0400
7C0000
7C0000
FC0000
7C0000
7C0000
7C0780
7C07C0
7E0FC0
3FFF80
1FFF00
0FFE00
07FC00
ENDCHAR
STARTCHAR 0108
ENCODING 264
SWIDTH 720 0
DWIDTH 26 0
BBX 22 33 2 0
BITMAP
007E00
00FE00
01EF00
01EF80
03C780
000000
000000
01FF00
07FFC0
0FFFF0
1FFFF0
3FC7F8
7F01FC
7E00FC
7C0078
FC0000
F80000
F80000
F80000
F80000
F80000
F80000
F80000
F80000
FC0070
FC007C
7E00FC
7E01F8
3F83F8
1FFFF0
0FFFE0
07FFC0
01FF00
ENDCHAR
STARTCHAR 0109
ENCODING 265
SWIDTH 553 0
DWIDTH 20 0
BBX 18 26 1 0
BITMAP
03F000
07F800
07F800
0F3C00
1E1E00
000000
000000
03F800
0FFE00
1FFF00
3FFF80
3E0F80
7C07C0
7C0400
7C0000
7C0000
FC0000
7C0000
7C0000
7C0780
7C07C0
7E0FC0
3FFF80
1FFF00
0FFE00
07FC00
ENDCHAR
STARTCHAR 010A
ENCODING 266
SWIDTH 720 0
DWIDTH 26 0
BBX 22 33 2 0
BITMAP
007C00
007C00
007C00
007C00
007C00
000000
000000
01FF00
07FFC0
0FFFF0
1FFFF0
3FC7F8
7F01FC
7E00FC
7C0078
FC0000
F80000
F80000
F80000
F80000
F80000
F80000
F80000
F80000
FC0070
FC007C
7E00FC
7E01F8
3F83F8
1FFFF0
0FFFE0
07FFC0
01FF00
ENDCHAR
STARTCHAR 010B
ENCODING 267
SWIDTH 553 0
DWIDTH 20 0
BBX 18 26 1 0
BITMAP
01F000
01F000
01F000
01F000
000000
000000
000000
03F800
0FFE00
1FFF00
3FFF80
3E0F80
7C07C0
7C0400
7C0000
7C0000
FC0000
7C0000
7C0000
7C0780
7C07C0
7E0FC0
3FFF80
1FFF00
0FFE00
07FC00
ENDCHAR
STARTCHAR 010C
ENCODING 268
SWIDTH 720 0
DWIDTH 26 0
BBX 22 33 2 0
BITMAP
078780
03CF00
01EF00
00FE00
00FC00
007C00
000000
01FF00
07FFC0
0FFFF0
1FFFF0
3FC7F8
7F01FC
7E00FC
7C0078
FC0000
F80000
F80000
F80000
F80000
F80000
F80000
F80000
F80000
FC0070
FC007C
7E00FC
7E01F8
3F83F8
1FFFF0
0FFFE0
07FFC0
01FF00
ENDCHAR
STARTCHAR 010D
ENCODING 269
SWIDTH 553 0
DWIDTH 20 0
BBX 18 26 1 0
BITMAP
0F1E00
07BC00
03FC00
01F800
01F000
000000
000000
03F800
0FFE00
1FFF00
3FFF80
3E0F80
7C07C0
7C0400
7C0000
7C0000
FC0000
7C0000
7C0000
7C0780
7C07C0
7E0FC0
3FFF80
1FFF00
0FFE00
07FC00
ENDCHAR
STARTCHAR 010E
ENCODING 270
SWIDTH 720 0
DWIDTH 26 0
BBX 21 33 3 0
BITMAP
3C3C00
1E7800
1EF000
0FF000
07E000
07C000
000000
FFF800
FFFF00
FFFF80
FFFFC0
FFFFE0
F807F0
F803F0
F801F8
F801F8
F800F8
F800F8
F800F8
F800F8
F800F8
F800F8
F800F8
F800F8
F801F8
F801F8
F801F0
F803F0
F81FE0
FFFFE0
FFFFC0
FFFF00
FFFC00
ENDCHAR
STARTCHAR 010F
ENCODING 271
SWIDTH 720 0
DWIDTH 26 0
BBX 25 26 1 0
BITMAP
0003EF80
0003EF80
0003EF80
0003EF80
0003EF80
0003E180
0003E380
07E3E700
0FFBEE00
1FFFE400
3FFFE000
7E0FE000
7C07E000
7C07E000
7C03E000
FC03E000
FC03E000
FC03E000
7C03E000
7C07E000
7C07E000
7E0FE000
3FFFE000
3FFFE000
1FFBE000
07F3E000
ENDCHAR
STARTCHAR 0110
ENCODING 272
SWIDTH 720 0
DWIDTH 26 0
BBX 24 26 0 0
BITMAP
1FFF00
1FFFE0
1FFFF0
1FFFF8
1FFFFC
1F00FE
1F007E
1F003F
1F003F
1F001F
1F001F
FFF81F
FFF81F
FFF81F
FFF81F
1F001F
1F001F
1F001F
1F003F
1F003E
1F007E
1F07FC
1FFFFC
1FFFF8
1FFFE0
1FFF80
ENDCHAR
STARTCHAR 0111
ENCODING 273
SWIDTH 609 0
DWIDTH 22 0
BBX 21 26 1 0
BITMAP
0003E0
0003E0
00FFF8
00FFF8
00FFF8
0003E0
0003E0
07E3E0
0FFBE0
1FFFE0
3FFFE0
7E0FE0
7C07E0
7C07E0
7C03E0
7C03E0
FC03E0
7C03E0
7C03E0
7C07E0
7C07E0
7E0FE0
3FFFE0
1FFFE0
1FFBE0
07F3E0
ENDCHAR
STARTCHAR 0112
ENCODING 274
SWIDTH 664 0
DWIDTH 24 0
BBX 19 31 3 0
BITMAP
1FFE00
1FFE00
1FFE00
000000
000000
FFFFE0
FFFFE0
FFFFE0
FFFFE0
FFFFE0
F80000
F80000
F80000
F80000
F80000
FFFFC0
FFFFC0
FFFFC0
FFFFC0
FFFFC0
F80000
F80000
F80000
F80000
F80000
F80000
F80000
FFFFE0
FFFFE0
FFFFE0
FFFFE0
ENDCHAR
STARTCHAR 0113
ENCODING 275
SWIDTH 553 0
DWIDTH 20 0
BBX 18 25 1 0
BITMAP
1FFE00
1FFE00
1FFE00
000000
000000
000000
07F000
0FFC00
1FFE00
3FFF00
7E1F80
7C0F80
780780
F80780
FFFFC0
FFFFC0
FFFFC0
F80000
F80000
7C0E00
7C0F80
3F1F80
3FFF00
1FFE00
07FC00
ENDCHAR
STARTCHAR 0114
ENCODING 276
SWIDTH 664 0
DWIDTH 24 0
BBX 19 33 3 0
BITMAP
0C0C00
0E1C00
0FFC00
07F800
01E000
000000
000000
FFFFE0
FFFFE0
FFFFE0
FFFFE0
FFFFE0
F80000
F80000
F80000
F80000
F80000
FFFFC0
FFFFC0
FFFFC0
FFFFC0
FFFFC0
F80000
F80000
F80000
F80000
F80000
F80000
F80000
FFFFE0
FFFFE0
FFFFE0
FFFFE0
ENDCHAR
STARTCHAR 0115
ENCODING 277
SWIDTH 553 0
DWIDTH 20 0
BBX 18 26 1 0
BITMAP
1C0C00
0C1C00
0FF800
07F800
01E000
000000
000000
07F000
0FFC00
1FFE00
3FFF00
7E1F80
7C0F80
780780
F80780
FFFFC0
FFFFC0
FFFFC0
F80000
F80000
7C0E00
7C0F80
3F1F80
3FFF00
1FFE00
07FC00
ENDCHAR
STARTCHAR 0116
ENCODING 278
SWIDTH 664 0
DWIDTH 24 0
BBX 19 33 3 0
BITMAP
01F000
01F000
01F000
01F000
01F000
000000
000000
FFFFE0
FFFFE0
FFFFE0
FFFFE0
FFFFE0
F80000
F80000
F80000
F80000
F80000
FFFFC0
FFFFC0
FFFFC0
FFFFC0
FFFFC0
F80000
F80000
F80000
F80000
F80000
F80000
F80000
FFFFE0
FFFFE0
FFFFE0
FFFFE0
ENDCHAR
STARTCHAR 0117
ENCODING 279
SWIDTH 553 0
DWIDTH 20 0
BBX 18 26 1 0
BITMAP
01E000
01E000
01E000
01E000
000000
000000
000000
07F000
0FFC00
1FFE00
3FFF00
7E1F80
7C0F80
780780
F80780
FFFFC0
FFFFC0
FFFFC0
F80000
F80000
7C0E00
7C0F80
3F1F80
3FFF00
1FFE00
07FC00
ENDCHAR
STARTCHAR 0118
ENCODING 280
SWIDTH 664 0
DWIDTH 24 0
BBX 19 34 3 -8
BITMAP
FFFFE0
FFFFE0
FFFFE0
FFFFE0
FFFFE0
F80000
F80000
F80000
F80000
F80000
FFFFC0
FFFFC0
FFFFC0
FFFFC0
FFFFC0
F80000
F80000
F80000
F80000
F80000
F80000
F80000
FFFFE0
FFFFE0
FFFFE0
FFFFE0
000C00
000C00
000C00
001E00
000E00
000FE0
0007E0
000180
ENDCHAR
STARTCHAR 0119
ENCODING 281
SWIDTH 553 0
DWIDTH 20 0
BBX 18 27 1 -8
BITMAP
07F000
0FFC00
1FFE00
3FFF00
7E1F80
7C0F80
780780
F80780
FFFFC0
FFFFC0
FFFFC0
F80000
F80000
7C0E00
7C0F80
3F1F80
3FFF00
1FFE00
07FC00
00C000
01C000
01C000
01C000
01E000
00FE00
00FE00
001800
ENDCHAR
STARTCHAR 011A
ENCODING 282
SWIDTH 664 0
DWIDTH 24 0
BBX 19 33 3 0
BITMAP
1E1E00
0F3C00
0FF800
07F800
03F000
01E000
000000
FFFFE0
FFFFE0
FFFFE0
FFFFE0
FFFFE0
F80000
F80000
F80000
F80000
F80000
FFFFC0
FFFFC0
FFFFC0
FFFFC0
FFFFC0
F80000
F80000
F80000
F80000
F80000
F80000
F80000
FFFFE0
FFFFE0
FFFFE0
FFFFE0
ENDCHAR
STARTCHAR 011B
ENCODING 283
SWIDTH 553 0
DWIDTH 20 0
BBX 18 26 1 0
BITMAP
1E3C00
0F7C00
07F800
03F000
03E000
000000
000000
07F000
0FFC00
1FFE00
3FFF00
7E1F80
7C0F80
780780
F80780
FFFFC0
FFFFC0
FFFFC0
F80000
F80000
7C0E00
7C0F80
3F1F80
3FFF00
1FFE00
07FC00
ENDCHAR
STARTCHAR 011C
ENCODING 284
SWIDTH 775 0
DWIDTH 28 0
BBX 24 33 2 0
BITMAP
003E00
007F00
00F780
01E780
01E3C0
000000
000000
00FFC0
03FFF0
0FFFF8
1FFFFC
3FC1FE
3F007E
7E003E
7C003E
FC0000
F80000
F80000
F80000
F807FF
F807FF
F807FF
F807FF
FC001F
FC001F
7C001F
7E001F
3F003F
3FC1FF
1FFFFF
0FFFFE
07FFF8
01FFC0
ENDCHAR
STARTCHAR 011D
ENCODING 285
SWIDTH 609 0
DWIDTH 22 0
BBX 19 34 1 -8
BITMAP
01F800
01FC00
03FC00
079E00
0F0F00
000000
000000
07E3E0
0FFBE0
1FFFE0
3FFFE0
7E0FE0
7C07E0
7C07E0
7C03E0
7C03E0
FC03E0
7C03E0
7C03E0
7C07E0
7E07E0
7F0FE0
3FFFE0
1FFBE0
0FF3E0
07E3E0
0003E0
6003E0
7E07C0
7F0FC0
3FFFC0
1FFF80
0FFE00
007000
ENDCHAR
STARTCHAR 011E
ENCODING 286
SWIDTH 775 0
DWIDTH 28 0
BBX 24 32 2 0
BITMAP
00C0C0
00E1C0
00FF80
007F80
001C00
000000
00FFC0
03FFF0
0FFFF8
1FFFFC
3FC1FE
3F007E
7E003E
7C003E
FC0000
F80000
F80000
F80000
F807FF
F807FF
F807FF
F807FF
FC001F
FC001F
7C001F
7E001F
3F003F
3FC1FF
1FFFFF
0FFFFE
07FFF8
01FFC0
ENDCHAR
STARTCHAR 011F
ENCODING 287
SWIDTH 609 0
DWIDTH 22 0
BBX 19 34 1 -8
BITMAP
0E0600
0E0E00
07FC00
03F800
01F000
000000
000000
07E3E0
0FFBE0
1FFFE0
3FFFE0
7E0FE0
7C07E0
7C07E0
7C03E0
7C03E0
FC03E0
7C03E0
7C03E0
7C07E0
7E07E0
7F0FE0
3FFFE0
1FFBE0
0FF3E0
07E3E0
0003E0
6003E0
7E07C0
7F0FC0
3FFFC0
1FFF80
0FFE00
007000
ENDCHAR
STARTCHAR 0120
ENCODING 288
SWIDTH 775 0
DWIDTH 28 0
BBX 24 33 2 0
BITMAP
003E00
003E00
003E00
003E00
003E00
000000
000000
00FFC0
03FFF0
0FFFF8
1FFFFC
3FC1FE
3F007E
7E003E
7C003E
FC0000
F80000
F80000
F80000
F807FF
F807FF
F807FF
F807FF
FC001F
FC001F
7C001F
7E001F
3F003F
3FC1FF
1FFFFF
0FFFFE
07FFF8
01FFC0
ENDCHAR
STARTCHAR 0121
ENCODING 289
SWIDTH 609 0
DWIDTH 22 0
BBX 19 34 1 -8
BITMAP
00F000
00F000
00F000
00F000
000000
000000
000000
07E3E0
0FFBE0
1FFFE0
3FFFE0
7E0FE0
7C07E0
7C07E0
7C03E0
7C03E0
FC03E0
7C03E0
7C03E0
7C07E0
7E07E0
7F0FE0
3FFFE0
1FFBE0
0FF3E0
07E3E0
0003E0
6003E0
7E07C0
7F0FC0
3FFFC0
1FFF80
0FFE00
007000
ENDCHAR
STARTCHAR 0122
ENCODING 290
SWIDTH 775 0
DWIDTH 28 0
BBX 24 33 2 -7
BITMAP
00FFC0
07FFF0
0FFFF8
1FFFFC
3FC1FE
3F007E
7E003E
7C003E
FC0000
FC0000
F80000
F80000
F807FF
F807FF
F807FF
F807FF
FC001F
FC001F
7C001F
7E001F
3F003F
3FC0FF
1FFFFF
0FFFFE
07FFF8
01FFC0
003C00
007F00
000F00
000700
000700
01FF00
01FC00
ENDCHAR
STARTCHAR 0123
ENCODING 291
SWIDTH 609 0
DWIDTH 22 0
BBX 19 37 1 -8
BITMAP
002000
00E000
01E000
01C000
018000
03F000
03F000
03F000
000000
000000
07E3E0
0FFBE0
1FFFE0
3FFFE0
7E0FE0
7C07E0
7C07E0
7C03E0
7C03E0
FC03E0
7C03E0
7C03E0
7C07E0
7E07E0
7F1FE0
3FFFE0
1FFBE0
0FF3E0
07E3E0
0003E0
6003E0
7E07C0
7F1FC0
3FFFC0
1FFF80
0FFE00
006000
ENDCHAR
STARTCHAR 0124
ENCODING 292
SWIDTH 720 0
DWIDTH 26 0
BBX 20 33 3 0
BITMAP
01F800
03FC00
03FC00
079E00
0F0F00
000000
000000
F801F0
F801F0
F801F0
F801F0
F801F0
F801F0
F801F0
F801F0
F801F0
F801F0
FFFFF0
FFFFF0
FFFFF0
FFFFF0
FFFFF0
F801F0
F801F0
F801F0
F801F0
F801F0
F801F0
F801F0
F801F0
F801F0
F801F0
F801F0
ENDCHAR
STARTCHAR 0125
ENCODING 293
SWIDTH 609 0
DWIDTH 22 0
BBX 17 33 3 0
BITMAP
03C000
07E000
0FF000
0FF800
1E7800
3C3C00
000000
F80000
F80000
F80000
F80000
F80000
F80000
F80000
F9F800
FBFE00
FFFF00
FFFF00
FC1F00
F81F80
F80F80
F80F80
F80F80
F80F80
F80F80
F80F80
F80F80
F80F80
F80F80
F80F80
F80F80
F80F80
F80F80
ENDCHAR
STARTCHAR 0126
ENCODING 294
SWIDTH 720 0
DWIDTH 26 0
BBX 26 26 0 0
BITMAP
1F003E00
1F003E00
1F003E00
1F003E00
FFFFFFC0
FFFFFFC0
FFFFFFC0
1F003E00
1F003E00
1F003E00
1FFFFE00
1FFFFE00
1FFFFE00
1FFFFE00
1FFFFE00
1F003E00
1F003E00
1F003E00
1F003E00
1F003E00
1F003E00
1F003E00
1F003E00
1F003E00
1F003E00
1F003E00
ENDCHAR
STARTCHAR 0127
ENCODING 295
SWIDTH 609 0
DWIDTH 22 0
BBX 20 26 0 0
BITMAP
1F0000
1F0000
FFF800
FFF800
FFF800
1F0000
1F0000
1F3F00
1F7FC0
1FFFE0
1FFFE0
1F83E0
1F03F0
1F01F0
1F01F0
1F01F0
1F01F0
1F01F0
1F01F0
1F01F0
1F01F0
1F01F0
1F01F0
1F01F0
1F01F0
1F01F0
ENDCHAR
STARTCHAR 0128
ENCODING 296
SWIDTH 276 0
DWIDTH 10 0
BBX 12 33 -1 0
BITMAP
3030
7E70
FFF0
EFE0
C1C0
0000
0000
1F80
1F80
1F80
1F80
1F80
1F80
1F80
1F80
1F80
1F80
1F80
1F80
1F80
1F80
1F80
1F80
1F80
1F80
1F80
1F80
1F80
1F80
1F80
1F80
1F80
1F80
ENDCHAR
STARTCHAR 0129
ENCODING 297
SWIDTH 276 0
DWIDTH 10 0
BBX 12 26 -1 0
BITMAP
3030
7E70
FFF0
E7E0
C1C0
0000
0000
0F80
0F80
0F80
0F80
0F80
0F80
0F80
0F80
0F80
0F80
0F80
0F80
0F80
0F80
0F80
0F80
0F80
0F80
0F80
ENDCHAR
STARTCHAR 012A
ENCODING 298
SWIDTH 276 0
DWIDTH 10 0
BBX 12 31 -1 0
BITMAP
FFF0
FFF0
FFF0
0000
0000
1F80
1F80
1F80
1F80
1F80
1F80
1F80
1F80
1F80
1F80
1F80
1F80
1F80
1F80
1F80
1F80
1F80
1F80
1F80
1F80
1F80
1F80
1F80
1F80
1F80
1F80
ENDCHAR
STARTCHAR 012B
ENCODING 299
SWIDTH 276 0
DWIDTH 10 0
BBX 12 25 -1 0
BITMAP
FFF0
FFF0
FFF0
0000
0000
0000
0F80
0F80
0F80
0F80
0F80
0F80
0F80
0F80
0F80
0F80
0F80
0F80
0F80
0F80
0F80
0F80
0F80
0F80
0F80
ENDCHAR
STARTCHAR 012C
ENCODING 300
SWIDTH 276 0
DWIDTH 10 0
BBX 10 33 0 0
BITMAP
C0C0
E1C0
FFC0
7F80
3E00
0000
0000
3F00
3F00
3F00
3F00
3F00
3F00
3F00
3F00
3F00
3F00
3F00
3F00
3F00
3F00
3F00
3F00
3F00
3F00
3F00
3F00
3F00
3F00
3F00
3F00
3F00
3F00
ENDCHAR
STARTCHAR 012D
ENCODING 301
SWIDTH 276 0
DWIDTH 10 0
BBX 10 26 0 0
BITMAP
C0C0
E1C0
FFC0
7F80
1E00
0000
0000
1F00
1F00
1F00
1F00
1F00
1F00
1F00
1F00
1F00
1F00
1F00
1F00
1F00
1F00
1F00
1F00
1F00
1F00
1F00
ENDCHAR
STARTCHAR 012E
ENCODING 302
SWIDTH 276 0
DWIDTH 10 0
BBX 8 34 2 -8
BITMAP
FC
FC
FC
FC
FC
FC
FC
FC
FC
FC
FC
FC
FC
FC
FC
FC
FC
FC
FC
FC
FC
FC
FC
FC
FC
FC
E0
E0
E0
E0
F0
FF
7F
18
ENDCHAR
STARTCHAR 012F
ENCODING 303
SWIDTH 276 0
DWIDTH 10 0
BBX 8 34 2 -8
BITMAP
7C
7C
7C
7C
7C
00
00
7C
7C
7C
7C
7C
7C
7C
7C
7C
7C
7C
7C
7C
7C
7C
7C
7C
7C
7C
E0
E0
E0
E0
F0
FF
7F
08
ENDCHAR
STARTCHAR 0130
ENCODING 304
SWIDTH 276 0
DWIDTH 10 0
BBX 6 32 2 0
BITMAP
7C
7C
7C
7C
7C
00
FC
FC
FC
FC
FC
FC
FC
FC
FC
FC
FC
FC
FC
FC
FC
FC
FC
FC
FC
FC
FC
FC
FC
FC
FC
FC
ENDCHAR
STARTCHAR 0131
ENCODING 305
SWIDTH 276 0
DWIDTH 10 0
BBX 5 19 3 0
BITMAP
F8
F8
F8
F8
F8
F8
F8
F8
F8
F8
F8
F8
F8
F8
F8
F8
F8
F8
F8
ENDCHAR
STARTCHAR 0132
ENCODING 306
SWIDTH 775 0
DWIDTH 28 0
BBX 24 26 2 0
BITMAP
FC003F
FC003F
FC003F
FC003F
FC003F
FC003F
FC003F
FC003F
FC003F
FC003F
FC003F
FC003F
FC003F
FC003F
FC003F
FC003F
FC003F
FC003F
FDF03F
FDF03E
FDF83E
FCFC7E
FCFFFE
FCFFFC
FC7FF8
FC1FF0
ENDCHAR
STARTCHAR 0133
ENCODING 307
SWIDTH 553 0
DWIDTH 20 0
BBX 14 34 3 -8
BITMAP
F87C
F87C
F87C
F87C
F87C
0000
0000
F87C
F87C
F87C
F87C
F87C
F87C
F87C
F87C
F87C
F87C
F87C
F87C
F87C
F87C
F87C
F87C
F87C
F87C
F87C
007C
007C
007C
03FC
03FC
07F8
07F0
01C0
ENDCHAR
STARTCHAR 0134
ENCODING 308
SWIDTH 553 0
DWIDTH 20 0
BBX 19 33 1 0
BITMAP
001F00
003F80
007BC0
007BE0
00F1E0
000000
000000
001F00
001F00
001F00
001F00
001F00
001F00
001F00
001F00
001F00
001F00
001F00
001F00
001F00
001F00
001F00
001F00
001F00
081F00
F81F00
F81F00
F81F00
FC3F00
FFFE00
7FFE00
3FFC00
1FF000
ENDCHAR
STARTCHAR 0135
ENCODING 309
SWIDTH 276 0
DWIDTH 10 0
BBX 13 34 -2 -8
BITMAP
0FC0
1FE0
1FE0
3CF0
7878
0000
0000
0F80
0F80
0F80
0F80
0F80
0F80
0F80
0F80
0F80
0F80
0F80
0F80
0F80
0F80
0F80
0F80
0F80
0F80
0F80
0F80
0F80
0F80
7F80
7F80
7F00
FF00
3800
ENDCHAR
STARTCHAR 0136
ENCODING 310
SWIDTH 720 0
DWIDTH 26 0
BBX 23 33 3 -7
BITMAP
F801FC
F803F8
F807F0
F80FE0
F81FC0
F81F80
F83F00
F87E00
F8FC00
F9F800
FBF800
FFFC00
FFFC00
FFFE00
FFFF00
FF3F00
FE1F80
FC1F80
F80FC0
F80FE0
F807E0
F803F0
F803F8
F801F8
F801FC
F800FE
01E000
01FC00
01FC00
001C00
001C00
07FC00
07F000
ENDCHAR
STARTCHAR 0137
ENCODING 311
SWIDTH 553 0
DWIDTH 20 0
BBX 17 33 2 -7
BITMAP
F80000
F80000
F80000
F80000
F80000
F80000
F80000
F81F80
F83F00
F87E00
F8FC00
F9F800
F9F000
FBE000
FFE000
FFF000
FFF000
FFF800
FEF800
FC7C00
F87E00
F83E00
F83F00
F81F00
F80F80
F80F80
03C000
03F000
03F800
007800
007800
1FF000
1FE000
ENDCHAR
STARTCHAR 0138
ENCODING 312
SWIDTH 553 0
DWIDTH 20 0
BBX 18 19 2 0
BITMAP
F81F80
F83F00
F87E00
F8FC00
F8F800
F9F000
FBF000
FFE000
FFF000
FFF000
FFF800
FEF800
FC7C00
F87E00
F83E00
F83F00
F81F00
F80F80
F80FC0
ENDCHAR
STARTCHAR 0139
ENCODING 313
SWIDTH 609 0
DWIDTH 22 0
BBX 18 33 3 0
BITMAP
01F000
01F000
03E000
03C000
078000
070000
000000
F80000
F80000
F80000
F80000
F80000
F80000
F80000
F80000
F80000
F80000
F80000
F80000
F80000
F80000
F80000
F80000
F80000
F80000
F80000
F80000
F80000
F80000
FFFFC0
FFFFC0
FFFFC0
FFFFC0
ENDCHAR
STARTCHAR 013A
ENCODING 314
SWIDTH 276 0
DWIDTH 10 0
BBX 8 32 2 0
BITMAP
3F
3C
78
70
F0
00
7C
7C
7C
7C
7C
7C
7C
7C
7C
7C
7C
7C
7C
7C
7C
7C
7C
7C
7C
7C
7C
7C
7C
7C
7C
7C
ENDCHAR
STARTCHAR 013B
ENCODING 315
SWIDTH 609 0
DWIDTH 22 0
BBX 18 33 3 -7
BITMAP
F80000
F80000
F80000
F80000
F80000
F80000
F80000
F80000
F80000
F80000
F80000
F80000
F80000
F80000
F80000
F80000
F80000
F80000
F80000
F80000
F80000
F80000
FFFFC0
FFFFC0
FFFFC0
FFFFC0
078000
07F000
07F000
007000
00F000
1FF000
1FC000
ENDCHAR
STARTCHAR 013C
ENCODING 316
SWIDTH 276 0
DWIDTH 10 0
BBX 9 33 0 -7
BITMAP
1F00
1F00
1F00
1F00
1F00
1F00
1F00
1F00
1F00
1F00
1F00
1F00
1F00
1F00
1F00
1F00
1F00
1F00
1F00
1F00
1F00
1F00
1F00
1F00
1F00
1F00
3C00
3F00
3F80
0380
0780
FF80
FE00
ENDCHAR
STARTCHAR 013D
ENCODING 317
SWIDTH 609 0
DWIDTH 22 0
BBX 18 26 3 0
BITMAP
F80F80
F80F80
F80F80
F80F80
F80F80
F80380
F80380
F80300
F80700
F80E00
F80C00
F80000
F80000
F80000
F80000
F80000
F80000
F80000
F80000
F80000
F80000
F80000
FFFFC0
FFFFC0
FFFFC0
FFFFC0
ENDCHAR
STARTCHAR 013E
ENCODING 318
SWIDTH 387 0
DWIDTH 14 0
BBX 11 26 3 0
BITMAP
FBE0
FBE0
FBE0
FBE0
FBE0
F8E0
F8C0
F9C0
FB80
F900
F800
F800
F800
F800
F800
F800
F800
F800
F800
F800
F800
F800
F800
F800
F800
F800
ENDCHAR
STARTCHAR 013F
ENCODING 319
SWIDTH 609 0
DWIDTH 22 0
BBX 18 26 3 0
BITMAP
F80000
F80000
F80000
F80000
F80000
F80000
F80000
F80000
F80000
F80000
F80000
F81F00
F81F00
F81F00
F81F00
F81F00
F80000
F80000
F80000
F80000
F80000
F80000
FFFFC0
FFFFC0
FFFFC0
FFFFC0
ENDCHAR
STARTCHAR 0140
ENCODING 320
SWIDTH 470 0
DWIDTH 17 0
BBX 12 26 3 0
BITMAP
F800
F800
F800
F800
F800
F800
F800
F800
F800
F800
F800
F9F0
F9F0
F9F0
F9F0
F9F0
F800
F800
F800
F800
F800
F800
F800
F800
F800
F800
ENDCHAR
STARTCHAR 0141
ENCODING 321
SWIDTH 609 0
DWIDTH 22 0
BBX 21 26 0 0
BITMAP
1F0000
1F0000
1F0000
1F0000
1F0400
1F0C00
1F1C00
1F3C00
1FF800
1FF000
1FE000
1FC000
1F8000
3F0000
7F0000
FF0000
FF0000
FF0000
9F0000
1F0000
1F0000
1F0000
1FFFF8
1FFFF8
1FFFF8
1FFFF8
ENDCHAR
STARTCHAR 0142
ENCODING 322
SWIDTH 276 0
DWIDTH 10 0
BBX 10 26 0 0
BITMAP
1F00
1F00
1F00
1F00
1F00
1F00
1F00
1F40
1FC0
1FC0
1FC0
1F80
1F00
3F00
7F00
FF00
FF00
DF00
1F00
1F00
1F00
1F00
1F00
1F00
1F00
1F00
ENDCHAR
STARTCHAR 0143
ENCODING 323
SWIDTH 720 0
DWIDTH 26 0
BBX 20 33 3 0
BITMAP
007E00
007C00
00F800
00F000
01E000
01C000
000000
F801F0
FC01F0
FC01F0
FE01F0
FE01F0
FF01F0
FF81F0
FF81F0
FFC1F0
FFE1F0
FFE1F0
FBF1F0
F9F1F0
F9F9F0
F8FDF0
F8FDF0
F87FF0
F83FF0
F83FF0
F81FF0
F80FF0
F80FF0
F807F0
F807F0
F803F0
F801F0
ENDCHAR
STARTCHAR 0144
ENCODING 324
SWIDTH 609 0
DWIDTH 22 0
BBX 17 26 3 0
BITMAP
01F800
01F000
01E000
03C000
038000
000000
000000
F1F800
F3FE00
F7FF00
FFFF00
FC1F00
F81F80
F80F80
F80F80
F80F80
F80F80
F80F80
F80F80
F80F80
F80F80
F80F80
F80F80
F80F80
F80F80
F80F80
ENDCHAR
STARTCHAR 0145
ENCODING 325
SWIDTH 720 0
DWIDTH 26 0
BBX 20 33 3 -7
BITMAP
F801F0
FC01F0
FC01F0
FE01F0
FE01F0
FF01F0
FF81F0
FF81F0
FFC1F0
FFE1F0
FFE1F0
FBF1F0
F9F1F0
F9F9F0
F8FDF0
F8FDF0
F87FF0
F83FF0
F83FF0
F81FF0
F80FF0
F80FF0
F807F0
F807F0
F803F0
F801F0
01E000
01FC00
01FC00
001C00
001C00
07FC00
07F000
ENDCHAR
STARTCHAR 0146
ENCODING 326
SWIDTH 609 0
DWIDTH 22 0
BBX 17 26 3 -7
BITMAP
F1F800
F3FE00
F7FF00
FFFF00
FC1F00
F81F80
F80F80
F80F80
F80F80
F80F80
F80F80
F80F80
F80F80
F80F80
F80F80
F80F80
F80F80
F80F80
F80F80
078000
07F000
07F000
007000
00F000
1FF000
1FC000
ENDCHAR
STARTCHAR 0147
ENCODING 327
SWIDTH 720 0
DWIDTH 26 0
BBX 20 33 3 0
BITMAP
0F1F00
0F1E00
07BC00
03F800
01F800
01F000
000000
F801F0
FC01F0
FC01F0
FE01F0
FE01F0
FF01F0
FF81F0
FF81F0
FFC1F0
FFE1F0
FFE1F0
FBF1F0
F9F1F0
F9F9F0
F8FDF0
F8FDF0
F87FF0
F83FF0
F83FF0
F81FF0
F80FF0
F80FF0
F807F0
F807F0
F803F0
F801F0
ENDCHAR
STARTCHAR 0148
ENCODING 328
SWIDTH 609 0
DWIDTH 22 0
BBX 17 26 3 0
BITMAP
1E7C00
1E7800
0FF000
07E000
03E000
000000
000000
F1F800
F3FE00
F7FF00
FFFF00
FC1F00
F81F80
F80F80
F80F80
F80F80
F80F80
F80F80
F80F80
F80F80
F80F80
F80F80
F80F80
F80F80
F80F80
F80F80
ENDCHAR
STARTCHAR 0149
ENCODING 329
SWIDTH 720 0
DWIDTH 26 0
BBX 24 26 -1 0
BITMAP
F80000
F80000
F80000
F80000
F80000
180000
180000
39E1F8
71E7FC
E1EFFE
41FFFF
01F83F
01F81F
01F01F
01F01F
01F01F
01F01F
01F01F
01F01F
01F01F
01F01F
01F01F
01F01F
01F01F
01F01F
01F01F
ENDCHAR
STARTCHAR 014A
ENCODING 330
SWIDTH 720 0
DWIDTH 26 0
BBX 21 26 3 0
BITMAP
F87F80
F8FFC0
FBFFE0
FFFFF0
FFCFF0
FE03F8
FC01F8
FC01F8
F800F8
F800F8
F800F8
F800F8
F800F8
F800F8
F800F8
F800F8
F800F8
F800F8
F800F8
F800F8
F801F8
F821F8
F83FF0
F83FF0
F87FE0
F87FC0
ENDCHAR
STARTCHAR 014B
ENCODING 331
SWIDTH 609 0
DWIDTH 22 0
BBX 17 27 3 -8
BITMAP
F1F800
F3FE00
F7FF00
FFFF00
FC1F00
F81F80
F81F80
F80F80
F80F80
F00F80
F00F80
F00F80
F00F80
F00F80
F00F80
F00F80
F00F80
F00F80
F00F80
000F80
001F80
001F00
00FF00
00FF00
00FF00
00FE00
007000
ENDCHAR
STARTCHAR 014C
ENCODING 332
SWIDTH 775 0
DWIDTH 28 0
BBX 25 31 2 0
BITMAP
03FFC000
03FFC000
03FFC000
00000000
00000000
01FF8000
07FFE000
0FFFF000
1FFFF800
3FC3FC00
7F00FE00
7E007E00
FC003F00
FC001F00
F8001F00
F8001F80
F8001F80
F8001F80
F8001F80
F8001F80
F8001F80
F8001F00
FC001F00
FC003F00
7E007E00
7F00FE00
3FC1FC00
1FFFFC00
0FFFF800
07FFE000
01FF8000
ENDCHAR
STARTCHAR 014D
ENCODING 333
SWIDTH 609 0
DWIDTH 22 0
BBX 20 25 1 0
BITMAP
0FFF00
0FFF00
0FFF00
000000
000000
000000
03FC00
0FFF00
1FFF80
3FFFC0
3F0FE0
7E07E0
7C03E0
7C03F0
7C01F0
FC01F0
FC01F0
7C01F0
7C03E0
7E03E0
7F07E0
3FFFC0
1FFF80
0FFF00
03FC00
ENDCHAR
STARTCHAR 014E
ENCODING 334
SWIDTH 775 0
DWIDTH 28 0
BBX 25 33 2 0
BITMAP
01818000
01C38000
01FF8000
00FF0000
003C0000
00000000
00000000
01FF8000
07FFE000
0FFFF000
1FFFF800
3FC3FC00
7F00FE00
7E007E00
FC003F00
FC001F00
F8001F00
F8001F80
F8001F80
F8001F80
F8001F80
F8001F80
F8001F80
F8001F00
FC001F00
FC003F00
7E007E00
7F00FE00
3FC1FC00
1FFFFC00
0FFFF800
07FFE000
01FF8000
ENDCHAR
STARTCHAR 014F
ENCODING 335
SWIDTH 609 0
DWIDTH 22 0
BBX 20 26 1 0
BITMAP
060600
070E00
07FE00
03FC00
00F000
000000
000000
03FC00
0FFF00
1FFF80
3FFFC0
3F0FE0
7E07E0
7C03E0
7C03F0
7C01F0
FC01F0
FC01F0
7C01F0
7C03E0
7E03E0
7F07E0
3FFFC0
1FFF80
0FFF00
03FC00
ENDCHAR
STARTCHAR 0150
ENCODING 336
SWIDTH 775 0
DWIDTH 28 0
BBX 25 33 2 0
BITMAP
007CF800
00F9F000
00F1E000
01E3C000
01E38000
01C70000
00000000
01FF8000
07FFE000
0FFFF000
1FFFF800
3FC3FC00
7F00FE00
7E007E00
FC003F00
FC001F00
F8001F00
F8001F80
F8001F80
F8001F80
F8001F80
F8001F80
F8001F80
F8001F00
FC001F00
FC003F00
7E007E00
7F00FE00
3FC1FC00
1FFFFC00
0FFFF800
07FFE000
01FF8000
ENDCHAR
STARTCHAR 0151
ENCODING 337
SWIDTH 609 0
DWIDTH 22 0
BBX 20 26 1 0
BITMAP
03E7C0
03CF80
078F00
071E00
0E1C00
000000
000000
03FC00
0FFF00
1FFF80
3FFFC0
3F0FE0
7E07E0
7C03E0
7C03F0
7C01F0
FC01F0
FC01F0
7C01F0
7C03E0
7E03E0
7F07E0
3FFFC0
1FFF80
0FFF00
03FC00
ENDCHAR
STARTCHAR 0152
ENCODING 338
SWIDTH 996 0
DWIDTH 36 0
BBX 34 26 1 0
BITMAP
03FC7FFFC0
07FF7FFFC0
0FFFFFFFC0
1FFFFFFFC0
3FC7FFFFC0
3F01FC0000
7E00FC0000
7C00FC0000
7C007C0000
7C007C0000
FC007FFF80
FC007FFF80
FC007FFF80
FC007FFF80
FC007FFF80
FC007C0000
7C007C0000
7C007C0000
7E00FC0000
7E00FC0000
3F01FC0000
3F87FC0000
1FFFFFFFC0
1FFFFFFFC0
0FFF7FFFC0
03FE7FFFC0
ENDCHAR
STARTCHAR 0153
ENCODING 339
SWIDTH 941 0
DWIDTH 34 0
BBX 31 19 2 0
BITMAP
07F83F80
1FFE7FE0
3FFFFFF0
7FFFFFF8
7E1FF07C
FC0FE07C
F807E03C
F807C03C
F807FFFE
F807FFFE
F807FFFE
F807C000
F807E000
FC0FE078
7E0FF07C
7FFFF9FC
3FFFFFF8
1FFEFFF0
07F83FC0
ENDCHAR
STARTCHAR 0154
ENCODING 340
SWIDTH 720 0
DWIDTH 26 0
BBX 23 33 3 0
BITMAP
00F800
01F000
01E000
03C000
038000
078000
000000
FFFE00
FFFFC0
FFFFE0
FFFFF0
FFFFF0
F801F8
F801F8
F801F8
F801F8
F801F8
F803F0
FFFFF0
FFFFE0
FFFF80
FFFC00
F87E00
F83F80
F81F80
F80FC0
F80FE0
F807E0
F803F0
F803F8
F801F8
F800FC
F800FE
ENDCHAR
STARTCHAR 0155
ENCODING 341
SWIDTH 387 0
DWIDTH 14 0
BBX 12 26 2 0
BITMAP
07C0
0F80
0F00
0E00
1C00
0000
0000
F9F0
FBF0
FFF0
FFF0
FF20
FC00
FC00
FC00
FC00
F800
F800
F800
F800
F800
F800
F800
F800
F800
F800
ENDCHAR
STARTCHAR 0156
ENCODING 342
SWIDTH 720 0
DWIDTH 26 0
BBX 23 33 3 -7
BITMAP
FFFE00
FFFFC0
FFFFE0
FFFFF0
FFFFF0
F801F8
F801F8
F801F8
F801F8
F801F8
F803F0
FFFFF0
FFFFE0
FFFF80
FFFC00
F87E00
F83F80
F81F80
F80FC0
F80FE0
F807E0
F803F0
F803F8
F801F8
F800FC
F800FE
01E000
01FC00
01FC00
001C00
001C00
07FC00
07F000
ENDCHAR
STARTCHAR 0157
ENCODING 343
SWIDTH 387 0
DWIDTH 14 0
BBX 13 26 1 -7
BITMAP
7CF8
7DF8
7FF8
7FF8
7F90
7E00
7E00
7E00
7E00
7C00
7C00
7C00
7C00
7C00
7C00
7C00
7C00
7C00
7C00
3C00
3F80
3F80
0380
0380
FF80
FE00
ENDCHAR
STARTCHAR 0158
ENCODING 344
SWIDTH 720 0
DWIDTH 26 0
BBX 23 33 3 0
BITMAP
3C3C00
1E7800
0F7800
0FF000
07E000
03E000
000000
FFFE00
FFFFC0
FFFFE0
FFFFF0
FFFFF0
F801F8
F801F8
F801F8
F801F8
F801F8
F803F0
FFFFF0
FFFFE0
FFFF80
FFFC00
F87E00
F83F80
F81F80
F80FC0
F80FE0
F807E0
F803F0
F803F8
F801F8
F800FC
F800FE
ENDCHAR
STARTCHAR 0159
ENCODING 345
SWIDTH 387 0
DWIDTH 14 0
BBX 12 26 2 0
BITMAP
F1E0
7BC0
7F80
3F80
1F00
0000
0000
F9F0
FBF0
FFF0
FFF0
FF20
FC00
FC00
FC00
FC00
F800
F800
F800
F800
F800
F800
F800
F800
F800
F800
ENDCHAR
STARTCHAR 015A
ENCODING 346
SWIDTH 664 0
DWIDTH 24 0
BBX 21 33 1 0
BITMAP
001F80
001F00
003E00
003C00
007800
007000
000000
03FF00
0FFFC0
1FFFE0
3FFFE0
3F07F0
7E03F0
7C01F8
7E01F8
7F0000
3FC000
3FFC00
1FFF80
0FFFE0
03FFF0
007FF0
0007F8
0001F8
7C00F8
FC00F8
7C00F8
7E01F8
7F03F8
3FFFF0
1FFFE0
0FFFC0
03FF80
ENDCHAR
STARTCHAR 015B
ENCODING 347
SWIDTH 553 0
DWIDTH 20 0
BBX 17 26 1 0
BITMAP
007C00
007800
00F000
00E000
01E000
000000
000000
0FF800
3FFE00
3FFF00
7E7F00
781F80
780800
7E0000
7FE000
7FFC00
3FFF00
0FFF80
01FF80
001F80
780F80
FC0F80
7E1F80
7FFF00
3FFE00
0FFC00
ENDCHAR
STARTCHAR 015C
ENCODING 348
SWIDTH 664 0
DWIDTH 24 0
BBX 21 33 1 0
BITMAP
00FC00
01FE00
01FE00
03CF00
078780
000000
000000
03FF00
0FFFC0
1FFFE0
3FFFE0
3F07F0
7E03F0
7C01F8
7E01F8
7F0000
3FC000
3FFC00
1FFF80
0FFFE0
03FFF0
007FF0
0007F8
0001F8
7C00F8
FC00F8
7C00F8
7E01F8
7F03F8
3FFFF0
1FFFE0
0FFFC0
03FF80
ENDCHAR
STARTCHAR 015D
ENCODING 349
SWIDTH 553 0
DWIDTH 20 0
BBX 17 26 1 0
BITMAP
03F000
03F800
07F800
0F3C00
1E1E00
000000
000000
0FF800
3FFE00
3FFF00
7E7F00
781F80
780800
7E0000
7FE000
7FFC00
3FFF00
0FFF80
01FF80
001F80
780F80
FC0F80
7E1F80
7FFF00
3FFE00
0FFC00
ENDCHAR
STARTCHAR 015E
ENCODING 350
SWIDTH 664 0
DWIDTH 24 0
BBX 21 33 1 -7
BITMAP
03FF00
0FFFC0
1FFFE0
3FFFE0
3F07F0
7E03F0
7C01F8
7E01F8
7F0000
3FC000
3FFC00
1FFF80
0FFFE0
03FFF0
007FF0
0007F8
0001F8
7C00F8
FC00F8
7C00F8
7E01F8
7F03F8
3FFFF0
1FFFE0
0FFFC0
03FF80
003800
00FE00
000F00
000F00
000F00
03FE00
03FC00
ENDCHAR
STARTCHAR 015F
ENCODING 351
SWIDTH 553 0
DWIDTH 20 0
BBX 17 26 1 -7
BITMAP
0FF800
3FFE00
3FFF00
7E7F00
781F80
780800
7E0000
7FE000
7FFC00
3FFF00
0FFF80
01FF80
001F80
780F80
FC0F80
7E1F80
7FFF00
3FFE00
0FFC00
00F000
01F800
003C00
001C00
003C00
07FC00
07F000
ENDCHAR
STARTCHAR 0160
ENCODING 352
SWIDTH 664 0
DWIDTH 24 0
BBX 21 33 1 0
BITMAP
078780
03CF00
03DE00
01FE00
00FC00
007800
000000
03FF00
0FFFC0
1FFFE0
3FFFE0
3F07F0
7E03F0
7C01F8
7E01F8
7F0000
3FC000
3FFC00
1FFF80
0FFFE0
03FFF0
007FF0
0007F8
0001F8
7C00F8
FC00F8
7C00F8
7E01F8
7F03F8
3FFFF0
1FFFE0
0FFFC0
03FF80
ENDCHAR
STARTCHAR 0161
ENCODING 353
SWIDTH 553 0
DWIDTH 20 0
BBX 17 26 1 0
BITMAP
1E3C00
0F7800
07F800
07F000
03E000
000000
000000
0FF800
3FFE00
3FFF00
7E7F00
781F80
780800
7E0000
7FE000
7FFC00
3FFF00
0FFF80
01FF80
001F80
780F80
FC0F80
7E1F80
7FFF00
3FFE00
0FFC00
ENDCHAR
STARTCHAR 0162
ENCODING 354
SWIDTH 609 0
DWIDTH 22 0
BBX 20 37 1 -12
BITMAP
FFFFF0
FFFFF0
FFFFF0
FFFFF0
FFFFF0
01F800
01F800
01F800
01F800
01F800
01F800
01F800
01F800
01F800
01F800
01F800
01F800
01F800
01F800
01F800
01F800
01F800
01F800
01F800
01F800
01F800
000000
000000
00F800
00F800
00F800
00F800
00F800
003000
007000
01E000
00C000
ENDCHAR
STARTCHAR 0163
ENCODING 355
SWIDTH 332 0
DWIDTH 12 0
BBX 11 36 1 -11
BITMAP
0600
0E00
3E00
3E00
3E00
3E00
FFC0
FFC0
FFC0
FFC0
3E00
3E00
3E00
3E00
3E00
3E00
3E00
3E00
3E00
3E00
3E00
3FC0
3FC0
3FC0
1FE0
0000
0000
0F00
0F00
0F00
0F00
0F00
0700
0E00
0C00
0800
ENDCHAR
STARTCHAR 0164
ENCODING 356
SWIDTH 609 0
DWIDTH 22 0
BBX 20 33 1 0
BITMAP
0F0F00
079E00
07BC00
03FC00
01F800
01F000
000000
FFFFF0
FFFFF0
FFFFF0
FFFFF0
FFFFF0
01F800
01F800
01F800
01F800
01F800
01F800
01F800
01F800
01F800
01F800
01F800
01F800
01F800
01F800
01F800
01F800
01F800
01F800
01F800
01F800
01F800
ENDCHAR
STARTCHAR 0165
ENCODING 357
SWIDTH 470 0
DWIDTH 17 0
BBX 16 26 1 0
BITMAP
000F
060F
0E0F
3E0F
3E0F
3E03
3E03
FFC6
FFCE
FFC8
FFC0
3E00
3E00
3E00
3E00
3E00
3E00
3E00
3E00
3E00
3E00
3E00
3FC0
3FC0
3FC0
1FE0
ENDCHAR
STARTCHAR 0166
ENCODING 358
SWIDTH 609 0
DWIDTH 22 0
BBX 20 26 1 0
BITMAP
FFFFF0
FFFFF0
FFFFF0
FFFFF0
FFFFF0
01F800
01F800
01F800
01F800
01F800
01F800
01F800
01F800
3FFFC0
3FFFC0
3FFFC0
01F800
01F800
01F800
01F800
01F800
01F800
01F800
01F800
01F800
01F800
ENDCHAR
STARTCHAR 0167
ENCODING 359
SWIDTH 332 0
DWIDTH 12 0
BBX 11 25 0 0
BITMAP
0300
0F00
1F00
1F00
1F00
1F00
FFE0
FFE0
FFE0
FFE0
1F00
1F00
1F00
1F00
FFE0
FFE0
FFE0
1F00
1F00
1F00
1F00
1FE0
1FE0
1FE0
0FE0
ENDCHAR
STARTCHAR 0168
ENCODING 360
SWIDTH 720 0
DWIDTH 26 0
BBX 20 33 3 0
BITMAP
030300
07E700
0FFF00
0EFE00
0C1C00
000000
000000
F801F0
F801F0
F801F0
F801F0
F801F0
F801F0
F801F0
F801F0
F801F0
F801F0
F801F0
F801F0
F801F0
F801F0
F801F0
F801F0
F801F0
F801F0
F801F0
F801F0
FC03F0
FF07E0
7FFFE0
3FFFC0
1FFF80
0FFF00
ENDCHAR
STARTCHAR 0169
ENCODING 361
SWIDTH 609 0
DWIDTH 22 0
BBX 18 26 2 0
BITMAP
060600
0FCE00
1FFE00
1CFC00
183800
000000
000000
F807C0
F807C0
F807C0
F807C0
F807C0
F807C0
F807C0
F807C0
F807C0
F807C0
F807C0
FC0FC0
7C0FC0
7C0FC0
7C1FC0
7F3FC0
7FFFC0
3FF7C0
1FC7C0
ENDCHAR
STARTCHAR 016A
ENCODING 362
SWIDTH 720 0
DWIDTH 26 0
BBX 20 31 3 0
BITMAP
0FFF00
0FFF00
0FFF00
000000
000000
F801F0
F801F0
F801F0
F801F0
F801F0
F801F0
F801F0
F801F0
F801F0
F801F0
F801F0
F801F0
F801F0
F801F0
F801F0
F801F0
F801F0
F801F0
F801F0
F801F0
FC03F0
FF07E0
7FFFE0
3FFFC0
1FFF80
0FFF00
ENDCHAR
STARTCHAR 016B
ENCODING 363
SWIDTH 609 0
DWIDTH 22 0
BBX 18 25 2 0
BITMAP
1FFE00
1FFE00
1FFE00
000000
000000
000000
F807C0
F807C0
F807C0
F807C0
F807C0
F807C0
F807C0
F807C0
F807C0
F807C0
F807C0
FC0FC0
7C0FC0
7C0FC0
7C1FC0
7F3FC0
7FFFC0
3FF7C0
1FC7C0
ENDCHAR
STARTCHAR 016C
ENCODING 364
SWIDTH 720 0
DWIDTH 26 0
BBX 20 33 3 0
BITMAP
060600
070E00
07FE00
03FC00
00F000
000000
000000
F801F0
F801F0
F801F0
F801F0
F801F0
F801F0
F801F0
F801F0
F801F0
F801F0
F801F0
F801F0
F801F0
F801F0
F801F0
F801F0
F801F0
F801F0
F801F0
F801F0
FC03F0
FF07E0
7FFFE0
3FFFC0
1FFF80
0FFF00
ENDCHAR
STARTCHAR 016D
ENCODING 365
SWIDTH 609 0
DWIDTH 22 0
BBX 18 26 2 0
BITMAP
0C0C00
0E1C00
0FFC00
07F800
01E000
000000
000000
F807C0
F807C0
F807C0
F807C0
F807C0
F807C0
F807C0
F807C0
F807C0
F807C0
F807C0
FC0FC0
7C0FC0
7C0FC0
7C1FC0
7F3FC0
7FFFC0
3FF7C0
1FC7C0
ENDCHAR
STARTCHAR 016E
ENCODING 366
SWIDTH 720 0
DWIDTH 26 0
BBX 20 33 3 0
BITMAP
00F000
01F800
019800
031800
019800
01F800
006000
F801F0
F801F0
F801F0
F801F0
F801F0
F801F0
F801F0
F801F0
F801F0
F801F0
F801F0
F801F0
F801F0
F801F0
F801F0
F801F0
F801F0
F801F0
F801F0
F801F0
FC03F0
FF07E0
7FFFE0
3FFFC0
1FFF80
0FFF00
ENDCHAR
STARTCHAR 016F
ENCODING 367
SWIDTH 609 0
DWIDTH 22 0
BBX 18 27 2 0
BITMAP
01E000
03F000
033000
021000
033000
03F000
00C000
000000
F807C0
F807C0
F807C0
F807C0
F807C0
F807C0
F807C0
F807C0
F807C0
F807C0
F807C0
FC0FC0
7C0FC0
7C0FC0
7C1FC0
7F3FC0
7FFFC0
3FF7C0
1FC7C0
ENDCHAR
STARTCHAR 0170
ENCODING 368
SWIDTH 720 0
DWIDTH 26 0
BBX 20 33 3 0
BITMAP
01F3E0
03E7C0
03C780
078F00
078E00
071C00
000000
F801F0
F801F0
F801F0
F801F0
F801F0
F801F0
F801F0
F801F0
F801F0
F801F0
F801F0
F801F0
F801F0
F801F0
F801F0
F801F0
F801F0
F801F0
F801F0
F801F0
FC03F0
FF07E0
7FFFE0
3FFFC0
1FFF80
0FFF00
ENDCHAR
STARTCHAR 0171
ENCODING 369
SWIDTH 609 0
DWIDTH 22 0
BBX 18 26 2 0
BITMAP
03EF80
07CF00
079E00
0F1E00
0E3C00
000000
000000
F807C0
F807C0
F807C0
F807C0
F807C0
F807C0
F807C0
F807C0
F807C0
F807C0
F807C0
FC0FC0
7C0FC0
7C0FC0
7C1FC0
7F3FC0
7FFFC0
3FF7C0
1FC7C0
ENDCHAR
STARTCHAR 0172
ENCODING 370
SWIDTH 720 0
DWIDTH 26 0
BBX 20 34 3 -8
BITMAP
F801F0
F801F0
F801F0
F801F0
F801F0
F801F0
F801F0
F801F0
F801F0
F801F0
F801F0
F801F0
F801F0
F801F0
F801F0
F801F0
F801F0
F801F0
F801F0
F801F0
FC03F0
FF07E0
7FFFE0
3FFFC0
1FFF80
0FFE00
00E000
00E000
00E000
00E000
00F000
00FE00
007E00
001800
ENDCHAR
STARTCHAR 0173
ENCODING 371
SWIDTH 609 0
DWIDTH 22 0
BBX 20 27 2 -8
BITMAP
F807C0
F807C0
F807C0
F807C0
F807C0
F807C0
F807C0
F807C0
F807C0
F807C0
F807C0
F807C0
7C0FC0
7C0FC0
7C1FC0
7F7FC0
7FFFC0
3FF7C0
1FC7C0
000600
000600
000E00
000F00
000700
0007F0
0003F0
0000C0
ENDCHAR
STARTCHAR 0174
ENCODING 372
SWIDTH 941 0
DWIDTH 34 0
BBX 34 33 0 0
BITMAP
0003F00000
0007F80000
0007F80000
000F3C0000
001E1E0000
0000000000
0000000000
FC03F007C0
FC03F80FC0
7C07F80F80
7C07F80F80
7C07F80F80
7E07FC0F80
3E0FFC1F80
3E0FFC1F00
3E0FBC1F00
3F0F3E1F00
1F1F3E1F00
1F1F3E3E00
1F1F1E3E00
1F1E1F3E00
0FBE1F3E00
0FBE1F7C00
0FBC0F7C00
0FFC0FFC00
0FFC0FFC00
07FC0FF800
07F807F800
07F807F800
07F807F800
03F803F000
03F003F000
03F003F000
ENDCHAR
STARTCHAR 0175
ENCODING 373
SWIDTH 775 0
DWIDTH 28 0
BBX 28 26 0 0
BITMAP
001F8000
001FC000
003FC000
0079E000
00F0F000
00000000
00000000
F80F81F0
781F81F0
7C1F81E0
7C1F83E0
7C1FC3E0
3C3FC3C0
3E3FC7C0
3E3FC7C0
1E3FE780
1F79EF80
1F79EF80
0F79EF00
0FF8FF00
0FF0FF00
07F0FF00
07F0FE00
07F07E00
03E07E00
03E07C00
ENDCHAR
STARTCHAR 0176
ENCODING 374
SWIDTH 664 0
DWIDTH 24 0
BBX 24 33 0 0
BITMAP
007E00
007F00
00FF80
01E780
03C3C0
000000
000000
FC003F
7E007E
7E007E
3F00FC
1F80F8
1F81F8
0FC3F0
07C3E0
07E7E0
03F7C0
03FFC0
01FF80
00FF00
00FF00
007E00
007E00
007E00
007E00
007E00
007E00
007E00
007E00
007E00
007E00
007E00
007E00
ENDCHAR
STARTCHAR 0177
ENCODING 375
SWIDTH 553 0
DWIDTH 20 0
BBX 19 34 0 -8
BITMAP
01F800
03FC00
03FC00
079E00
0F0F00
000000
000000
FC03E0
7C03E0
7C03E0
7E07C0
3E07C0
3E07C0
1F0F80
1F0F80
1F0F00
0F9F00
0F9F00
0F9E00
07FE00
07FE00
03FC00
03FC00
03FC00
01F800
01F800
01F000
01F000
03F000
47E000
3FE000
3FC000
3F8000
0C0000
ENDCHAR
STARTCHAR 0178
ENCODING 376
SWIDTH 664 0
DWIDTH 24 0
BBX 24 32 0 0
BITMAP
03C3C0
03C3C0
03C3C0
03C3C0
03C3C0
000000
FC003F
7E007E
7E007E
3F00FC
1F80F8
1F81F8
0FC3F0
07C3E0
07E7E0
03F7C0
03FFC0
01FF80
00FF00
00FF00
007E00
007E00
007E00
007E00
007E00
007E00
007E00
007E00
007E00
007E00
007E00
007E00
ENDCHAR
STARTCHAR 0179
ENCODING 377
SWIDTH 609 0
DWIDTH 22 0
BBX 21 33 0 0
BITMAP
003F00
003E00
007C00
007800
00F000
00E000
000000
3FFFF8
3FFFF8
3FFFF8
3FFFF8
3FFFF8
0007F0
000FE0
000FC0
001F80
003F80
007F00
00FE00
00FC00
01F800
03F000
07F000
0FE000
1FC000
1F8000
3F0000
7F0000
FE0000
FFFFF8
FFFFF8
FFFFF8
FFFFF8
ENDCHAR
STARTCHAR 017A
ENCODING 378
SWIDTH 498 0
DWIDTH 18 0
BBX 16 26 1 0
BITMAP
01F0
03E0
03C0
0780
0700
0000
0000
FFFF
FFFF
FFFF
FFFF
007E
00FC
01F8
03F8
07F0
07E0
0FC0
1F80
3F00
7E00
FC00
FFFF
FFFF
FFFF
FFFF
ENDCHAR
STARTCHAR 017B
ENCODING 379
SWIDTH 609 0
DWIDTH 22 0
BBX 21 32 0 0
BITMAP
007C00
007C00
007C00
007C00
007C00
000000
3FFFF8
3FFFF8
3FFFF8
3FFFF8
3FFFF8
0007F0
000FE0
000FC0
001F80
003F80
007F00
00FE00
00FC00
01F800
03F000
07F000
0FE000
1FC000
1F8000
3F0000
7F0000
FE0000
FFFFF8
FFFFF8
FFFFF8
FFFFF8
ENDCHAR
STARTCHAR 017C
ENCODING 380
SWIDTH 498 0
DWIDTH 18 0
BBX 16 26 1 0
BITMAP
07C0
07C0
07C0
07C0
0000
0000
0000
FFFF
FFFF
FFFF
FFFF
007E
00FC
01F8
03F8
07F0
07E0
0FC0
1F80
3F00
7E00
FC00
FFFF
FFFF
FFFF
FFFF
ENDCHAR
STARTCHAR 017D
ENCODING 381
SWIDTH 609 0
DWIDTH 22 0
BBX 21 33 0 0
BITMAP
078780
03CF00
03DE00
01FE00
00FC00
00F800
000000
3FFFF8
3FFFF8
3FFFF8
3FFFF8
3FFFF8
0007F0
000FE0
000FC0
001F80
003F80
007F00
00FE00
00FC00
01F800
03F000
07F000
0FE000
1FC000
1F8000
3F0000
7F0000
FE0000
FFFFF8
FFFFF8
FFFFF8
FFFFF8
ENDCHAR
STARTCHAR 017E
ENCODING 382
SWIDTH 498 0
DWIDTH 18 0
BBX 16 26 1 0
BITMAP
3E78
1E78
0FF0
07E0
07E0
0000
0000
FFFF
FFFF
FFFF
FFFF
007E
00FC
01F8
03F8
07F0
07E0
0FC0
1F80
3F00
7E00
FC00
FFFF
FFFF
FFFF
FFFF
ENDCHAR
STARTCHAR 017F
ENCODING 383
SWIDTH 276 0
DWIDTH 10 0
BBX 10 26 2 0
BITMAP
1FC0
3FC0
7FC0
7FC0
7C00
7800
F800
F800
F800
F800
F800
F800
F800
F800
F800
F800
F800
F800
F800
F800
F800
F800
F800
F800
F800
F800
ENDCHAR
STARTCHAR 018F
ENCODING 399
SWIDTH 720 0
DWIDTH 26 0
BBX 23 26 2 0
BITMAP
03FE00
0FFFC0
1FFFE0
3FFFF0
7F87F0
7E01F8
FC00FC
7C00FC
00007C
00007C
00007E
FFFFFE
FFFFFE
FFFFFE
FFFFFE
F8007E
F8007E
FC007C
FC00FC
7E00FC
7E01F8
3F83F8
1FFFF0
1FFFE0
07FFC0
03FF00
ENDCHAR
STARTCHAR 0192
ENCODING 402
SWIDTH 553 0
DWIDTH 20 0
BBX 20 34 0 -8
BITMAP
000FF0
001FF0
003FF0
003FE0
003E00
007C00
007C00
07FFC0
07FF80
07FF80
07FF80
00F800
00F800
00F800
00F800
00F800
01F000
01F000
01F000
01F000
01F000
01F000
03E000
03E000
03E000
03E000
03E000
03E000
07C000
7FC000
FFC000
FF8000
FF0000
1C0000
ENDCHAR
STARTCHAR 01A0
ENCODING 416
SWIDTH 858 0
DWIDTH 31 0
BBX 29 26 2 0
BITMAP
01FF80F8
07FFE0F8
0FFFF0F8
1FFFF8F8
3FC3FCF8
7F00FE38
7E007E38
FC003F30
FC001FF0
F8001FE0
F8001F80
F8001F80
F8001F80
F8001F80
F8001F80
F8001F80
F8001F00
FC001F00
FC003F00
7E007E00
7F00FE00
3F81FC00
1FFFFC00
0FFFF800
07FFE000
01FF8000
ENDCHAR
STARTCHAR 01A1
ENCODING 417
SWIDTH 720 0
DWIDTH 26 0
BBX 25 19 1 0
BITMAP
03FC0F80
0FFF0F80
1FFF8F80
3FFFCF80
3F0FEF80
7E07E380
7C03E300
7C03F700
7C01FF00
FC01FE00
FC01F800
7C03F000
7C03E000
7E03E000
7F07E000
3FFFC000
1FFF8000
0FFF0000
03FC0000
ENDCHAR
STARTCHAR 01AF
ENCODING 431
SWIDTH 830 0
DWIDTH 30 0
BBX 27 26 3 0
BITMAP
F801F3E0
F801F3E0
F801F3E0
F801F3E0
F801F3E0
F801F0E0
F801F0E0
F801F0C0
F801F1C0
F801FF80
F801FE00
F801F000
F801F000
F801F000
F801F000
F801F000
F801F000
F801F000
F801F000
F801F000
FC03F000
FE07E000
7FFFE000
3FFFC000
1FFF8000
07FE0000
ENDCHAR
STARTCHAR 01B0
ENCODING 432
SWIDTH 720 0
DWIDTH 26 0
BBX 24 19 2 0
BITMAP
F807DF
F807DF
F807DF
F807DF
F807DF
F807C3
F807C7
F807C7
F807CE
F807FC
F807F8
FC0FC0
7C0FC0
7C0FC0
7C1FC0
7F3FC0
7FFFC0
3FF7C0
1FC7C0
ENDCHAR
STARTCHAR 01CD
ENCODING 461
SWIDTH 720 0
DWIDTH 26 0
BBX 26 33 0 0
BITMAP
01E1E000
00F3C000
00F78000
007F8000
003F0000
001E0000
00000000
003F0000
003F0000
007F8000
007F8000
00FF8000
00FFC000
00FFC000
01F7E000
01F3E000
03F3E000
03E3F000
03E1F000
07C1F800
07C1F800
0FC0F800
0F80FC00
0FFFFC00
1FFFFE00
1FFFFE00
1FFFFE00
3F003F00
3E001F00
7E001F80
7C001F80
7C000F80
FC000FC0
ENDCHAR
STARTCHAR 01CE
ENCODING 462
SWIDTH 553 0
DWIDTH 20 0
BBX 18 26 1 0
BITMAP
0F3E00
0F3C00
07F800
03F000
03F000
000000
000000
07FC00
1FFE00
3FFF00
7FFF00
7C1F80
1C0F80
000F80
003F80
07FF80
1FFF80
7FCF80
7E0F80
F80F80
F80F80
FC1F80
FC3F80
7FFF80
3FFF80
1FC7C0
ENDCHAR
STARTCHAR 01CF
ENCODING 463
SWIDTH 276 0
DWIDTH 10 0
BBX 12 33 -1 0
BITMAP
F0F0
79E0
3FC0
3FC0
1F80
0F00
0000
1F80
1F80
1F80
1F80
1F80
1F80
1F80
1F80
1F80
1F80
1F80
1F80
1F80
1F80
1F80
1F80
1F80
1F80
1F80
1F80
1F80
1F80
1F80
1F80
1F80
1F80
ENDCHAR
STARTCHAR 01D0
ENCODING 464
SWIDTH 276 0
DWIDTH 10 0
BBX 10 26 0 0
BITMAP
F3C0
F3C0
7F80
3F00
3F00
0000
0000
1F00
1F00
1F00
1F00
1F00
1F00
1F00
1F00
1F00
1F00
1F00
1F00
1F00
1F00
1F00
1F00
1F00
1F00
1F00
ENDCHAR
STARTCHAR 01D1
ENCODING 465
SWIDTH 775 0
DWIDTH 28 0
BBX 25 33 2 0
BITMAP
03C3C000
01E78000
00FF0000
00FF0000
007E0000
003C0000
00000000
01FF8000
07FFE000
0FFFF000
1FFFF800
3FC3FC00
7F00FE00
7E007E00
FC003F00
FC001F00
F8001F00
F8001F80
F8001F80
F8001F80
F8001F80
F8001F80
F8001F80
F8001F00
FC001F00
FC003F00
7E007E00
7F00FE00
3FC1FC00
1FFFFC00
0FFFF800
07FFE000
01FF8000
ENDCHAR
STARTCHAR 01D2
ENCODING 466
SWIDTH 609 0
DWIDTH 22 0
BBX 20 26 1 0
BITMAP
079F00
079E00
03FC00
01F800
01F800
000000
000000
03FC00
0FFF00
1FFF80
3FFFC0
3F0FE0
7E07E0
7C03E0
7C03F0
7C01F0
FC01F0
FC01F0
7C01F0
7C03E0
7E03E0
7F07E0
3FFFC0
1FFF80
0FFF00
03FC00
ENDCHAR
STARTCHAR 01D3
ENCODING 467
SWIDTH 720 0
DWIDTH 26 0
BBX 20 33 3 0
BITMAP
0F0F00
079E00
03FC00
03FC00
01F800
00F000
000000
F801F0
F801F0
F801F0
F801F0
F801F0
F801F0
F801F0
F801F0
F801F0
F801F0
F801F0
F801F0
F801F0
F801F0
F801F0
F801F0
F801F0
F801F0
F801F0
F801F0
FC03F0
FF07E0
7FFFE0
3FFFC0
1FFF80
0FFF00
ENDCHAR
STARTCHAR 01D4
ENCODING 468
SWIDTH 609 0
DWIDTH 22 0
BBX 18 26 2 0
BITMAP
0F3E00
0F3C00
07F800
03F000
03F000
000000
000000
F807C0
F807C0
F807C0
F807C0
F807C0
F807C0
F807C0
F807C0
F807C0
F807C0
F807C0
FC0FC0
7C0FC0
7C0FC0
7C1FC0
7F3FC0
7FFFC0
3FF7C0
1FC7C0
ENDCHAR
STARTCHAR 01D5
ENCODING 469
SWIDTH 720 0
DWIDTH 26 0
BBX 20 33 3 0
BITMAP
07FC00
07FC00
07FC00
000000
070E00
070E00
070E00
F801F0
F801F0
F801F0
F801F0
F801F0
F801F0
F801F0
F801F0
F801F0
F801F0
F801F0
F801F0
F801F0
F801F0
F801F0
F801F0
F801F0
F801F0
F801F0
F801F0
FC03F0
FF07E0
7FFFE0
3FFFC0
1FFF80
0FFF00
ENDCHAR
STARTCHAR 01D6
ENCODING 470
SWIDTH 609 0
DWIDTH 22 0
BBX 18 33 2 0
BITMAP
1FFE00
1FFE00
1FFE00
1FFE00
000000
000000
000000
1E1E00
1E1E00
1E1E00
1E1E00
000000
000000
000000
F807C0
F807C0
F807C0
F807C0
F807C0
F807C0
F807C0
F807C0
F807C0
F807C0
F807C0
FC0FC0
7C0FC0
7C0FC0
7C1FC0
7F3FC0
7FFFC0
3FF7C0
1FC7C0
ENDCHAR
STARTCHAR 01D7
ENCODING 471
SWIDTH 720 0
DWIDTH 26 0
BBX 20 33 3 0
BITMAP
003E00
003800
007000
00E000
070E00
070E00
070E00
F801F0
F801F0
F801F0
F801F0
F801F0
F801F0
F801F0
F801F0
F801F0
F801F0
F801F0
F801F0
F801F0
F801F0
F801F0
F801F0
F801F0
F801F0
F801F0
F801F0
FC03F0
FF07E0
7FFFE0
3FFFC0
1FFF80
0FFF00
ENDCHAR
STARTCHAR 01D8
ENCODING 472
SWIDTH 609 0
DWIDTH 22 0
BBX 18 33 2 0
BITMAP
007C00
00FC00
00F800
00F000
01E000
01C000
000000
1E1E00
1E1E00
1E1E00
1E1E00
000000
000000
000000
F807C0
F807C0
F807C0
F807C0
F807C0
F807C0
F807C0
F807C0
F807C0
F807C0
F807C0
FC0FC0
7C0FC0
7C0FC0
7C1FC0
7F3FC0
7FFFC0
3FF7C0
1FC7C0
ENDCHAR
STARTCHAR 01D9
ENCODING 473
SWIDTH 720 0
DWIDTH 26 0
BBX 20 33 3 0
BITMAP
071E00
03BC00
01F800
00F000
070E00
070E00
070E00
F801F0
F801F0
F801F0
F801F0
F801F0
F801F0
F801F0
F801F0
F801F0
F801F0
F801F0
F801F0
F801F0
F801F0
F801F0
F801F0
F801F0
F801F0
F801F0
F801F0
FC03F0
FF07E0
7FFFE0
3FFFC0
1FFF80
0FFF00
ENDCHAR
STARTCHAR 01DA
ENCODING 474
SWIDTH 609 0
DWIDTH 22 0
BBX 18 33 2 0
BITMAP
1E1E00
0F3C00
0FFC00
07F800
03F000
01E000
000000
1E1E00
1E1E00
1E1E00
1E1E00
000000
000000
000000
F807C0
F807C0
F807C0
F807C0
F807C0
F807C0
F807C0
F807C0
F807C0
F807C0
F807C0
FC0FC0
7C0FC0
7C0FC0
7C1FC0
7F3FC0
7FFFC0
3FF7C0
1FC7C0
ENDCHAR
STARTCHAR 01DB
ENCODING 475
SWIDTH 720 0
DWIDTH 26 0
BBX 20 33 3 0
BITMAP
078000
03C000
00E000
007000
070E00
070E00
070E00
F801F0
F801F0
F801F0
F801F0
F801F0
F801F0
F801F0
F801F0
F801F0
F801F0
F801F0
F801F0
F801F0
F801F0
F801F0
F801F0
F801F0
F801F0
F801F0
F801F0
FC03F0
FF07E0
7FFFE0
3FFFC0
1FFF80
0FFF00
ENDCHAR
STARTCHAR 01DC
ENCODING 476
SWIDTH 609 0
DWIDTH 22 0
BBX 18 33 2 0
BITMAP
0F8000
0FC000
07C000
03C000
01E000
00E000
000000
1E1E00
1E1E00
1E1E00
1E1E00
000000
000000
000000
F807C0
F807C0
F807C0
F807C0
F807C0
F807C0
F807C0
F807C0
F807C0
F807C0
F807C0
FC0FC0
7C0FC0
7C0FC0
7C1FC0
7F3FC0
7FFFC0
3FF7C0
1FC7C0
ENDCHAR
STARTCHAR 01FA
ENCODING 506
SWIDTH 720 0
DWIDTH 26 0
BBX 26 36 0 0
BITMAP
000FC000
000F8000
001F0000
001E0000
001C0000
001E0000
003F0000
00730000
00630000
00730000
003F0000
003F0000
007F8000
007F8000
00FF8000
00FFC000
00FFC000
01F7E000
01F3E000
03F3E000
03E3F000
03E1F000
07C1F800
07C1F800
0FC0F800
0F80FC00
0FFFFC00
1FFFFE00
1FFFFE00
1FFFFE00
3F003F00
3E001F00
7E001F80
7C001F80
7C000F80
FC000FC0
ENDCHAR
STARTCHAR 01FB
ENCODING 507
SWIDTH 553 0
DWIDTH 20 0
BBX 18 33 1 0
BITMAP
00FC00
00F800
01F000
01E000
03C000
000000
01E000
03F000
033000
031800
033000
03F000
00C000
000000
07FC00
1FFE00
3FFF00
7FFF00
7C1F80
1C0F80
000F80
003F80
07FF80
1FFF80
7FCF80
7E0F80
F80F80
F80F80
FC1F80
FC3F80
7FFF80
3FFF80
1FC7C0
ENDCHAR
STARTCHAR 01FC
ENCODING 508
SWIDTH 996 0
DWIDTH 36 0
BBX 35 33 -1 0
BITMAP
00003F0000
00003E0000
00007C0000
0000780000
0000F00000
0000000000
0000000000
001FFFFFE0
001FFFFFE0
003FFFFFE0
003FFFFFE0
003E7FFFE0
007C7C0000
007C7C0000
00F87C0000
00F87C0000
01F07C0000
01F07FFFC0
03F07FFFC0
03E07FFFC0
07E07FFFC0
07C07FFFC0
0FFFFC0000
0FFFFC0000
1FFFFC0000
1FFFFC0000
1FFFFC0000
3F007C0000
3E007C0000
7E007FFFE0
7C007FFFE0
FC007FFFE0
F8007FFFE0
ENDCHAR
STARTCHAR 01FD
ENCODING 509
SWIDTH 886 0
DWIDTH 32 0
BBX 28 26 2 0
BITMAP
0007E000
0007C000
000F8000
000F0000
000E0000
00000000
00000000
0FF8FE00
3FFFFF80
7FFFFFC0
7FFFFFE0
F83F83E0
381F81F0
001F01F0
007F01F0
0FFFFFF0
3FFFFFF0
7F9FFFF0
FC1F0000
F81F0000
F81F81C0
F83F81F0
FC7FE7E0
FFFFFFE0
7FF3FFC0
3FC0FF00
ENDCHAR
STARTCHAR 01FE
ENCODING 510
SWIDTH 775 0
DWIDTH 28 0
BBX 26 34 1 -1
BITMAP
000FC000
000F8000
001F0000
001E0000
003C0000
00000000
00000100
00FFC380
03FFF7C0
07FFFF80
0FFFFF00
1FE1FE00
3F807F00
3F007F00
7E00FF80
7E01EF80
7C03EF80
7C07CF80
7C0F8FC0
7C0F0FC0
7C1E0FC0
7C3C0FC0
7C780FC0
7CF00F80
7FE00F80
7FE01F80
3FC01F00
3F803F00
1FC0FE00
1FFFFE00
3FFFFC00
7BFFF000
F0FFC000
20000000
ENDCHAR
STARTCHAR 01FF
ENCODING 511
SWIDTH 609 0
DWIDTH 22 0
BBX 19 27 2 -1
BITMAP
00FC00
00F800
01F000
01E000
01C000
000000
000080
07F9C0
0FFFC0
3FFF80
7FFF80
7E0FC0
FC1FC0
F83FC0
F87BE0
F873E0
F0E3E0
F9C3E0
FB83E0
FF03E0
FF07C0
7E0FC0
7FBF80
3FFF00
7FFE00
E7F800
400000
ENDCHAR
STARTCHAR 0218
ENCODING 536
SWIDTH 664 0
DWIDTH 24 0
BBX 21 36 1 -10
BITMAP
03FF00
0FFFC0
1FFFE0
3FFFE0
3F07F0
7E03F0
7C01F8
7E01F8
7F0000
3FC000
3FFC00
1FFF80
0FFFE0
03FFF0
007FF0
0007F8
0001F8
7C00F8
FC00F8
7C00F8
7E01F8
7F03F8
3FFFF0
1FFFE0
0FFFC0
03FF80
000000
000000
00FC00
00FC00
00FC00
001C00
003800
007800
007000
004000
ENDCHAR
STARTCHAR 0219
ENCODING 537
SWIDTH 553 0
DWIDTH 20 0
BBX 17 29 1 -10
BITMAP
0FF800
3FFE00
3FFF00
7E7F00
781F80
780800
7E0000
7FE000
7FFC00
3FFF00
0FFF80
01FF80
001F80
780F80
FC0F80
7E1F80
7FFF00
3FFE00
0FFC00
000000
000000
03E000
03E000
03E000
00E000
00E000
03E000
03C000
010000
ENDCHAR
STARTCHAR 021A
ENCODING 538
SWIDTH 609 0
DWIDTH 22 0
BBX 20 36 1 -10
BITMAP
FFFFF0
FFFFF0
FFFFF0
FFFFF0
FFFFF0
01F800
01F800
01F800
01F800
01F800
01F800
01F800
01F800
01F800
01F800
01F800
01F800
01F800
01F800
01F800
01F800
01F800
01F800
01F800
01F800
01F800
000000
000000
01F800
01F800
01F800
003800
007000
00F000
00E000
008000
ENDCHAR
STARTCHAR 021B
ENCODING 539
SWIDTH 332 0
DWIDTH 12 0
BBX 11 35 1 -10
BITMAP
0600
0E00
3E00
3E00
3E00
3E00
FFC0
FFC0
FFC0
FFC0
3E00
3E00
3E00
3E00
3E00
3E00
3E00
3E00
3E00
3E00
3E00
3FC0
3FC0
3FC0
1FE0
0000
0000
0F80
0F80
0F80
0380
0380
0F00
0E00
0C00
ENDCHAR
STARTCHAR 0259
ENCODING 601
SWIDTH 553 0
DWIDTH 20 0
BBX 18 19 1 0
BITMAP
07F800
1FFE00
3FFF00
3FFF00
7E1F80
7C0F80
0007C0
0007C0
FFFFC0
FFFFC0
7FFFC0
7807C0
7C07C0
7C0F80
7C0F80
3F3F00
1FFF00
0FFE00
07F800
ENDCHAR
STARTCHAR 02C6
ENCODING 710
SWIDTH 332 0
DWIDTH 12 0
BBX 12 5 0 21
BITMAP
1F80
3FC0
3FC0
79E0
F0F0
ENDCHAR
STARTCHAR 02C7
ENCODING 711
SWIDTH 332 0
DWIDTH 12 0
BBX 10 5 1 21
BITMAP
F3C0
F3C0
7F80
3F00
3F00
ENDCHAR
STARTCHAR 02C9
ENCODING 713
SWIDTH 332 0
DWIDTH 12 0
BBX 12 3 0 22
BITMAP
FFF0
FFF0
FFF0
ENDCHAR
STARTCHAR 02D8
ENCODING 728
SWIDTH 332 0
DWIDTH 12 0
BBX 10 5 1 21
BITMAP
C0C0
E1C0
FFC0
7F80
1E00
ENDCHAR
STARTCHAR 02D9
ENCODING 729
SWIDTH 332 0
DWIDTH 12 0
BBX 4 4 4 22
BITMAP
F0
F0
F0
F0
ENDCHAR
STARTCHAR 02DA
ENCODING 730
SWIDTH 332 0
DWIDTH 12 0
BBX 6 7 3 20
BITMAP
78
FC
CC
84
CC
FC
30
ENDCHAR
STARTCHAR 02DB
ENCODING 731
SWIDTH 332 0
DWIDTH 12 0
BBX 8 8 3 -8
BITMAP
E0
E0
E0
E0
F1
FF
7F
18
ENDCHAR
STARTCHAR 02DC
ENCODING 732
SWIDTH 332 0
DWIDTH 12 0
BBX 12 5 0 21
BITMAP
3030
FE70
FFF0
E7E0
C1C0
ENDCHAR
STARTCHAR 02DD
ENCODING 733
SWIDTH 332 0
DWIDTH 12 0
BBX 13 5 2 21
BITMAP
3EF8
7CF0
79E0
F1E0
E3C0
ENDCHAR
STARTCHAR 0300
ENCODING 768
SWIDTH 0 0
DWIDTH 0 0
BBX 7 5 -10 27
BITMAP
F8
7C
3C
1E
0E
ENDCHAR
STARTCHAR 0301
ENCODING 769
SWIDTH 0 0
DWIDTH 0 0
BBX 7 5 -7 27
BITMAP
7E
7C
78
F0
E0
ENDCHAR
STARTCHAR 0303
ENCODING 771
SWIDTH 0 0
DWIDTH 0 0
BBX 12 4 -16 27
BITMAP
7C70
FFE0
E7E0
C180
ENDCHAR
STARTCHAR 0309
ENCODING 777
SWIDTH 0 0
DWIDTH 0 0
BBX 7 6 -8 27
BITMAP
F0
FE
1E
0E
3E
30
ENDCHAR
STARTCHAR 0323
ENCODING 803
SWIDTH 0 0
DWIDTH 0 0
BBX 5 5 -16 -7
BITMAP
F8
F8
F8
F8
F8
ENDCHAR
STARTCHAR 037E
ENCODING 894
SWIDTH 332 0
DWIDTH 12 0
BBX 5 25 3 -6
BITMAP
F8
F8
F8
F8
F8
00
00
00
00
00
00
00
00
00
F8
F8
F8
F8
F8
18
18
38
70
E0
40
ENDCHAR
STARTCHAR 0384
ENCODING 900
SWIDTH 332 0
DWIDTH 12 0
BBX 7 5 4 21
BITMAP
7E
7C
F8
F0
E0
ENDCHAR
STARTCHAR 0385
ENCODING 901
SWIDTH 470 0
DWIDTH 17 0
BBX 17 5 0 21
BITMAP
01F000
F3E780
F3C780
F38780
F78780
ENDCHAR
STARTCHAR 0386
ENCODING 902
SWIDTH 720 0
DWIDTH 26 0
BBX 26 26 0 0
BITMAP
3FBF0000
3E3F0000
7C7F8000
F87F8000
E0FF8000
00FFC000
00FFC000
01F7E000
01F3E000
03F3E000
03E3F000
03E1F000
07E1F800
07C0F800
07C0F800
0F80FC00
0FFFFC00
1FFFFE00
1FFFFE00
1FFFFE00
3F003F00
3E001F00
7E001F80
7E001F80
7C000F80
FC000FC0
ENDCHAR
STARTCHAR 0387
ENCODING 903
SWIDTH 332 0
DWIDTH 12 0
BBX 5 5 4 14
BITMAP
F8
F8
F8
F8
F8
ENDCHAR
STARTCHAR 0388
ENCODING 904
SWIDTH 858 0
DWIDTH 31 0
BBX 30 26 -1 0
BITMAP
3FBFFFFC
3E3FFFFC
7C3FFFFC
783FFFFC
F03FFFFC
003F0000
003F0000
003F0000
003F0000
003F0000
003FFFF8
003FFFF8
003FFFF8
003FFFF8
003FFFF8
003F0000
003F0000
003F0000
003F0000
003F0000
003F0000
003F0000
003FFFFC
003FFFFC
003FFFFC
003FFFFC
ENDCHAR
STARTCHAR 0389
ENCODING 905
SWIDTH 913 0
DWIDTH 33 0
BBX 31 26 -1 0
BITMAP
3FBF003E
3E3F003E
7C3F003E
783F003E
F03F003E
003F003E
003F003E
003F003E
003F003E
003F003E
003FFFFE
003FFFFE
003FFFFE
003FFFFE
003FFFFE
003F003E
003F003E
003F003E
003F003E
003F003E
003F003E
003F003E
003F003E
003F003E
003F003E
003F003E
ENDCHAR
STARTCHAR 038A
ENCODING 906
SWIDTH 470 0
DWIDTH 17 0
BBX 16 26 -1 0
BITMAP
3FBF
3E3F
7C3F
783F
F03F
003F
003F
003F
003F
003F
003F
003F
003F
003F
003F
003F
003F
003F
003F
003F
003F
003F
003F
003F
003F
003F
ENDCHAR
STARTCHAR 038C
ENCODING 908
SWIDTH 830 0
DWIDTH 30 0
BBX 29 26 -1 0
BITMAP
3F0FFC00
7E3FFF00
7CFFFF80
F9FFFFC0
E1FE1FE0
03F007F0
03E003F0
07E001F0
07C001F8
07C001F8
0FC000F8
0FC000F8
0FC000F8
0FC000F8
0FC000F8
0FC000F8
0FC000F8
07C001F8
07E001F0
07E003F0
03F007F0
03FC1FE0
01FFFFC0
00FFFF80
007FFF00
001FFC00
ENDCHAR
STARTCHAR 038E
ENCODING 910
SWIDTH 913 0
DWIDTH 33 0
BBX 34 26 -1 0
BITMAP
1F9F800FC0
3F1F800FC0
7C0FC01F80
780FC01F00
F007E03F00
0003F07E00
0003F07E00
0001F8FC00
0000F8F800
0000FDF800
00007FF000
00007FE000
00003FE000
00001FC000
00001F8000
00000F8000
00000F8000
00000F8000
00000F8000
00000F8000
00000F8000
00000F8000
00000F8000
00000F8000
00000F8000
00000F8000
ENDCHAR
STARTCHAR 038F
ENCODING 911
SWIDTH 830 0
DWIDTH 30 0
BBX 31 26 -2 0
BITMAP
1F87FE00
3F1FFF80
3E7FFFC0
78FFFFE0
F0FF0FF0
01FC03F8
03F801F8
03F000FC
03F000FC
03E000FC
03E0007C
07E0007C
03E0007C
03E0007C
03E0007C
03E000F8
01F000F8
01F000F8
00F801F0
00F803E0
007E07E0
003F0FC0
07FF9FFE
07FF9FFE
07FF9FFE
07FF9FFE
ENDCHAR
STARTCHAR 0390
ENCODING 912
SWIDTH 276 0
DWIDTH 10 0
BBX 17 26 -4 0
BITMAP
01F000
F1E780
F3E780
F3C780
F38780
000000
000000
01F000
01F000
01F000
01F000
01F000
01F000
01F000
01F000
01F000
01F000
01F000
01F000
01F000
01F000
01F000
01F000
01F000
01F000
01F000
ENDCHAR
STARTCHAR 0391
ENCODING 913
SWIDTH 720 0
DWIDTH 26 0
BBX 26 26 0 0
BITMAP
003F0000
003F0000
007F8000
007F8000
00FF8000
00FFC000
00FFC000
01F7E000
01F3E000
03F3E000
03E3F000
03E1F000
07C1F800
07C1F800
0FC0F800
0F80FC00
0FFFFC00
1FFFFE00
1FFFFE00
1FFFFE00
3F003F00
3E001F00
7E001F80
7C001F80
7C000F80
FC000FC0
ENDCHAR
STARTCHAR 0392
ENCODING 914
SWIDTH 720 0
DWIDTH 26 0
BBX 21 26 3 0
BITMAP
FFFE00
FFFF80
FFFFC0
FFFFE0
F83FF0
F803F0
F801F0
F801F0
F801F0
F803E0
FFFFE0
FFFFC0
FFFF80
FFFFE0
FFFFF0
F803F8
F801F8
F800F8
F800F8
F800F8
F801F8
F807F8
FFFFF0
FFFFE0
FFFFC0
FFFF00
ENDCHAR
STARTCHAR 0393
ENCODING 915
SWIDTH 609 0
DWIDTH 22 0
BBX 18 26 3 0
BITMAP
FFFFC0
FFFFC0
FFFFC0
FFFFC0
FFFFC0
F80000
F80000
F80000
F80000
F80000
F80000
F80000
F80000
F80000
F80000
F80000
F80000
F80000
F80000
F80000
F80000
F80000
F80000
F80000
F80000
F80000
ENDCHAR
STARTCHAR 0394
ENCODING 916
SWIDTH 720 0
DWIDTH 26 0
BBX 26 26 0 0
BITMAP
003F0000
003F0000
007F8000
007F8000
00FF8000
00FFC000
00FFC000
01F7E000
01F3E000
03F3E000
03E3F000
03E1F000
07C1F800
07C0F800
0FC0F800
0F80FC00
0F807C00
1F807E00
1F007E00
1F003E00
3F003F00
3E001F00
7FFFFF80
7FFFFF80
7FFFFF80
FFFFFFC0
ENDCHAR
STARTCHAR 0395
ENCODING 917
SWIDTH 664 0
DWIDTH 24 0
BBX 19 26 3 0
BITMAP
FFFFE0
FFFFE0
FFFFE0
FFFFE0
FFFFE0
F80000
F80000
F80000
F80000
F80000
FFFFC0
FFFFC0
FFFFC0
FFFFC0
FFFFC0
F80000
F80000
F80000
F80000
F80000
F80000
F80000
FFFFE0
FFFFE0
FFFFE0
FFFFE0
ENDCHAR
STARTCHAR 0396
ENCODING 918
SWIDTH 609 0
DWIDTH 22 0
BBX 21 26 0 0
BITMAP
3FFFF8
3FFFF8
3FFFF8
3FFFF8
3FFFF8
0007F0
000FE0
000FC0
001F80
003F80
007F00
00FE00
00FC00
01F800
03F000
07F000
0FE000
1FC000
1F8000
3F0000
7F0000
FE0000
FFFFF8
FFFFF8
FFFFF8
FFFFF8
ENDCHAR
STARTCHAR 0397
ENCODING 919
SWIDTH 720 0
DWIDTH 26 0
BBX 20 26 3 0
BITMAP
F801F0
F801F0
F801F0
F801F0
F801F0
F801F0
F801F0
F801F0
F801F0
F801F0
FFFFF0
FFFFF0
FFFFF0
FFFFF0
FFFFF0
F801F0
F801F0
F801F0
F801F0
F801F0
F801F0
F801F0
F801F0
F801F0
F801F0
F801F0
ENDCHAR
STARTCHAR 0398
ENCODING 920
SWIDTH 775 0
DWIDTH 28 0
BBX 25 26 2 0
BITMAP
01FF8000
07FFE000
0FFFF000
1FFFF800
3FC3FC00
7F00FE00
7E007E00
FC003F00
FC003F00
F8001F00
F8001F00
F8FF1F80
F8FF1F80
F8FF1F80
F8FF1F80
F8001F00
F8001F00
FC001F00
FC003F00
7E007E00
7F00FE00
3FC1FC00
3FFFFC00
1FFFF800
07FFE000
01FF8000
ENDCHAR
STARTCHAR 0399
ENCODING 921
SWIDTH 276 0
DWIDTH 10 0
BBX 6 26 2 0
BITMAP
FC
FC
FC
FC
FC
FC
FC
FC
FC
FC
FC
FC
FC
FC
FC
FC
FC
FC
FC
FC
FC
FC
FC
FC
FC
FC
ENDCHAR
STARTCHAR 039A
ENCODING 922
SWIDTH 720 0
DWIDTH 26 0
BBX 23 26 3 0
BITMAP
F801FC
F803F8
F807F0
F80FE0
F81FC0
F81F80
F83F00
F87E00
F8FC00
F9F800
FBF800
FFFC00
FFFC00
FFFE00
FFFF00
FF3F00
FE1F80
FC1F80
F80FC0
F80FE0
F807E0
F803F0
F803F8
F801F8
F801FC
F800FE
ENDCHAR
STARTCHAR 039B
ENCODING 923
SWIDTH 664 0
DWIDTH 24 0
BBX 24 26 0 0
BITMAP
007E00
007E00
00FF00
00FF00
00FF00
01FF80
01FF80
01FF80
03EFC0
03E7C0
03E7E0
07C7E0
07C3E0
0FC3F0
0F83F0
0F81F0
1F81F8
1F01F8
1F00F8
3F00FC
3E007C
3E007C
7E007E
7C003E
7C003F
FC003F
ENDCHAR
STARTCHAR 039C
ENCODING 924
SWIDTH 830 0
DWIDTH 30 0
BBX 25 26 3 0
BITMAP
FE007F80
FF00FF80
FF00FF80
FF00FF80
FF80FF80
FF81FF80
F781EF80
F781EF80
F7C3EF80
F7C3EF80
F3C3CF80
F3C3CF80
F3E7CF80
F3E7CF80
F1E78F80
F1E78F80
F1FF8F80
F1FF8F80
F0FF0F80
F0FF0F80
F0FF0F80
F0FF0F80
F07E0F80
F07E0F80
F07E0F80
F07E0F80
ENDCHAR
STARTCHAR 039D
ENCODING 925
SWIDTH 720 0
DWIDTH 26 0
BBX 20 26 3 0
BITMAP
F801F0
FC01F0
FC01F0
FE01F0
FE01F0
FF01F0
FF81F0
FF81F0
FFC1F0
FFE1F0
FFE1F0
FBF1F0
F9F1F0
F9F9F0
F8FDF0
F8FDF0
F87FF0
F83FF0
F83FF0
F81FF0
F80FF0
F80FF0
F807F0
F807F0
F803F0
F801F0
ENDCHAR
STARTCHAR 039E
ENCODING 926
SWIDTH 636 0
DWIDTH 23 0
BBX 19 26 2 0
BITMAP
FFFFE0
FFFFE0
FFFFE0
FFFFE0
FFFFE0
000000
000000
000000
000000
000000
7FFFC0
7FFFC0
7FFFC0
7FFFC0
7FFFC0
000000
000000
000000
000000
000000
000000
000000
FFFFE0
FFFFE0
FFFFE0
FFFFE0
ENDCHAR
STARTCHAR 039F
ENCODING 927
SWIDTH 775 0
DWIDTH 28 0
BBX 25 26 2 0
BITMAP
01FF8000
07FFE000
0FFFF000
1FFFF800
3FC3FC00
7F00FE00
7E007E00
FC003F00
FC001F00
F8001F00
F8001F80
F8001F80
F8001F80
F8001F80
F8001F80
F8001F80
F8001F00
FC001F00
FC003F00
7E007E00
7F00FE00
3FC1FC00
1FFFFC00
0FFFF800
07FFE000
01FF8000
ENDCHAR
STARTCHAR 03A0
ENCODING 928
SWIDTH 720 0
DWIDTH 26 0
BBX 20 26 3 0
BITMAP
FFFFF0
FFFFF0
FFFFF0
FFFFF0
FFFFF0
F801F0
F801F0
F801F0
F801F0
F801F0
F801F0
F801F0
F801F0
F801F0
F801F0
F801F0
F801F0
F801F0
F801F0
F801F0
F801F0
F801F0
F801F0
F801F0
F801F0
F801F0
ENDCHAR
STARTCHAR 03A1
ENCODING 929
SWIDTH 664 0
DWIDTH 24 0
BBX 19 26 3 0
BITMAP
FFFC00
FFFF00
FFFFC0
FFFFC0
FFFFE0
F807E0
F803E0
F803E0
F803E0
F803E0
F807E0
F81FE0
FFFFC0
FFFFC0
FFFF80
FFFE00
F80000
F80000
F80000
F80000
F80000
F80000
F80000
F80000
F80000
F80000
ENDCHAR
STARTCHAR 03A3
ENCODING 931
SWIDTH 609 0
DWIDTH 22 0
BBX 18 26 2 0
BITMAP
FFFFC0
FFFFC0
FFFFC0
FFFFC0
FFFFC0
7E0000
7F0000
3F8000
1FC000
0FE000
07E000
03F000
01F800
03F000
07E000
0FE000
1FC000
1F8000
3F0000
7E0000
FE0000
FC0000
FFFFC0
FFFFC0
FFFFC0
FFFFC0
ENDCHAR
STARTCHAR 03A4
ENCODING 932
SWIDTH 609 0
DWIDTH 22 0
BBX 20 26 1 0
BITMAP
FFFFF0
FFFFF0
FFFFF0
FFFFF0
FFFFF0
01F800
01F800
01F800
01F800
01F800
01F800
01F800
01F800
01F800
01F800
01F800
01F800
01F800
01F800
01F800
01F800
01F800
01F800
01F800
01F800
01F800
ENDCHAR
STARTCHAR 03A5
ENCODING 933
SWIDTH 664 0
DWIDTH 24 0
BBX 24 26 0 0
BITMAP
FC003F
7E007E
7E007E
3F00FC
1F80F8
1F81F8
0FC3F0
07C3E0
07E7E0
03F7C0
03FFC0
01FF80
00FF00
00FF00
007E00
007E00
007E00
007E00
007E00
007E00
007E00
007E00
007E00
007E00
007E00
007E00
ENDCHAR
STARTCHAR 03A6
ENCODING 934
SWIDTH 830 0
DWIDTH 30 0
BBX 26 28 2 -1
BITMAP
003E0000
003E0000
003E0000
03FFE000
0FFFF800
1FFFFE00
3FFFFF00
7FBE7F00
7E3E1F80
FC3E0F80
FC3E0FC0
F83E0FC0
F83E07C0
F83E07C0
F83E07C0
F83E07C0
F83E0FC0
FC3E0FC0
FC3E1F80
7F3E3F80
3FFFFF00
3FFFFE00
1FFFFC00
07FFF800
01FFC000
003E0000
003E0000
003E0000
ENDCHAR
STARTCHAR 03A7
ENCODING 935
SWIDTH 664 0
DWIDTH 24 0
BBX 24 26 0 0
BITMAP
7E007E
3F00FC
3F00FC
1F81F8
0FC1F0
0FC3F0
07E7E0
03F7E0
03FFC0
01FF80
00FF80
00FF00
007E00
00FF00
00FF00
01FF80
03FFC0
03FFC0
07E7E0
0FC3F0
0FC3F0
1F81F8
3F81FC
3F00FC
7E007E
FE007F
ENDCHAR
STARTCHAR 03A8
ENCODING 936
SWIDTH 803 0
DWIDTH 29 0
BBX 26 26 2 0
BITMAP
F83E0FC0
F83E0FC0
F83E0FC0
F83E0FC0
F83E0FC0
F83E0FC0
F83E0FC0
F83E0FC0
F83E0FC0
F83E0FC0
F83E0FC0
F83E0F80
FC3E1F80
FE3E3F80
7FFFFF00
3FFFFE00
1FFFFC00
07FFF800
003E0000
003E0000
003E0000
003E0000
003E0000
003E0000
003E0000
003E0000
ENDCHAR
STARTCHAR 03A9
ENCODING 937
SWIDTH 803 0
DWIDTH 29 0
BBX 25 26 2 0
BITMAP
00FFC000
07FFF000
0FFFF800
1FFFFC00
3FC1FE00
3F007E00
7E003F00
7E003F00
FC001F80
FC001F80
FC001F80
FC001F80
FC001F80
FC001F80
7C001F00
7C001F00
7C001F00
3E003E00
3E003E00
1F007C00
0F80F800
07E3F000
FFF7FF80
FFF7FF80
FFF7FF80
FFF7FF80
ENDCHAR
STARTCHAR 03AA
ENCODING 938
SWIDTH 276 0
DWIDTH 10 0
BBX 12 32 -1 0
BITMAP
F0F0
F0F0
F0F0
F0F0
0000
0000
1F80
1F80
1F80
1F80
1F80
1F80
1F80
1F80
1F80
1F80
1F80
1F80
1F80
1F80
1F80
1F80
1F80
1F80
1F80
1F80
1F80
1F80
1F80
1F80
1F80
1F80
ENDCHAR
STARTCHAR 03AB
ENCODING 939
SWIDTH 664 0
DWIDTH 24 0
BBX 24 32 0 0
BITMAP
03C7C0
03C7C0
03C7C0
03C7C0
000000
000000
FC003F
7E007E
7E007E
3F00FC
1F80F8
1F81F8
0FC3F0
07C3E0
07E7E0
03F7C0
03FFC0
01FF80
00FF00
00FF00
007E00
007E00
007E00
007E00
007E00
007E00
007E00
007E00
007E00
007E00
007E00
007E00
ENDCHAR
STARTCHAR 03AC
ENCODING 940
SWIDTH 609 0
DWIDTH 22 0
BBX 20 26 1 0
BITMAP
003F00
003C00
007C00
007800
00F000
000000
000000
07F0F0
0FF9E0
1FFDE0
3FFFE0
7E1FE0
7C0FC0
7C07C0
FC07C0
FC07C0
F807C0
FC07C0
7C07C0
7C07C0
7C07C0
7E0FC0
3FFFE0
1FFDE0
0FF9E0
07F0F0
ENDCHAR
STARTCHAR 03AD
ENCODING 941
SWIDTH 443 0
DWIDTH 16 0
BBX 15 26 1 0
BITMAP
01F0
03E0
03C0
0780
0700
0000
0000
0FF0
1FFE
3FFC
7FF8
7C10
7C00
7C00
3FE0
1FE0
1FE0
3FE0
7F00
7C00
F800
FC18
7FFC
7FFE
3FFE
1FF8
ENDCHAR
STARTCHAR 03AE
ENCODING 942
SWIDTH 609 0
DWIDTH 22 0
BBX 17 33 3 -7
BITMAP
01F800
01F000
03E000
03C000
038000
000000
000000
F1F800
F3FE00
F7FF00
FFFF00
FC1F00
F81F80
F81F80
F80F80
F80F80
F00F80
F00F80
F00F80
F00F80
F00F80
F00F80
F00F80
F00F80
F00F80
F00F80
000F80
000F80
000F80
000F80
000F80
000F80
000F80
ENDCHAR
STARTCHAR 03AF
ENCODING 943
SWIDTH 276 0
DWIDTH 10 0
BBX 8 26 2 0
BITMAP
3F
3E
7C
78
F0
00
00
7C
7C
7C
7C
7C
7C
7C
7C
7C
7C
7C
7C
7C
7C
7C
7C
7C
7C
7C
ENDCHAR
STARTCHAR 03B0
ENCODING 944
SWIDTH 581 0
DWIDTH 21 0
BBX 17 26 2 0
BITMAP
01F000
F1E780
F3C780
F3C780
F78780
000000
000000
F80F80
F80F80
F80F80
F80F80
F80F80
F80F80
F80F80
F80F80
F80F80
F80F80
F80F80
F80F80
F80F80
FC0F80
7C1F00
7FFF00
3FFE00
1FFC00
0FF800
ENDCHAR
STARTCHAR 03B1
ENCODING 945
SWIDTH 609 0
DWIDTH 22 0
BBX 20 19 1 0
BITMAP
07F0F0
0FF9E0
1FFDE0
3FFFE0
7E1FE0
7C0FC0
7C07C0
FC07C0
FC07C0
F807C0
FC07C0
7C07C0
7C07C0
7C07C0
7E0FC0
3FFFE0
1FFDE0
0FF9E0
07F0F0
ENDCHAR
STARTCHAR 03B2
ENCODING 946
SWIDTH 609 0
DWIDTH 22 0
BBX 18 33 3 -7
BITMAP
0FF000
1FFC00
3FFE00
7FFF00
FC3F00
F81F00
F80F00
F81F00
F81F00
F83E00
F0FC00
F1F800
F1FC00
F0FF00
F01F00
F80F80
F80F80
F807C0
F807C0
F807C0
FC0FC0
FE0F80
FFFF80
F7FF00
F3FF00
F1FC00
F00000
F00000
F00000
F00000
F00000
F00000
F00000
ENDCHAR
STARTCHAR 03B3
ENCODING 947
SWIDTH 553 0
DWIDTH 20 0
BBX 20 26 0 -7
BITMAP
FC01F0
7C03E0
7C03E0
7E07C0
3E07C0
3E07C0
1F0F80
1F0F80
1F8F80
0F9F00
0F9F00
07FE00
07FE00
07FE00
03FC00
03FC00
01F800
01F800
01F800
00F800
00F800
00F800
00F800
00F800
00F800
00F800
ENDCHAR
STARTCHAR 03B4
ENCODING 948
SWIDTH 609 0
DWIDTH 22 0
BBX 20 26 1 0
BITMAP
3FFFC0
3FFFC0
3FFFC0
3FFFC0
1F8000
0FE000
03F000
01F800
07FE00
1FFF00
3FFF80
3F9FC0
7E07E0
7C03E0
7C03E0
F801F0
F801F0
F801F0
7801E0
7C03E0
7C03E0
3E07C0
3F9FC0
1FFF80
0FFF00
07FE00
ENDCHAR
STARTCHAR 03B5
ENCODING 949
SWIDTH 470 0
DWIDTH 17 0
BBX 15 19 1 0
BITMAP
0FF0
1FFE
3FFC
7FF8
7C10
7C00
7C00
3FE0
1FE0
1FE0
3FE0
7F00
7C00
F800
FC18
7FFC
7FFE
3FFE
1FF8
ENDCHAR
STARTCHAR 03B6
ENCODING 950
SWIDTH 470 0
DWIDTH 17 0
BBX 15 34 1 -8
BITMAP
3FFE
3FFE
3FFE
3FFE
007C
00F8
01E0
03C0
0780
0F80
1F00
1E00
3E00
3C00
7C00
7C00
7800
F800
F800
F800
7C00
7F80
7FF0
3FFC
1FFC
07FE
007E
003E
003E
01FC
01FC
01F8
03F0
0300
ENDCHAR
STARTCHAR 03B7
ENCODING 951
SWIDTH 609 0
DWIDTH 22 0
BBX 17 26 3 -7
BITMAP
F1F800
F3FE00
F7FF00
FFFF00
FC1F00
F81F80
F81F80
F80F80
F80F80
F00F80
F00F80
F00F80
F00F80
F00F80
F00F80
F00F80
F00F80
F00F80
F00F80
000F80
000F80
000F80
000F80
000F80
000F80
000F80
ENDCHAR
STARTCHAR 03B8
ENCODING 952
SWIDTH 553 0
DWIDTH 20 0
BBX 17 26 1 0
BITMAP
07F000
0FFC00
1FFE00
3FFE00
3E1F00
7C1F00
7C0F80
7C0F80
7C0F80
7C0F80
FC0F80
FFFF80
FFFF80
FFFF80
FFFF80
FC0F80
7C0F80
7C0F80
7C0F80
7C0F80
7C1F00
3E1F00
3FFE00
1FFE00
0FFC00
07F800
ENDCHAR
STARTCHAR 03B9
ENCODING 953
SWIDTH 276 0
DWIDTH 10 0
BBX 5 19 3 0
BITMAP
F8
F8
F8
F8
F8
F8
F8
F8
F8
F8
F8
F8
F8
F8
F8
F8
F8
F8
F8
ENDCHAR
STARTCHAR 03BA
ENCODING 954
SWIDTH 553 0
DWIDTH 20 0
BBX 17 19 3 0
BITMAP
F03F00
F07E00
F0FC00
F1F800
F3F000
F3E000
F7C000
FF8000
FF8000
FFC000
FFC000
FFE000
FBF000
F1F800
F0FC00
F0FC00
F07E00
F03F00
F01F80
ENDCHAR
STARTCHAR 03BB
ENCODING 955
SWIDTH 553 0
DWIDTH 20 0
BBX 20 26 0 0
BITMAP
07C000
07C000
03E000
03E000
03E000
01F000
01F000
01F000
01F800
01F800
03FC00
03FC00
07FC00
07FE00
07FE00
0F9F00
0F9F00
0F9F00
1F0F80
1F0F80
3E0FC0
3E07C0
3E07C0
7C03E0
7C03E0
FC03F0
ENDCHAR
STARTCHAR 03BC
ENCODING 956
SWIDTH 609 0
DWIDTH 22 0
BBX 17 26 3 -7
BITMAP
F00F80
F00F80
F00F80
F00F80
F00F80
F00F80
F00F80
F00F80
F00F80
F80F80
F80F80
F80F80
F81F80
F81F80
FC3F80
FFFF80
FFFF80
F7FF80
F3EF80
F00000
F00000
F00000
F00000
F00000
F00000
F00000
ENDCHAR
STARTCHAR 03BD
ENCODING 957
SWIDTH 553 0
DWIDTH 20 0
BBX 20 19 0 0
BITMAP
F803F0
7C03E0
7C03E0
7E07C0
3E07C0
3E07C0
1F0F80
1F0F80
1F1F00
0F9F00
0F9F00
07BE00
07FE00
03FC00
03FC00
03FC00
01F800
01F800
00F000
ENDCHAR
STARTCHAR 03BE
ENCODING 958
SWIDTH 443 0
DWIDTH 16 0
BBX 15 34 1 -8
BITMAP
07F8
1FF8
3FF8
3FF8
7E00
7C00
7C00
3E00
3FF8
1FF8
07F8
07F8
1FC0
3F00
3E00
7C00
7C00
F800
FC00
FC00
7E00
7F80
7FF0
3FF8
0FFC
03FE
007E
003E
007E
01FE
01FC
01F8
03F0
0200
ENDCHAR
STARTCHAR 03BF
ENCODING 959
SWIDTH 609 0
DWIDTH 22 0
BBX 20 19 1 0
BITMAP
03FC00
0FFF00
1FFF80
3FFFC0
3F0FE0
7E07E0
7C03E0
7C03F0
7C01F0
FC01F0
FC01F0
7C01F0
7C03E0
7E03E0
7F07E0
3FFFC0
1FFF80
0FFF00
03FC00
ENDCHAR
STARTCHAR 03C0
ENCODING 960
SWIDTH 775 0
DWIDTH 28 0
BBX 26 19 1 0
BITMAP
FFFFFFC0
FFFFFFC0
FFFFFFC0
FFFFFFC0
07C0F800
07C0F800
07C0F800
07C0F800
07C0F800
07C0F800
07C0F800
07C0F800
07C0F800
07C0F800
07C0F800
07C0F800
07C0F800
07C0F800
07C0F800
ENDCHAR
STARTCHAR 03C1
ENCODING 961
SWIDTH 609 0
DWIDTH 22 0
BBX 19 26 2 -7
BITMAP
03F800
0FFE00
3FFF00
3FFF80
7E0FC0
7C07C0
7C07E0
F803E0
F803E0
F803E0
F803E0
F803E0
F807E0
FC07C0
FE0FC0
FFFF80
FFFF00
FFFE00
FBFC00
F80000
F80000
F80000
F80000
F80000
F80000
F80000
ENDCHAR
STARTCHAR 03C2
ENCODING 962
SWIDTH 526 0
DWIDTH 19 0
BBX 17 27 1 -8
BITMAP
00FF80
03FF80
0FFF80
1FFF00
3FE100
3F0000
7E0000
7C0000
780000
F80000
F80000
F80000
7C0000
7E0000
3FC000
3FF800
1FFE00
07FF00
00FF00
001F80
000F80
000F80
01FF00
03FF00
03FE00
03FC00
00C000
ENDCHAR
STARTCHAR 03C3
ENCODING 963
SWIDTH 692 0
DWIDTH 25 0
BBX 23 19 1 0
BITMAP
03FFFE
0FFFFE
1FFFFE
3FFFFE
3F0FC0
7E07E0
7C03E0
7C03F0
FC01F0
F801F0
FC01F0
7C03F0
7C03E0
7E03E0
7E07E0
3FFFC0
1FFF80
0FFF00
07FC00
ENDCHAR
STARTCHAR 03C4
ENCODING 964
SWIDTH 443 0
DWIDTH 16 0
BBX 14 19 1 0
BITMAP
FFFC
FFFC
FFFC
FFFC
07C0
07C0
07C0
07C0
07C0
07C0
07C0
07C0
07C0
07C0
07C0
07C0
07C0
07C0
07C0
ENDCHAR
STARTCHAR 03C5
ENCODING 965
SWIDTH 581 0
DWIDTH 21 0
BBX 17 19 2 0
BITMAP
F80F80
F80F80
F80F80
F80F80
F80F80
F80F80
F80F80
F80F80
F80F80
F80F80
F80F80
F80F80
F80F80
FC0F80
7C1F00
7FFF00
3FFE00
1FFC00
0FF800
ENDCHAR
STARTCHAR 03C6
ENCODING 966
SWIDTH 720 0
DWIDTH 26 0
BBX 23 26 1 -7
BITMAP
078FC0
0F9FF0
1F3FF8
3F3FFC
7E3E7C
7C3E3E
7C3C3E
7C7C3E
F87C3E
F87C3E
FC7C3E
7C7C3E
7C7C3E
7E7C7E
3F7CFC
3FFDF8
1FFFF8
0FFFE0
03FFC0
007C00
007C00
007C00
007C00
007C00
007C00
007C00
ENDCHAR
STARTCHAR 03C7
ENCODING 967
SWIDTH 581 0
DWIDTH 21 0
BBX 19 26 1 -7
BITMAP
F803E0
FC07C0
7C07C0
7E0F80
3E0F80
3F1F00
1F1F00
1FBE00
0FBE00
07FC00
07FC00
03F800
03F800
03F800
03F800
07FC00
07FC00
0FFE00
1FBE00
1F3F00
3F1F00
3E1F80
7E0FC0
7C07C0
FC07E0
F803E0
ENDCHAR
STARTCHAR 03C8
ENCODING 968
SWIDTH 747 0
DWIDTH 27 0
BBX 23 26 2 -7
BITMAP
F87C3E
F87C3E
F87C3E
F87C3E
F87C3E
F87C3E
F87C3E
F87C3E
F87C3E
F87C3E
F87C3E
F87C3E
F87C3E
FC7C3E
7C7C7C
7FFFFC
3FFFF8
1FFFF0
07FFE0
007C00
007C00
007C00
007C00
007C00
007C00
007C00
ENDCHAR
STARTCHAR 03C9
ENCODING 969
SWIDTH 858 0
DWIDTH 31 0
BBX 28 19 1 0
BITMAP
1F0007C0
3E0007C0
3E0003E0
3E0003E0
7C0003E0
7C0F81F0
7C0F81F0
7C0F81F0
FC0F81F0
F80F81F0
F80F81F0
FC0F81F0
7C0F81F0
7C0F81F0
7E1FC3E0
3FFFFFE0
3FFDFFC0
1FF8FF80
07F07F00
ENDCHAR
STARTCHAR 03CA
ENCODING 970
SWIDTH 276 0
DWIDTH 10 0
BBX 12 26 -1 0
BITMAP
F0F0
F0F0
F0F0
F0F0
0000
0000
0000
0F80
0F80
0F80
0F80
0F80
0F80
0F80
0F80
0F80
0F80
0F80
0F80
0F80
0F80
0F80
0F80
0F80
0F80
0F80
ENDCHAR
STARTCHAR 03CB
ENCODING 971
SWIDTH 581 0
DWIDTH 21 0
BBX 17 26 2 0
BITMAP
1E3C00
1E3C00
1E3C00
1E3C00
000000
000000
000000
F80F80
F80F80
F80F80
F80F80
F80F80
F80F80
F80F80
F80F80
F80F80
F80F80
F80F80
F80F80
F80F80
FC0F80
7C1F00
7FFF00
3FFE00
1FFC00
0FF800
ENDCHAR
STARTCHAR 03CC
ENCODING 972
SWIDTH 609 0
DWIDTH 22 0
BBX 20 26 1 0
BITMAP
007E00
007C00
00F800
00F000
00E000
000000
000000
03FC00
0FFF00
1FFF80
3FFFC0
3F0FE0
7E07E0
7C03E0
7C03F0
7C01F0
FC01F0
FC01F0
7C01F0
7C03E0
7E03E0
7F07E0
3FFFC0
1FFF80
0FFF00
03FC00
ENDCHAR
STARTCHAR 03CD
ENCODING 973
SWIDTH 581 0
DWIDTH 21 0
BBX 17 26 2 0
BITMAP
00F800
01F000
01E000
03C000
038000
000000
000000
F80F80
F80F80
F80F80
F80F80
F80F80
F80F80
F80F80
F80F80
F80F80
F80F80
F80F80
F80F80
F80F80
FC0F80
7C1F00
7FFF00
3FFE00
1FFC00
0FF800
ENDCHAR
STARTCHAR 03CE
ENCODING 974
SWIDTH 858 0
DWIDTH 31 0
BBX 28 26 1 0
BITMAP
000FC000
000F8000
000F0000
001E0000
001C0000
00000000
00000000
1F0007C0
3E0007C0
3E0003E0
3E0003E0
7C0003E0
7C0F81F0
7C0F81F0
7C0F81F0
FC0F81F0
F80F81F0
F80F81F0
FC0F81F0
7C0F81F0
7C0F81F0
7E1FC3E0
3FFFFFE0
3FFDFFC0
1FF8FF80
07F07F00
ENDCHAR
STARTCHAR 0401
ENCODING 1025
SWIDTH 664 0
DWIDTH 24 0
BBX 19 32 3 0
BITMAP
1F1E00
1F1E00
1F1E00
1F1E00
1F1E00
000000
FFFFE0
FFFFE0
FFFFE0
FFFFE0
FFFFE0
F80000
F80000
F80000
F80000
F80000
FFFFC0
FFFFC0
FFFFC0
FFFFC0
FFFFC0
F80000
F80000
F80000
F80000
F80000
F80000
F80000
FFFFE0
FFFFE0
FFFFE0
FFFFE0
ENDCHAR
STARTCHAR 0402
ENCODING 1026
SWIDTH 886 0
DWIDTH 32 0
BBX 30 26 1 0
BITMAP
FFFFF000
FFFFF000
FFFFF000
FFFFF000
FFFFF000
01F80000
01F80000
01F80000
01F80000
01F9FF80
01FFFFC0
01FFFFF0
01FFFFF0
01FF87F8
01FC01F8
01F800F8
01F800FC
01F8007C
01F8007C
01F800F8
01F800F8
01F823F8
01F83FF0
01F83FE0
01F83FC0
01F87F80
ENDCHAR
STARTCHAR 0403
ENCODING 1027
SWIDTH 553 0
DWIDTH 20 0
BBX 18 33 3 0
BITMAP
00FC00
00F800
01F000
01E000
03C000
038000
000000
FFFFC0
FFFFC0
FFFFC0
FFFFC0
FFFFC0
F80000
F80000
F80000
F80000
F80000
F80000
F80000
F80000
F80000
F80000
F80000
F80000
F80000
F80000
F80000
F80000
F80000
F80000
F80000
F80000
F80000
ENDCHAR
STARTCHAR 0404
ENCODING 1028
SWIDTH 720 0
DWIDTH 26 0
BBX 22 26 2 0
BITMAP
01FF00
07FFC0
0FFFE0
1FFFF0
3FC7F8
7F01FC
7E00FC
FC0078
FC0000
F80000
F80000
FFF800
FFF800
FFF800
FFF800
F80000
F80000
FC0070
FC00FC
7C00FC
7E01F8
3F83F8
3FFFF0
1FFFE0
07FFC0
03FF00
ENDCHAR
STARTCHAR 0405
ENCODING 1029
SWIDTH 664 0
DWIDTH 24 0
BBX 21 26 1 0
BITMAP
03FF00
0FFFC0
1FFFE0
3FFFE0
3F07F0
7E03F0
7C01F8
7E01F8
7F0000
3FC000
3FFC00
1FFF80
0FFFE0
03FFF0
007FF0
0007F8
0001F8
7C00F8
FC00F8
7C00F8
7E01F8
7F03F8
3FFFF0
1FFFE0
0FFFC0
03FF80
ENDCHAR
STARTCHAR 0406
ENCODING 1030
SWIDTH 276 0
DWIDTH 10 0
BBX 6 26 2 0
BITMAP
FC
FC
FC
FC
FC
FC
FC
FC
FC
FC
FC
FC
FC
FC
FC
FC
FC
FC
FC
FC
FC
FC
FC
FC
FC
FC
ENDCHAR
STARTCHAR 0407
ENCODING 1031
SWIDTH 276 0
DWIDTH 10 0
BBX 12 32 -1 0
BITMAP
F0F0
F0F0
F0F0
F0F0
F0F0
0000
1F80
1F80
1F80
1F80
1F80
1F80
1F80
1F80
1F80
1F80
1F80
1F80
1F80
1F80
1F80
1F80
1F80
1F80
1F80
1F80
1F80
1F80
1F80
1F80
1F80
1F80
ENDCHAR
STARTCHAR 0408
ENCODING 1032
SWIDTH 553 0
DWIDTH 20 0
BBX 16 26 1 0
BITMAP
001F
001F
001F
001F
001F
001F
001F
001F
001F
001F
001F
001F
001F
001F
001F
001F
001F
081F
F81F
F81F
F81F
FC3F
FFFE
7FFE
3FFC
1FF0
ENDCHAR
STARTCHAR 0409
ENCODING 1033
SWIDTH 1107 0
DWIDTH 40 0
BBX 38 26 0 0
BITMAP
0FFFF80000
0FFFF80000
0FFFF80000
0FFFF80000
0FFFF80000
0F80F80000
0F80F80000
0F80F80000
0F80F80000
0F80F80000
0F80FFF800
0F80FFFFC0
0F80FFFFE0
0F80FFFFF0
0F80FFFFF8
0F80F801F8
0F80F800FC
0F80F800FC
0F80F800FC
0F80F800FC
0F80F800FC
1F80F807F8
FF80FFFFF8
FF00FFFFF0
FF00FFFFE0
FC00FFFF80
ENDCHAR
STARTCHAR 040A
ENCODING 1034
SWIDTH 1052 0
DWIDTH 38 0
BBX 34 26 3 0
BITMAP
F80F800000
F80F800000
F80F800000
F80F800000
F80F800000
F80F800000
F80F800000
F80F800000
F80F800000
F80F800000
FFFFFFE000
FFFFFFFC00
FFFFFFFE00
FFFFFFFF00
FFFFFFFF80
F80F801F80
F80F800F80
F80F800FC0
F80F800FC0
F80F800FC0
F80F801F80
F80F807F80
F80FFFFF00
F80FFFFF00
F80FFFFE00
F80FFFF800
ENDCHAR
STARTCHAR 040B
ENCODING 1035
SWIDTH 886 0
DWIDTH 32 0
BBX 28 26 1 0
BITMAP
FFFFF800
FFFFF800
FFFFF800
FFFFF800
FFFFF800
00F80000
00F80000
00F80000
00F80000
00FBFF00
00FFFFC0
00FFFFC0
00FFFFE0
00FE07F0
00F803F0
00F803F0
00F801F0
00F801F0
00F801F0
00F801F0
00F801F0
00F801F0
00F801F0
00F801F0
00F801F0
00F801F0
ENDCHAR
STARTCHAR 040C
ENCODING 1036
SWIDTH 609 0
DWIDTH 22 0
BBX 18 33 3 0
BITMAP
00F800
01F000
01E000
03C000
03C000
078000
000000
F803C0
F80FC0
F81FC0
F81FC0
F83E00
F83C00
F87C00
F87800
F8F800
F8F800
F9F000
FFE000
FFC000
FFF000
FFF800
F9F800
F8FC00
F87E00
F87E00
F83F00
F83F00
F83F00
F81F80
F81F80
F80FC0
F80FC0
ENDCHAR
STARTCHAR 040D
ENCODING 1037
SWIDTH 720 0
DWIDTH 26 0
BBX 20 33 3 0
BITMAP
0FC000
07C000
03E000
01E000
00F000
007000
000000
F801F0
F803F0
F803F0
F807F0
F80FF0
F80FF0
F81FF0
F81FF0
F83FF0
F87FF0
F87FF0
F8FDF0
F8F9F0
F9F9F0
FBF1F0
FBE1F0
FFE1F0
FFC1F0
FFC1F0
FF81F0
FF01F0
FF01F0
FE01F0
FC01F0
FC01F0
F801F0
ENDCHAR
STARTCHAR 040E
ENCODING 1038
SWIDTH 609 0
DWIDTH 22 0
BBX 22 32 0 0
BITMAP
038380
038380
01FF00
00FE00
003800
000000
FC007C
7C007C
7E00F8
3E00F8
3F01F8
1F01F0
1F81F0
0F83E0
0FC3E0
07C7C0
07C7C0
03E780
03EF80
01FF80
01FF00
00FF00
00FE00
007E00
007C00
007C00
007800
00F800
1FF000
1FF000
1FE000
1FC000
ENDCHAR
STARTCHAR 040F
ENCODING 1039
SWIDTH 720 0
DWIDTH 26 0
BBX 20 33 3 -7
BITMAP
F801F0
F801F0
F801F0
F801F0
F801F0
F801F0
F801F0
F801F0
F801F0
F801F0
F801F0
F801F0
F801F0
F801F0
F801F0
F801F0
F801F0
F801F0
F801F0
F801F0
F801F0
F801F0
FFFFF0
FFFFF0
FFFFF0
FFFFF0
00F000
00F000
00F000
00F000
00F000
00F000
00F000
ENDCHAR
STARTCHAR 0410
ENCODING 1040
SWIDTH 720 0
DWIDTH 26 0
BBX 26 26 0 0
BITMAP
003F0000
003F0000
007F8000
007F8000
00FF8000
00FFC000
00FFC000
01F7E000
01F3E000
03F3E000
03E3F000
03E1F000
07C1F800
07C1F800
0FC0F800
0F80FC00
0FFFFC00
1FFFFE00
1FFFFE00
1FFFFE00
3F003F00
3E001F00
7E001F80
7C001F80
7C000F80
FC000FC0
ENDCHAR
STARTCHAR 0411
ENCODING 1041
SWIDTH 720 0
DWIDTH 26 0
BBX 21 26 3 0
BITMAP
FFFFE0
FFFFE0
FFFFE0
FFFFE0
F80000
F80000
F80000
F80000
F80000
F80000
FFF000
FFFF80
FFFFE0
FFFFF0
FFFFF0
F803F8
F801F8
F800F8
F800F8
F800F8
F801F8
F807F8
FFFFF0
FFFFE0
FFFFC0
FFFF00
ENDCHAR
STARTCHAR 0412
ENCODING 1042
SWIDTH 720 0
DWIDTH 26 0
BBX 21 26 3 0
BITMAP
FFFE00
FFFF80
FFFFC0
FFFFE0
F83FF0
F803F0
F801F0
F801F0
F801F0
F803E0
FFFFE0
FFFFC0
FFFF80
FFFFE0
FFFFF0
F803F8
F801F8
F800F8
F800F8
F800F8
F801F8
F807F8
FFFFF0
FFFFE0
FFFFC0
FFFF00
ENDCHAR
STARTCHAR 0413
ENCODING 1043
SWIDTH 553 0
DWIDTH 20 0
BBX 17 26 3 0
BITMAP
FFFF80
FFFF80
FFFF80
FFFF80
F80000
F80000
F80000
F80000
F80000
F80000
F80000
F80000
F80000
F80000
F80000
F80000
F80000
F80000
F80000
F80000
F80000
F80000
F80000
F80000
F80000
F80000
ENDCHAR
STARTCHAR 0414
ENCODING 1044
SWIDTH 720 0
DWIDTH 26 0
BBX 25 32 0 -6
BITMAP
07FFFE00
07FFFE00
07FFFE00
07FFFE00
07C07E00
07C07E00
07C07E00
07C07E00
07C07E00
07C07E00
07C07E00
0F807E00
0F807E00
0F807E00
0F807E00
0F807E00
0F807E00
0F807E00
1F807E00
1F007E00
1F007E00
3F007E00
FFFFFF80
FFFFFF80
FFFFFF80
FFFFFF80
F0000F80
F0000F80
F0000F80
F0000F80
F0000F80
F0000F80
ENDCHAR
STARTCHAR 0415
ENCODING 1045
SWIDTH 664 0
DWIDTH 24 0
BBX 19 26 3 0
BITMAP
FFFFE0
FFFFE0
FFFFE0
FFFFE0
FFFFE0
F80000
F80000
F80000
F80000
F80000
FFFFC0
FFFFC0
FFFFC0
FFFFC0
FFFFC0
F80000
F80000
F80000
F80000
F80000
F80000
F80000
FFFFE0
FFFFE0
FFFFE0
FFFFE0
ENDCHAR
STARTCHAR 0416
ENCODING 1046
SWIDTH 913 0
DWIDTH 33 0
BBX 31 26 1 0
BITMAP
F807C03E
FC07C0FE
FE07C0FE
FF07C1FE
1F07C3F0
0F87C3E0
0F87C3C0
0787C7C0
07C7C780
03C7CF80
03E7CF80
01FFFF00
00FFFE00
01FFFF00
03FFFF80
07E7CFC0
0FC7CFC0
0FC7C7E0
1F87C3F0
1F87C3F0
3F07C1F8
3F07C1F8
7E07C1FC
7E07C0FC
FC07C0FE
FC07C07E
ENDCHAR
STARTCHAR 0417
ENCODING 1047
SWIDTH 636 0
DWIDTH 23 0
BBX 20 26 1 0
BITMAP
07FE00
1FFF00
3FFF80
7FFFC0
7E0FC0
FC07E0
3C07E0
0007E0
0007C0
0007C0
000F80
00FF00
00FE00
00FF80
00FFC0
000FE0
0007E0
0003F0
0803F0
7803F0
FC03F0
FE07E0
7FFFE0
7FFFC0
3FFF80
0FFE00
ENDCHAR
STARTCHAR 0418
ENCODING 1048
SWIDTH 720 0
DWIDTH 26 0
BBX 20 26 3 0
BITMAP
F801F0
F803F0
F803F0
F807F0
F80FF0
F80FF0
F81FF0
F81FF0
F83FF0
F87FF0
F87FF0
F8FDF0
F8F9F0
F9F9F0
FBF1F0
FBE1F0
FFE1F0
FFC1F0
FFC1F0
FF81F0
FF01F0
FF01F0
FE01F0
FC01F0
FC01F0
F801F0
ENDCHAR
STARTCHAR 0419
ENCODING 1049
SWIDTH 720 0
DWIDTH 26 0
BBX 20 32 3 0
BITMAP
060600
070E00
07FE00
03FC00
00F000
000000
F801F0
F803F0
F803F0
F807F0
F80FF0
F80FF0
F81FF0
F81FF0
F83FF0
F87FF0
F87FF0
F8FDF0
F8F9F0
F9F9F0
FBF1F0
FBE1F0
FFE1F0
FFC1F0
FFC1F0
FF81F0
FF01F0
FF01F0
FE01F0
FC01F0
FC01F0
F801F0
ENDCHAR
STARTCHAR 041A
ENCODING 1050
SWIDTH 609 0
DWIDTH 22 0
BBX 18 26 3 0
BITMAP
F803C0
F80FC0
F81FC0
F81FC0
F83E00
F83C00
F87C00
F87800
F8F800
F8F800
F9F000
FFE000
FFC000
FFF000
FFF800
F9F800
F8FC00
F87E00
F87E00
F83F00
F83F00
F83F00
F81F80
F81F80
F80FC0
F80FC0
ENDCHAR
STARTCHAR 041B
ENCODING 1051
SWIDTH 692 0
DWIDTH 25 0
BBX 22 26 1 0
BITMAP
1FFFFC
1FFFFC
1FFFFC
1FFFFC
1FFFFC
1F80FC
1F80FC
1F80FC
1F80FC
1F80FC
1F80FC
1F80FC
1F80FC
1F80FC
1F80FC
1F80FC
1F80FC
1F80FC
1F80FC
1F80FC
1F00FC
1F00FC
FF00FC
FF00FC
FE00FC
FC00FC
ENDCHAR
STARTCHAR 041C
ENCODING 1052
SWIDTH 830 0
DWIDTH 30 0
BBX 25 26 3 0
BITMAP
FE007F80
FF00FF80
FF00FF80
FF00FF80
FF80FF80
FF81FF80
F781EF80
F781EF80
F7C3EF80
F7C3EF80
F3C3CF80
F3C3CF80
F3E7CF80
F3E7CF80
F1E78F80
F1E78F80
F1FF8F80
F1FF8F80
F0FF0F80
F0FF0F80
F0FF0F80
F0FF0F80
F07E0F80
F07E0F80
F07E0F80
F07E0F80
ENDCHAR
STARTCHAR 041D
ENCODING 1053
SWIDTH 720 0
DWIDTH 26 0
BBX 20 26 3 0
BITMAP
F801F0
F801F0
F801F0
F801F0
F801F0
F801F0
F801F0
F801F0
F801F0
F801F0
FFFFF0
FFFFF0
FFFFF0
FFFFF0
FFFFF0
F801F0
F801F0
F801F0
F801F0
F801F0
F801F0
F801F0
F801F0
F801F0
F801F0
F801F0
ENDCHAR
STARTCHAR 041E
ENCODING 1054
SWIDTH 775 0
DWIDTH 28 0
BBX 25 26 2 0
BITMAP
01FF8000
07FFE000
0FFFF000
1FFFF800
3FC3FC00
7F00FE00
7E007E00
FC003F00
FC001F00
F8001F00
F8001F80
F8001F80
F8001F80
F8001F80
F8001F80
F8001F80
F8001F00
FC001F00
FC003F00
7E007E00
7F00FE00
3FC1FC00
1FFFFC00
0FFFF800
07FFE000
01FF8000
ENDCHAR
STARTCHAR 041F
ENCODING 1055
SWIDTH 720 0
DWIDTH 26 0
BBX 20 26 3 0
BITMAP
FFFFF0
FFFFF0
FFFFF0
FFFFF0
F801F0
F801F0
F801F0
F801F0
F801F0
F801F0
F801F0
F801F0
F801F0
F801F0
F801F0
F801F0
F801F0
F801F0
F801F0
F801F0
F801F0
F801F0
F801F0
F801F0
F801F0
F801F0
ENDCHAR
STARTCHAR 0420
ENCODING 1056
SWIDTH 664 0
DWIDTH 24 0
BBX 19 26 3 0
BITMAP
FFFC00
FFFF00
FFFFC0
FFFFC0
FFFFE0
F807E0
F803E0
F803E0
F803E0
F803E0
F807E0
F81FE0
FFFFC0
FFFFC0
FFFF80
FFFE00
F80000
F80000
F80000
F80000
F80000
F80000
F80000
F80000
F80000
F80000
ENDCHAR
STARTCHAR 0421
ENCODING 1057
SWIDTH 720 0
DWIDTH 26 0
BBX 22 26 2 0
BITMAP
01FF00
07FFC0
0FFFF0
1FFFF0
3FC7F8
7F01FC
7E00FC
7C0078
FC0000
F80000
F80000
F80000
F80000
F80000
F80000
F80000
F80000
FC0070
FC007C
7E00FC
7E01F8
3F83F8
1FFFF0
0FFFE0
07FFC0
01FF00
ENDCHAR
STARTCHAR 0422
ENCODING 1058
SWIDTH 609 0
DWIDTH 22 0
BBX 20 26 1 0
BITMAP
FFFFF0
FFFFF0
FFFFF0
FFFFF0
FFFFF0
01F800
01F800
01F800
01F800
01F800
01F800
01F800
01F800
01F800
01F800
01F800
01F800
01F800
01F800
01F800
01F800
01F800
01F800
01F800
01F800
01F800
ENDCHAR
STARTCHAR 0423
ENCODING 1059
SWIDTH 609 0
DWIDTH 22 0
BBX 22 26 0 0
BITMAP
FC007C
7C007C
7E00F8
3E00F8
3F01F8
1F01F0
1F81F0
0F83E0
0FC3E0
07C7C0
07C7C0
03E780
03EF80
01FF80
01FF00
00FF00
00FE00
007E00
007C00
007C00
007800
00F800
1FF000
1FF000
1FE000
1FC000
ENDCHAR
STARTCHAR 0424
ENCODING 1060
SWIDTH 858 0
DWIDTH 31 0
BBX 27 26 2 0
BITMAP
001F0000
001F0000
001F0000
03FFF800
0FFFFE00
3FFFFF00
3FFFFF80
7F1F1FC0
FC1F07C0
F81F07E0
F81F03E0
F81F03E0
F81F03E0
F81F03E0
F81F03E0
F81F03E0
FC1F07E0
7E1F0FC0
7FDF3FC0
3FFFFF80
1FFFFF00
0FFFFE00
01FFF000
001F0000
001F0000
001F0000
ENDCHAR
STARTCHAR 0425
ENCODING 1061
SWIDTH 664 0
DWIDTH 24 0
BBX 24 26 0 0
BITMAP
7E007E
3F00FC
3F00FC
1F81F8
0FC1F0
0FC3F0
07E7E0
03F7E0
03FFC0
01FF80
00FF80
00FF00
007E00
00FF00
00FF00
01FF80
03FFC0
03FFC0
07E7E0
0FC3F0
0FC3F0
1F81F8
3F81FC
3F00FC
7E007E
FE007F
ENDCHAR
STARTCHAR 0426
ENCODING 1062
SWIDTH 720 0
DWIDTH 26 0
BBX 22 32 3 -6
BITMAP
F801F0
F801F0
F801F0
F801F0
F801F0
F801F0
F801F0
F801F0
F801F0
F801F0
F801F0
F801F0
F801F0
F801F0
F801F0
F801F0
F801F0
F801F0
F801F0
F801F0
F801F0
F801F0
FFFFFC
FFFFFC
FFFFFC
FFFFFC
00003C
00003C
00003C
00003C
00003C
00003C
ENDCHAR
STARTCHAR 0427
ENCODING 1063
SWIDTH 692 0
DWIDTH 25 0
BBX 21 26 2 0
BITMAP
F801F8
F801F8
F801F8
F801F8
F801F8
F801F8
F801F8
F801F8
F801F8
FC01F8
FC01F8
FC01F8
7F0FF8
7FFFF8
3FFFF8
1FFFF8
07F9F8
0001F8
0001F8
0001F8
0001F8
0001F8
0001F8
0001F8
0001F8
0001F8
ENDCHAR
STARTCHAR 0428
ENCODING 1064
SWIDTH 996 0
DWIDTH 36 0
BBX 31 26 3 0
BITMAP
F80FC07E
F80FC07E
F80FC07E
F80FC07E
F80FC07E
F80FC07E
F80FC07E
F80FC07E
F80FC07E
F80FC07E
F80FC07E
F80FC07E
F80FC07E
F80FC07E
F80FC07E
F80FC07E
F80FC07E
F80FC07E
F80FC07E
F80FC07E
F80FC07E
F80FC07E
FFFFFFFE
FFFFFFFE
FFFFFFFE
FFFFFFFE
ENDCHAR
STARTCHAR 0429
ENCODING 1065
SWIDTH 1024 0
DWIDTH 37 0
BBX 33 32 3 -6
BITMAP
F80FC07E00
F80FC07E00
F80FC07E00
F80FC07E00
F80FC07E00
F80FC07E00
F80FC07E00
F80FC07E00
F80FC07E00
F80FC07E00
F80FC07E00
F80FC07E00
F80FC07E00
F80FC07E00
F80FC07E00
F80FC07E00
F80FC07E00
F80FC07E00
F80FC07E00
F80FC07E00
F80FC07E00
F80FC07E00
FFFFFFFF80
FFFFFFFF80
FFFFFFFF80
FFFFFFFF80
0000000780
0000000780
0000000780
0000000780
0000000780
0000000780
ENDCHAR
STARTCHAR 042A
ENCODING 1066
SWIDTH 858 0
DWIDTH 31 0
BBX 30 26 0 0
BITMAP
FFF80000
FFF80000
FFF80000
FFF80000
00F80000
00F80000
00F80000
00F80000
00F80000
00F80000
00FFF800
00FFFFC0
00FFFFE0
00FFFFF0
00FFFFF8
00F801F8
00F800FC
00F800FC
00F800FC
00F800FC
00F801F8
00F807F8
00FFFFF8
00FFFFF0
00FFFFE0
00FFFF80
ENDCHAR
STARTCHAR 042B
ENCODING 1067
SWIDTH 969 0
DWIDTH 35 0
BBX 30 26 3 0
BITMAP
F80000FC
F80000FC
F80000FC
F80000FC
F80000FC
F80000FC
F80000FC
F80000FC
F80000FC
F80000FC
FFF000FC
FFFF80FC
FFFFE0FC
FFFFF0FC
FFFFF0FC
F803F8FC
F801F8FC
F800F8FC
F800F8FC
F800F8FC
F801F8FC
F807F8FC
FFFFF0FC
FFFFE0FC
FFFFC0FC
FFFF00FC
ENDCHAR
STARTCHAR 042C
ENCODING 1068
SWIDTH 720 0
DWIDTH 26 0
BBX 21 26 3 0
BITMAP
F80000
F80000
F80000
F80000
F80000
F80000
F80000
F80000
F80000
F80000
FFF000
FFFF80
FFFFE0
FFFFF0
FFFFF0
F803F8
F801F8
F800F8
F800F8
F800F8
F801F8
F807F8
FFFFF0
FFFFE0
FFFFC0
FFFF00
ENDCHAR
STARTCHAR 042D
ENCODING 1069
SWIDTH 720 0
DWIDTH 26 0
BBX 22 26 2 0
BITMAP
07FE00
0FFF80
3FFFC0
7FFFE0
7F0FF0
FE03F0
FC01F8
F800F8
0000FC
0000FC
00007C
00FFFC
00FFFC
00FFFC
00FFFC
00007C
0000FC
3800FC
F800F8
FC01F8
FE03F8
7F07F0
7FFFE0
3FFFC0
1FFF80
07FE00
ENDCHAR
STARTCHAR 042E
ENCODING 1070
SWIDTH 1024 0
DWIDTH 37 0
BBX 33 26 3 0
BITMAP
F800FFC000
F803FFF000
F807FFF800
F80FFFFC00
F81FE3FC00
F81F80FE00
F83F007F00
F83E003F00
F83E001F00
F87E001F00
F87C001F00
FFFC001F80
FFFC001F80
FFFC001F80
FFFC001F80
F87C001F00
F87E001F00
F87E001F00
F83E003F00
F83F003E00
F81F807E00
F81FC0FC00
F80FFFFC00
F807FFF800
F803FFF000
F801FFC000
ENDCHAR
STARTCHAR 042F
ENCODING 1071
SWIDTH 720 0
DWIDTH 26 0
BBX 23 26 0 0
BITMAP
00FFFE
07FFFE
0FFFFE
1FFFFE
1FFFFE
3F003E
3F003E
3F003E
3F003E
3F003E
1F803E
1FFFFE
0FFFFE
03FFFE
007FFE
00FE3E
03F83E
03F03E
07E03E
0FE03E
0FC03E
1F803E
3F803E
3F003E
7E003E
FE003E
ENDCHAR
STARTCHAR 0430
ENCODING 1072
SWIDTH 553 0
DWIDTH 20 0
BBX 18 19 1 0
BITMAP
07FC00
1FFE00
3FFF00
7FFF00
7C1F80
1C0F80
000F80
003F80
07FF80
1FFF80
7FCF80
7E0F80
F80F80
F80F80
FC1F80
FC3F80
7FFF80
3FFF80
1FC7C0
ENDCHAR
STARTCHAR 0431
ENCODING 1073
SWIDTH 609 0
DWIDTH 22 0
BBX 19 26 2 0
BITMAP
00FFC0
0FFFC0
1FFF80
3FFF00
7E0000
780000
F00000
F07000
E3FC00
EFFF00
EFFF80
FF3F80
FC0FC0
F807C0
F807E0
F803E0
F803E0
F803E0
F807E0
F807C0
FC07C0
7E0FC0
7FFF80
3FFF00
1FFE00
07F800
ENDCHAR
STARTCHAR 0432
ENCODING 1074
SWIDTH 609 0
DWIDTH 22 0
BBX 18 19 3 0
BITMAP
FFF800
FFFF00
FFFF00
F87F80
F80F80
F80F80
F80F80
F81F80
FFFF00
FFFC00
FFFF00
F81F80
F80FC0
F807C0
F80FC0
F81FC0
FFFF80
FFFF00
FFFE00
ENDCHAR
STARTCHAR 0433
ENCODING 1075
SWIDTH 415 0
DWIDTH 15 0
BBX 13 19 2 0
BITMAP
FFF8
FFF8
FFF8
FFF8
F800
F800
F800
F800
F800
F800
F800
F800
F800
F800
F800
F800
F800
F800
F800
ENDCHAR
STARTCHAR 0434
ENCODING 1076
SWIDTH 636 0
DWIDTH 23 0
BBX 22 24 0 -5
BITMAP
07FFF0
07FFF0
07FFF0
07FFF0
0781F0
0781F0
0781F0
0781F0
0F81F0
0F81F0
0F81F0
0F01F0
1F01F0
1F01F0
3E01F0
FFFFFC
FFFFFC
FFFFFC
FFFFFC
F0003C
F0003C
F0003C
F0003C
F0003C
ENDCHAR
STARTCHAR 0435
ENCODING 1077
SWIDTH 553 0
DWIDTH 20 0
BBX 18 19 1 0
BITMAP
07F000
0FFC00
1FFE00
3FFF00
7E1F80
7C0F80
780780
F80780
FFFFC0
FFFFC0
FFFFC0
F80000
F80000
7C0E00
7C0F80
3F1F80
3FFF00
1FFE00
07FC00
ENDCHAR
STARTCHAR 0436
ENCODING 1078
SWIDTH 720 0
DWIDTH 26 0
BBX 25 19 0 0
BITMAP
783E0780
7C3E0F80
7E3E1F80
7E3E3F80
0F3E3C00
0F3E3C00
0F3E7800
07BEF800
03FFF000
01FFE000
07FFF800
0FBE7C00
1F3E7C00
1F3E3E00
3E3E3E00
3E3E1F00
7C3E1F00
7C3E0F80
FC3E0F80
ENDCHAR
STARTCHAR 0437
ENCODING 1079
SWIDTH 498 0
DWIDTH 18 0
BBX 16 19 1 0
BITMAP
0FE0
3FF8
7FFC
7E7C
F83E
103E
003E
007C
01F8
01E0
01FC
007E
003E
101F
F83F
FC3E
FFFE
7FFC
1FF0
ENDCHAR
STARTCHAR 0438
ENCODING 1080
SWIDTH 609 0
DWIDTH 22 0
BBX 18 19 2 0
BITMAP
F807C0
F80FC0
F81FC0
F81FC0
F83FC0
F87FC0
F87FC0
F8FFC0
F8F7C0
F9E7C0
FBE7C0
FBC7C0
FF87C0
FF87C0
FF07C0
FE07C0
FE07C0
FC07C0
FC07C0
ENDCHAR
STARTCHAR 0439
ENCODING 1081
SWIDTH 609 0
DWIDTH 22 0
BBX 18 26 2 0
BITMAP
0C0E00
0E0C00
07FC00
07F800
01E000
000000
000000
F807C0
F80FC0
F81FC0
F81FC0
F83FC0
F87FC0
F87FC0
F8FFC0
F8F7C0
F9E7C0
FBE7C0
FBC7C0
FF87C0
FF87C0
FF07C0
FE07C0
FE07C0
FC07C0
FC07C0
ENDCHAR
STARTCHAR 043A
ENCODING 1082
SWIDTH 498 0
DWIDTH 18 0
BBX 16 19 2 0
BITMAP
F81E
F83E
F87E
F87E
F8F0
F8F0
F8F0
F9E0
FFC0
FF80
FFE0
F9F0
F8F8
F8F8
F87C
F87C
F83E
F83E
F81F
ENDCHAR
STARTCHAR 043B
ENCODING 1083
SWIDTH 636 0
DWIDTH 23 0
BBX 21 19 0 0
BITMAP
0FFFF8
0FFFF8
0FFFF8
0FFFF8
0F80F8
0F80F8
0F80F8
0F80F8
0F80F8
0F80F8
0F80F8
0F80F8
0F80F8
0F80F8
0F80F8
FF80F8
FF00F8
FF00F8
FE00F8
ENDCHAR
STARTCHAR 043C
ENCODING 1084
SWIDTH 747 0
DWIDTH 27 0
BBX 21 19 3 0
BITMAP
FC01F8
FC01F8
FE03F8
FE03F8
FE03F8
FF07F8
FF07F8
FF07F8
F78F78
F78F78
F7CF78
F3DE78
F3DE78
F3FE78
F1FC78
F1FC78
F1F878
F0F878
F0F878
ENDCHAR
STARTCHAR 043D
ENCODING 1085
SWIDTH 609 0
DWIDTH 22 0
BBX 17 19 2 0
BITMAP
F80F80
F80F80
F80F80
F80F80
F80F80
F80F80
F80F80
FFFF80
FFFF80
FFFF80
FFFF80
F80F80
F80F80
F80F80
F80F80
F80F80
F80F80
F80F80
F80F80
ENDCHAR
STARTCHAR 043E
ENCODING 1086
SWIDTH 609 0
DWIDTH 22 0
BBX 20 19 1 0
BITMAP
03FC00
0FFF00
1FFF80
3FFFC0
3F0FE0
7E07E0
7C03E0
7C03F0
7C01F0
FC01F0
FC01F0
7C01F0
7C03E0
7E03E0
7F07E0
3FFFC0
1FFF80
0FFF00
03FC00
ENDCHAR
STARTCHAR 043F
ENCODING 1087
SWIDTH 609 0
DWIDTH 22 0
BBX 17 19 2 0
BITMAP
FFFF80
FFFF80
FFFF80
FFFF80
F80F80
F80F80
F80F80
F80F80
F80F80
F80F80
F80F80
F80F80
F80F80
F80F80
F80F80
F80F80
F80F80
F80F80
F80F80
ENDCHAR
STARTCHAR 0440
ENCODING 1088
SWIDTH 609 0
DWIDTH 22 0
BBX 19 26 2 -7
BITMAP
F8FC00
FBFF00
FFFF80
FFFF80
FE0FC0
FC07C0
FC07C0
FC07E0
F803E0
F803E0
F803E0
FC03E0
FC07C0
FC07C0
FE0FC0
FFFF80
FFFF80
FBFF00
F9FC00
F80000
F80000
F80000
F80000
F80000
F80000
F80000
ENDCHAR
STARTCHAR 0441
ENCODING 1089
SWIDTH 553 0
DWIDTH 20 0
BBX 18 19 1 0
BITMAP
03F800
0FFE00
1FFF00
3FFF80
3E0F80
7C07C0
7C0400
7C0000
7C0000
FC0000
7C0000
7C0000
7C0780
7C07C0
7E0FC0
3FFF80
1FFF00
0FFE00
07FC00
ENDCHAR
STARTCHAR 0442
ENCODING 1090
SWIDTH 498 0
DWIDTH 18 0
BBX 17 19 0 0
BITMAP
FFFF80
FFFF80
FFFF80
FFFF80
03E000
03E000
03E000
03E000
03E000
03E000
03E000
03E000
03E000
03E000
03E000
03E000
03E000
03E000
03E000
ENDCHAR
STARTCHAR 0443
ENCODING 1091
SWIDTH 553 0
DWIDTH 20 0
BBX 19 27 0 -8
BITMAP
FC03E0
7C03E0
7C03E0
7E07C0
3E07C0
3E07C0
1F0F80
1F0F80
1F0F00
0F9F00
0F9F00
0F9E00
07FE00
07FE00
03FC00
03FC00
03FC00
01F800
01F800
01F000
01F000
03F000
47E000
3FE000
3FC000
3F8000
0C0000
ENDCHAR
STARTCHAR 0444
ENCODING 1092
SWIDTH 886 0
DWIDTH 32 0
BBX 29 33 1 -7
BITMAP
000F8000
000F8000
000F8000
000F8000
000F8000
000F8000
000F8000
07CF8F80
0FFFBFC0
1FFFFFE0
3FFFFFF0
3E1FE3F0
7E0FC1F8
7C0FC0F8
7C0F80F8
7C0F80F8
FC0F80F8
7C0F80F8
7C0F80F8
7C0FC0F8
7C0FC1F8
7E1FE1F0
3FFFF7F0
3FFFFFE0
1FFFBFC0
0FCF9F80
000F8000
000F8000
000F8000
000F8000
000F8000
000F8000
000F8000
ENDCHAR
STARTCHAR 0445
ENCODING 1093
SWIDTH 553 0
DWIDTH 20 0
BBX 18 19 1 0
BITMAP
FC0FC0
FC0F80
7E1F80
3F3F00
3F7E00
1FFC00
0FFC00
07F800
07F000
03F000
07F800
0FF800
0FFC00
1FFE00
3F3F00
3E3F00
7E1F80
FC0FC0
F80FC0
ENDCHAR
STARTCHAR 0446
ENCODING 1094
SWIDTH 609 0
DWIDTH 22 0
BBX 19 24 2 -5
BITMAP
F80F80
F80F80
F80F80
F80F80
F80F80
F80F80
F80F80
F80F80
F80F80
F80F80
F80F80
F80F80
F80F80
F80F80
F80F80
FFFFE0
FFFFE0
FFFFE0
FFFFE0
0001E0
0001E0
0001E0
0001E0
0001E0
ENDCHAR
STARTCHAR 0447
ENCODING 1095
SWIDTH 581 0
DWIDTH 21 0
BBX 17 19 2 0
BITMAP
F80F80
F80F80
F80F80
F80F80
F80F80
F80F80
F80F80
FC0F80
7E1F80
7FFF80
3FFF80
0FFF80
000F80
000F80
000F80
000F80
000F80
000F80
000F80
ENDCHAR
STARTCHAR 0448
ENCODING 1096
SWIDTH 830 0
DWIDTH 30 0
BBX 26 19 2 0
BITMAP
F81E07C0
F81E07C0
F81E07C0
F81E07C0
F81E07C0
F81E07C0
F81E07C0
F81E07C0
F81E07C0
F81E07C0
F81E07C0
F81E07C0
F81E07C0
F81E07C0
F81E07C0
FFFFFFC0
FFFFFFC0
FFFFFFC0
FFFFFFC0
ENDCHAR
STARTCHAR 0449
ENCODING 1097
SWIDTH 830 0
DWIDTH 30 0
BBX 28 24 2 -5
BITMAP
F81E07C0
F81E07C0
F81E07C0
F81E07C0
F81E07C0
F81E07C0
F81E07C0
F81E07C0
F81E07C0
F81E07C0
F81E07C0
F81E07C0
F81E07C0
F81E07C0
F81E07C0
FFFFFFF0
FFFFFFF0
FFFFFFF0
FFFFFFF0
000000F0
000000F0
000000F0
000000F0
000000F0
ENDCHAR
STARTCHAR 044A
ENCODING 1098
SWIDTH 720 0
DWIDTH 26 0
BBX 24 19 1 0
BITMAP
FFE000
FFE000
FFE000
FFE000
03E000
03E000
03E000
03E000
03FFF0
03FFFC
03FFFE
03E07F
03E01F
03E01F
03E01F
03E03F
03FFFE
03FFFC
03FFF0
ENDCHAR
STARTCHAR 044B
ENCODING 1099
SWIDTH 858 0
DWIDTH 31 0
BBX 25 19 3 0
BITMAP
F8000780
F8000780
F8000780
F8000780
F8000780
F8000780
F8000780
F8000780
FFFC0780
FFFF0780
FFFF8780
F81F8780
F80FC780
F807C780
F80FC780
F81F8780
FFFF8780
FFFF0780
FFFC0780
ENDCHAR
STARTCHAR 044C
ENCODING 1100
SWIDTH 609 0
DWIDTH 22 0
BBX 18 19 3 0
BITMAP
F80000
F80000
F80000
F80000
F80000
F80000
F80000
F80000
FFFC00
FFFF00
FFFF80
F81F80
F80FC0
F807C0
F80FC0
F80F80
FFFF80
FFFF00
FFFC00
ENDCHAR
STARTCHAR 044D
ENCODING 1101
SWIDTH 553 0
DWIDTH 20 0
BBX 18 19 1 0
BITMAP
07F000
1FFC00
3FFE00
7FFF00
7C1F80
180F80
000F80
000F80
01FFC0
01FFC0
01FF80
000F80
000F80
F80F80
FC1F80
7F7F00
7FFE00
3FFE00
0FF800
ENDCHAR
STARTCHAR 044E
ENCODING 1102
SWIDTH 858 0
DWIDTH 31 0
BBX 26 19 3 0
BITMAP
F803F800
F80FFE00
F81FFF00
F83FFF80
F87E0F80
F87C07C0
F87C07C0
F87C07C0
FFF807C0
FFF807C0
FFFC07C0
FFFC07C0
F87C07C0
F87C07C0
F87E0FC0
F83FBF80
F83FFF00
F81FFE00
F807FC00
ENDCHAR
STARTCHAR 044F
ENCODING 1103
SWIDTH 581 0
DWIDTH 21 0
BBX 19 19 0 0
BITMAP
01FFE0
1FFFE0
3FFFE0
3FC3E0
3E03E0
3E03E0
3E03E0
3E03E0
3FFFE0
1FFFE0
07FFE0
07F3E0
0FC3E0
0F83E0
1F03E0
3F03E0
3E03E0
7E03E0
FC03E0
ENDCHAR
STARTCHAR 0451
ENCODING 1105
SWIDTH 553 0
DWIDTH 20 0
BBX 18 26 1 0
BITMAP
1E1E00
1E1E00
1E1E00
1E1E00
000000
000000
000000
07F000
0FFC00
1FFE00
3FFF00
7E1F80
7C0F80
780780
F80780
FFFFC0
FFFFC0
FFFFC0
F80000
F80000
7C0E00
7C0F80
3F1F80
3FFF00
1FFE00
07FC00
ENDCHAR
STARTCHAR 0452
ENCODING 1106
SWIDTH 609 0
DWIDTH 22 0
BBX 20 34 0 -8
BITMAP
1F0000
1F0000
FFFC00
FFFC00
FFFC00
1F0000
1F0000
1F3F00
1F7FC0
1FFFE0
1FFFE0
1F83E0
1F03F0
1F01F0
1F01F0
1F01F0
1F01F0
1F01F0
1F01F0
1F01F0
1F01F0
1F01F0
1F01F0
1F01F0
1F01F0
1F01F0
0001F0
0001F0
0001F0
0013E0
001FE0
001FE0
001FC0
000600
ENDCHAR
STARTCHAR 0453
ENCODING 1107
SWIDTH 415 0
DWIDTH 15 0
BBX 13 26 2 0
BITMAP
07C0
0F80
0F00
1E00
1C00
0000
0000
FFF8
FFF8
FFF8
FFF8
F800
F800
F800
F800
F800
F800
F800
F800
F800
F800
F800
F800
F800
F800
F800
ENDCHAR
STARTCHAR 0454
ENCODING 1108
SWIDTH 553 0
DWIDTH 20 0
BBX 18 19 1 0
BITMAP
03F800
0FFE00
1FFF00
3FFF80
7E0F80
7C0600
7C0000
7C0000
FFE000
FFE000
FFE000
7C0000
7C0000
7C07C0
7E0FC0
3FBF80
3FFF00
1FFE00
07FC00
ENDCHAR
STARTCHAR 0455
ENCODING 1109
SWIDTH 553 0
DWIDTH 20 0
BBX 17 19 1 0
BITMAP
0FF800
3FFE00
3FFF00
7E7F00
781F80
780800
7E0000
7FE000
7FFC00
3FFF00
0FFF80
01FF80
001F80
780F80
FC0F80
7E1F80
7FFF00
3FFE00
0FFC00
ENDCHAR
STARTCHAR 0456
ENCODING 1110
SWIDTH 276 0
DWIDTH 10 0
BBX 5 26 3 0
BITMAP
F8
F8
F8
F8
F8
00
00
F8
F8
F8
F8
F8
F8
F8
F8
F8
F8
F8
F8
F8
F8
F8
F8
F8
F8
F8
ENDCHAR
STARTCHAR 0457
ENCODING 1111
SWIDTH 276 0
DWIDTH 10 0
BBX 12 26 -1 0
BITMAP
F0F0
F0F0
F0F0
F0F0
0000
0000
0000
0F80
0F80
0F80
0F80
0F80
0F80
0F80
0F80
0F80
0F80
0F80
0F80
0F80
0F80
0F80
0F80
0F80
0F80
0F80
ENDCHAR
STARTCHAR 0458
ENCODING 1112
SWIDTH 276 0
DWIDTH 10 0
BBX 9 34 -2 -8
BITMAP
0F80
0F80
0F80
0F80
0F80
0000
0000
0F80
0F80
0F80
0F80
0F80
0F80
0F80
0F80
0F80
0F80
0F80
0F80
0F80
0F80
0F80
0F80
0F80
0F80
0F80
0F80
0F80
0F80
7F80
7F80
7F00
FF00
3800
ENDCHAR
STARTCHAR 0459
ENCODING 1113
SWIDTH 969 0
DWIDTH 35 0
BBX 34 19 0 0
BITMAP
0FFFF80000
0FFFF80000
0FFFF80000
0FFFF80000
0F80F80000
0F80F80000
0F80F80000
0F80F80000
0F80FFFC00
0F80FFFF00
0F80FFFF80
0F80F81F80
0F80F80FC0
0F80F807C0
0F80F80FC0
FF80F81F80
FF00FFFF80
FF00FFFF00
FE00FFFC00
ENDCHAR
STARTCHAR 045A
ENCODING 1114
SWIDTH 913 0
DWIDTH 33 0
BBX 29 19 2 0
BITMAP
F81F0000
F81F0000
F81F0000
F81F0000
F81F0000
F81F0000
F81F0000
FFFFFF80
FFFFFFE0
FFFFFFF0
FFFFFFF8
F81F03F8
F81F00F8
F81F00F8
F81F00F8
F81F01F8
F81FFFF0
F81FFFF0
F81FFFC0
ENDCHAR
STARTCHAR 045B
ENCODING 1115
SWIDTH 609 0
DWIDTH 22 0
BBX 20 26 0 0
BITMAP
1F0000
1F0000
FFFC00
FFFC00
FFFC00
1F0000
1F0000
1F3F00
1F7FC0
1FFFE0
1FFFE0
1F83E0
1F03F0
1F01F0
1F01F0
1F01F0
1F01F0
1F01F0
1F01F0
1F01F0
1F01F0
1F01F0
1F01F0
1F01F0
1F01F0
1F01F0
ENDCHAR
STARTCHAR 045C
ENCODING 1116
SWIDTH 498 0
DWIDTH 18 0
BBX 16 26 2 0
BITMAP
01F0
03E0
03C0
0780
0700
0000
0000
F81E
F83E
F87E
F87E
F8F0
F8F0
F8F0
F9E0
FFC0
FF80
FFE0
F9F0
F8F8
F8F8
F87C
F87C
F83E
F83E
F81F
ENDCHAR
STARTCHAR 045D
ENCODING 1117
SWIDTH 609 0
DWIDTH 22 0
BBX 18 26 2 0
BITMAP
0F8000
07C000
03C000
01E000
00E000
000000
000000
F807C0
F80FC0
F81FC0
F81FC0
F83FC0
F87FC0
F87FC0
F8FFC0
F8F7C0
F9E7C0
FBE7C0
FBC7C0
FF87C0
FF87C0
FF07C0
FE07C0
FE07C0
FC07C0
FC07C0
ENDCHAR
STARTCHAR 045E
ENCODING 1118
SWIDTH 553 0
DWIDTH 20 0
BBX 19 34 0 -8
BITMAP
060600
070E00
07FE00
03FC00
00F000
000000
000000
FC03E0
7C03E0
7C03E0
7E07C0
3E07C0
3E07C0
1F0F80
1F0F80
1F0F00
0F9F00
0F9F00
0F9E00
07FE00
07FE00
03FC00
03FC00
03FC00
01F800
01F800
01F000
01F000
03F000
47E000
3FE000
3FC000
3F8000
0C0000
ENDCHAR
STARTCHAR 045F
ENCODING 1119
SWIDTH 609 0
DWIDTH 22 0
BBX 17 24 2 -5
BITMAP
F80F80
F80F80
F80F80
F80F80
F80F80
F80F80
F80F80
F80F80
F80F80
F80F80
F80F80
F80F80
F80F80
F80F80
F80F80
FFFF80
FFFF80
FFFF80
FFFF80
01E000
01E000
01E000
01E000
01E000
ENDCHAR
STARTCHAR 0490
ENCODING 1168
SWIDTH 498 0
DWIDTH 18 0
BBX 14 31 3 0
BITMAP
007C
007C
007C
007C
007C
FFFC
FFFC
FFFC
FFFC
FFFC
F800
F800
F800
F800
F800
F800
F800
F800
F800
F800
F800
F800
F800
F800
F800
F800
F800
F800
F800
F800
F800
ENDCHAR
STARTCHAR 0491
ENCODING 1169
SWIDTH 443 0
DWIDTH 16 0
BBX 13 24 2 0
BITMAP
0078
0078
0078
0078
0078
FFF8
FFF8
FFF8
FFF8
F800
F800
F800
F800
F800
F800
F800
F800
F800
F800
F800
F800
F800
F800
F800
ENDCHAR
STARTCHAR 0492
ENCODING 1170
SWIDTH 553 0
DWIDTH 20 0
BBX 20 26 0 0
BITMAP
1FFFF0
1FFFF0
1FFFF0
1FFFF0
1F0000
1F0000
1F0000
1F0000
1F0000
1F0000
1F0000
FFF800
FFF800
FFF800
FFF800
1F0000
1F0000
1F0000
1F0000
1F0000
1F0000
1F0000
1F0000
1F0000
1F0000
1F0000
ENDCHAR
STARTCHAR 0493
ENCODING 1171
SWIDTH 415 0
DWIDTH 15 0
BBX 15 19 0 0
BITMAP
3FFE
3FFE
3FFE
3FFE
3E00
3E00
3E00
3E00
FFE0
FFE0
FFE0
3E00
3E00
3E00
3E00
3E00
3E00
3E00
3E00
ENDCHAR
STARTCHAR 0496
ENCODING 1174
SWIDTH 913 0
DWIDTH 33 0
BBX 31 32 1 -6
BITMAP
F807C03E
FC07C0FE
FE07C0FE
FF07C1FE
1F07C3F0
0F87C3E0
0F87C3C0
0787C7C0
07C7C780
03C7CF80
03E7CF80
01FFFF00
00FFFE00
01FFFF00
03FFFF80
07E7CFC0
0FC7CFC0
0FC7C7E0
1F87C3F0
1F87C3F0
3F07C1F8
3F07C1F8
7E07C1FE
7E07C0FE
FC07C0FE
FC07C07E
0000001E
0000001E
0000001E
0000001E
0000001E
0000001E
ENDCHAR
STARTCHAR 0497
ENCODING 1175
SWIDTH 720 0
DWIDTH 26 0
BBX 26 24 0 -5
BITMAP
783E0780
7C3E0F80
7E3E1F80
7E3E3F80
0F3E3C00
0F3E3C00
0F3E7800
07BEF800
03FFF000
01FFE000
07FFF800
0FBE7C00
1F3E7C00
1F3E3E00
3E3E3E00
3E3E1FC0
7C3E1FC0
7C3E0FC0
FC3E0FC0
000003C0
000003C0
000003C0
000003C0
000003C0
ENDCHAR
STARTCHAR 049A
ENCODING 1178
SWIDTH 609 0
DWIDTH 22 0
BBX 19 32 3 -6
BITMAP
F803C0
F80FC0
F81FC0
F83FC0
F83E00
F83C00
F87C00
F87800
F8F800
F8F800
F9F000
FFE000
FFC000
FFF000
FFF800
F9F800
F8FC00
F87E00
F87E00
F83E00
F83F00
F83F00
F81FE0
F81FE0
F80FE0
F80FE0
0003E0
0003E0
0003E0
0003E0
0003E0
0003E0
ENDCHAR
STARTCHAR 049B
ENCODING 1179
SWIDTH 498 0
DWIDTH 18 0
BBX 16 24 2 -5
BITMAP
F81E
F83E
F87E
F87E
F8F0
F8F0
F8F0
F9E0
FFC0
FF80
FFE0
F9F0
F8F8
F8F8
F87C
F87F
F83F
F83F
F81F
000F
000F
000F
000F
000F
ENDCHAR
STARTCHAR 049C
ENCODING 1180
SWIDTH 609 0
DWIDTH 22 0
BBX 18 26 3 0
BITMAP
F803C0
F80FC0
F81FC0
F83FC0
F93E00
F93C00
F97C00
F97800
F9F800
F9F800
F9F000
FFE000
FFC000
FFF000
FFF800
F9F800
F9FC00
F9FE00
F97E00
F93F00
F93F00
F93F00
F81F80
F81F80
F80FC0
F80FC0
ENDCHAR
STARTCHAR 049D
ENCODING 1181
SWIDTH 498 0
DWIDTH 18 0
BBX 16 19 2 0
BITMAP
F81E
F83E
F97E
F97E
F9F0
F9F0
F9F0
F9E0
FFC0
FF80
FFE0
F9F0
F9F8
F9F8
F97C
F97C
F93E
F83E
F81F
ENDCHAR
STARTCHAR 04A2
ENCODING 1186
SWIDTH 720 0
DWIDTH 26 0
BBX 22 32 3 -6
BITMAP
F801F0
F801F0
F801F0
F801F0
F801F0
F801F0
F801F0
F801F0
F801F0
F801F0
FFFFF0
FFFFF0
FFFFF0
FFFFF0
FFFFF0
F801F0
F801F0
F801F0
F801F0
F801F0
F801F0
F801F0
F801FC
F801FC
F801FC
F801FC
00003C
00003C
00003C
00003C
00003C
00003C
ENDCHAR
STARTCHAR 04A3
ENCODING 1187
SWIDTH 609 0
DWIDTH 22 0
BBX 19 24 2 -5
BITMAP
F80F80
F80F80
F80F80
F80F80
F80F80
F80F80
F80F80
FFFF80
FFFF80
FFFF80
FFFF80
F80F80
F80F80
F80F80
F80F80
F80FE0
F80FE0
F80FE0
F80FE0
0001E0
0001E0
0001E0
0001E0
0001E0
ENDCHAR
STARTCHAR 04AE
ENCODING 1198
SWIDTH 553 0
DWIDTH 20 0
BBX 20 26 0 0
BITMAP
FC03F0
7C03E0
7E07E0
3E07C0
3E0FC0
1F0F80
1F1F80
0F9F00
0F9F00
07FE00
07FE00
03FC00
03FC00
01F800
01F800
01F000
01F000
01F000
01F000
01F000
01F000
01F000
01F000
01F000
01F000
01F000
ENDCHAR
STARTCHAR 04AF
ENCODING 1199
SWIDTH 553 0
DWIDTH 20 0
BBX 20 26 0 -7
BITMAP
FC01F0
7C03E0
7C03E0
3E03E0
3E07C0
3E07C0
1F0780
1F0F80
0F0F80
0F9F00
0F9F00
079E00
07FE00
07FE00
03FC00
03FC00
01FC00
01F800
01F800
00F800
00F800
00F800
00F800
00F800
00F800
00F800
ENDCHAR
STARTCHAR 04B0
ENCODING 1200
SWIDTH 553 0
DWIDTH 20 0
BBX 20 26 0 0
BITMAP
FC03F0
7C03E0
7E07E0
3E07C0
3E0FC0
1F0F80
1F1F80
0F9F00
0F9F00
07FE00
07FE00
7FFFE0
7FFFE0
7FFFE0
7FFFE0
01F000
01F000
01F000
01F000
01F000
01F000
01F000
01F000
01F000
01F000
01F000
ENDCHAR
STARTCHAR 04B1
ENCODING 1201
SWIDTH 553 0
DWIDTH 20 0
BBX 20 26 0 -7
BITMAP
FC01F0
7C03E0
7C03E0
3E03E0
3E07C0
3E07C0
1F0780
1F0F80
0F0F80
0F9F00
0F9F00
079E00
07FE00
07FE00
03FC00
03FC00
01FC00
01F800
01F800
3FFFC0
3FFFC0
3FFFC0
00F800
00F800
00F800
00F800
ENDCHAR
STARTCHAR 04B2
ENCODING 1202
SWIDTH 664 0
DWIDTH 24 0
BBX 24 32 0 -6
BITMAP
7E007E
3F00FC
3F00FC
1F81F8
0FC1F0
0FC3F0
07E7E0
03F7E0
03FFC0
01FF80
00FF80
00FF00
007E00
00FF00
00FF00
01FF80
03FFC0
03FFC0
07E7E0
0FC3F0
0FC3F0
1F81F8
3F81FF
3F00FF
7E007F
FE007F
00000F
00000F
00000F
00000F
00000F
00000F
ENDCHAR
STARTCHAR 04B3
ENCODING 1203
SWIDTH 553 0
DWIDTH 20 0
BBX 19 24 1 -5
BITMAP
FC0FC0
FC0F80
7E1F80
3F3F00
3F7E00
1FFC00
0FFC00
07F800
07F000
03F000
07F800
0FFC00
0FFC00
1FFE00
3F3F00
3E3FE0
7E1FE0
FC0FE0
F80FE0
0001E0
0001E0
0001E0
0001E0
0001E0
ENDCHAR
STARTCHAR 04B8
ENCODING 1208
SWIDTH 692 0
DWIDTH 25 0
BBX 21 26 2 0
BITMAP
F801F8
F801F8
F801F8
F801F8
F801F8
F871F8
F871F8
F871F8
F871F8
FC71F8
FC71F8
FC71F8
7F7FF8
7FFFF8
3FFFF8
1FFFF8
07F9F8
0071F8
0071F8
0071F8
0071F8
0071F8
0001F8
0001F8
0001F8
0001F8
ENDCHAR
STARTCHAR 04B9
ENCODING 1209
SWIDTH 581 0
DWIDTH 21 0
BBX 17 19 2 0
BITMAP
F80F80
F80F80
F80F80
F80F80
F98F80
F98F80
F98F80
FD8F80
7F9F80
7FFF80
3FFF80
0FFF80
018F80
018F80
018F80
018F80
000F80
000F80
000F80
ENDCHAR
STARTCHAR 04BA
ENCODING 1210
SWIDTH 692 0
DWIDTH 25 0
BBX 20 26 3 0
BITMAP
F80000
F80000
F80000
F80000
F80000
F80000
F80000
F80000
F80000
F8FC00
FFFF80
FFFFC0
FFFFE0
FFDFF0
FC03F0
F801F0
F801F0
F801F0
F801F0
F801F0
F801F0
F801F0
F801F0
F801F0
F801F0
F801F0
ENDCHAR
STARTCHAR 04BB
ENCODING 1211
SWIDTH 609 0
DWIDTH 22 0
BBX 17 26 3 0
BITMAP
F80000
F80000
F80000
F80000
F80000
F80000
F80000
F9F800
FBFE00
FFFF00
FFFF00
FC1F00
F81F80
F80F80
F80F80
F80F80
F80F80
F80F80
F80F80
F80F80
F80F80
F80F80
F80F80
F80F80
F80F80
F80F80
ENDCHAR
STARTCHAR 04D8
ENCODING 1240
SWIDTH 720 0
DWIDTH 26 0
BBX 23 26 2 0
BITMAP
03FE00
0FFFC0
1FFFE0
3FFFF0
7F87F0
7E01F8
FC00FC
7C00FC
00007C
00007C
00007E
FFFFFE
FFFFFE
FFFFFE
FFFFFE
F8007E
F8007E
FC007C
FC00FC
7E00FC
7E01F8
3F83F8
1FFFF0
1FFFE0
07FFC0
03FF00
ENDCHAR
STARTCHAR 04D9
ENCODING 1241
SWIDTH 553 0
DWIDTH 20 0
BBX 18 19 1 0
BITMAP
07F800
1FFE00
3FFF00
3FFF00
7E1F80
7C0F80
0007C0
0007C0
FFFFC0
FFFFC0
7FFFC0
7807C0
7C07C0
7C0F80
7C0F80
3F3F00
1FFF00
0FFE00
07F800
ENDCHAR
STARTCHAR 04E8
ENCODING 1256
SWIDTH 775 0
DWIDTH 28 0
BBX 25 26 2 0
BITMAP
01FF8000
07FFE000
0FFFF000
1FFFF800
3FC3FC00
7F00FE00
7E007E00
FC003F00
FC003F00
F8001F00
F8001F00
FFFFFF80
FFFFFF80
FFFFFF80
FFFFFF80
F8001F00
F8001F00
FC001F00
FC003F00
7E007E00
7F00FE00
3FC1FC00
1FFFFC00
0FFFF800
07FFE000
01FFC000
ENDCHAR
STARTCHAR 04E9
ENCODING 1257
SWIDTH 609 0
DWIDTH 22 0
BBX 20 19 1 0
BITMAP
03FC00
0FFF00
1FFF80
3FFFC0
3F0FE0
7E07E0
7C03E0
7C03F0
7FFFF0
FFFFF0
FFFFF0
7C03F0
7C03E0
7E03E0
7E07E0
3FFFC0
1FFF80
0FFF00
03FC00
ENDCHAR
STARTCHAR 05B0
ENCODING 1456
SWIDTH 332 0
DWIDTH 12 0
BBX 2 6 5 -8
BITMAP
C0
C0
C0
00
C0
C0
ENDCHAR
STARTCHAR 05B1
ENCODING 1457
SWIDTH 332 0
DWIDTH 12 0
BBX 10 6 1 -8
BITMAP
CCC0
CCC0
CCC0
0000
30C0
30C0
ENDCHAR
STARTCHAR 05B2
ENCODING 1458
SWIDTH 332 0
DWIDTH 12 0
BBX 10 7 1 -8
BITMAP
FDC0
FDC0
00C0
0000
01C0
01C0
0080
ENDCHAR
STARTCHAR 05B3
ENCODING 1459
SWIDTH 332 0
DWIDTH 12 0
BBX 10 7 1 -8
BITMAP
FDC0
FDC0
30C0
3000
31C0
01C0
0080
ENDCHAR
STARTCHAR 05B4
ENCODING 1460
SWIDTH 332 0
DWIDTH 12 0
BBX 2 2 5 -7
BITMAP
C0
C0
ENDCHAR
STARTCHAR 05B5
ENCODING 1461
SWIDTH 332 0
DWIDTH 12 0
BBX 8 2 2 -7
BITMAP
E7
E7
ENDCHAR
STARTCHAR 05B6
ENCODING 1462
SWIDTH 332 0
DWIDTH 12 0
BBX 8 6 2 -8
BITMAP
67
E7
66
00
18
18
ENDCHAR
STARTCHAR 05B7
ENCODING 1463
SWIDTH 332 0
DWIDTH 12 0
BBX 8 2 2 -6
BITMAP
FF
FF
ENDCHAR
STARTCHAR 05B8
ENCODING 1464
SWIDTH 332 0
DWIDTH 12 0
BBX 8 5 2 -8
BITMAP
FF
FF
18
18
18
ENDCHAR
STARTCHAR 05B9
ENCODING 1465
SWIDTH 332 0
DWIDTH 12 0
BBX 2 3 5 21
BITMAP
C0
C0
C0
ENDCHAR
STARTCHAR 05BA
ENCODING 1466
SWIDTH 332 0
DWIDTH 12 0
BBX 2 3 5 21
BITMAP
C0
C0
C0
ENDCHAR
STARTCHAR 05BB
ENCODING 1467
SWIDTH 332 0
DWIDTH 12 0
BBX 12 7 0 -8
BITMAP
6000
E000
6600
0600
0670
0070
0020
ENDCHAR
STARTCHAR 05BC
ENCODING 1468
SWIDTH 332 0
DWIDTH 12 0
BBX 2 2 5 10
BITMAP
C0
C0
ENDCHAR
STARTCHAR 05BD
ENCODING 1469
SWIDTH 332 0
DWIDTH 12 0
BBX 2 7 5 -8
BITMAP
C0
C0
C0
C0
C0
C0
C0
ENDCHAR
STARTCHAR 05BE
ENCODING 1470
SWIDTH 443 0
DWIDTH 16 0
BBX 12 4 2 15
BITMAP
FFF0
FFF0
FFF0
FFF0
ENDCHAR
STARTCHAR 05BF
ENCODING 1471
SWIDTH 332 0
DWIDTH 12 0
BBX 8 2 2 22
BITMAP
FF
FF
ENDCHAR
STARTCHAR 05C0
ENCODING 1472
SWIDTH 304 0
DWIDTH 11 0
BBX 3 26 4 -4
BITMAP
E0
E0
E0
E0
E0
E0
E0
E0
E0
E0
E0
E0
E0
E0
E0
E0
E0
E0
E0
E0
E0
E0
E0
E0
E0
E0
ENDCHAR
STARTCHAR 05C1
ENCODING 1473
SWIDTH 332 0
DWIDTH 12 0
BBX 3 3 14 21
BITMAP
C0
E0
C0
ENDCHAR
STARTCHAR 05C2
ENCODING 1474
SWIDTH 332 0
DWIDTH 12 0
BBX 2 3 -4 21
BITMAP
C0
C0
C0
ENDCHAR
STARTCHAR 05C3
ENCODING 1475
SWIDTH 332 0
DWIDTH 12 0
BBX 5 19 4 0
BITMAP
F8
F8
F8
F8
F8
00
00
00
00
00
00
00
00
00
F8
F8
F8
F8
F8
ENDCHAR
STARTCHAR 05D0
ENCODING 1488
SWIDTH 581 0
DWIDTH 21 0
BBX 18 19 2 0
BITMAP
FC0780
FC0780
7E0780
3F0F80
3F0F80
1F8F80
0FCF00
1FDF00
3FFF00
7FFE00
7DFC00
79F800
F8FC00
F87E00
F83E00
F83F00
F81F80
F00FC0
F00FC0
ENDCHAR
STARTCHAR 05D1
ENCODING 1489
SWIDTH 581 0
DWIDTH 21 0
BBX 19 19 1 0
BITMAP
7FC000
FFF000
FFFC00
FFFC00
81FE00
007E00
003E00
003F00
001F00
001F00
001F00
001F00
001F00
001F00
001F00
FFFFE0
FFFFE0
FFFFE0
FFFFE0
ENDCHAR
STARTCHAR 05D2
ENCODING 1490
SWIDTH 443 0
DWIDTH 16 0
BBX 15 19 0 0
BITMAP
1FC0
1FE0
1FF0
1FF8
01F8
00F8
00F8
00F8
00F8
00F8
00F8
00F8
07FC
0FFC
1FFC
3E7C
7C3E
7C3E
F83E
ENDCHAR
STARTCHAR 05D3
ENCODING 1491
SWIDTH 553 0
DWIDTH 20 0
BBX 18 19 1 0
BITMAP
FFFFC0
FFFFC0
FFFFC0
FFFFC0
FFFFC0
003E00
003E00
003E00
003E00
003E00
003E00
003E00
003E00
003E00
003E00
003E00
003E00
003E00
003E00
ENDCHAR
STARTCHAR 05D4
ENCODING 1492
SWIDTH 609 0
DWIDTH 22 0
BBX 18 19 2 0
BITMAP
7FE000
FFFC00
FFFE00
7FFF00
007F80
001F80
000FC0
0007C0
0007C0
F807C0
F807C0
F807C0
F807C0
F807C0
F807C0
F807C0
F807C0
F807C0
F807C0
ENDCHAR
STARTCHAR 05D5
ENCODING 1493
SWIDTH 276 0
DWIDTH 10 0
BBX 5 19 2 0
BITMAP
F8
F8
F8
F8
F8
F8
F8
F8
F8
F8
F8
F8
F8
F8
F8
F8
F8
F8
F8
ENDCHAR
STARTCHAR 05D6
ENCODING 1494
SWIDTH 415 0
DWIDTH 15 0
BBX 12 19 2 0
BITMAP
FFF0
FFF0
FFF0
FFF0
FF80
0F00
1E00
1E00
1E00
1E00
1E00
1E00
1E00
1E00
1E00
1F00
1F00
1F00
1F00
ENDCHAR
STARTCHAR 05D7
ENCODING 1495
SWIDTH 609 0
DWIDTH 22 0
BBX 18 19 2 0
BITMAP
3FF000
FFFE00
FFFF00
FFFF80
F83F80
F80FC0
F80FC0
F807C0
F807C0
F807C0
F807C0
F807C0
F807C0
F807C0
F807C0
F807C0
F807C0
F807C0
F807C0
ENDCHAR
STARTCHAR 05D8
ENCODING 1496
SWIDTH 636 0
DWIDTH 23 0
BBX 19 19 2 0
BITMAP
F83F00
F87F80
F8FF80
F8FFC0
F8E7C0
F807C0
F803E0
F803E0
F803E0
F803E0
F803E0
F803C0
7C07C0
7C07C0
7E0FC0
3FFF80
3FFF00
0FFE00
07FC00
ENDCHAR
STARTCHAR 05D9
ENCODING 1497
SWIDTH 276 0
DWIDTH 10 0
BBX 5 11 2 8
BITMAP
F8
F8
F8
F8
F8
F8
F8
F8
F8
F8
F8
ENDCHAR
STARTCHAR 05DA
ENCODING 1498
SWIDTH 526 0
DWIDTH 19 0
BBX 16 26 1 -7
BITMAP
7FC0
FFF0
FFF8
FFFC
81FE
007E
003E
003F
001F
001F
001F
001F
001F
001F
001F
001F
001F
001F
001F
001F
001F
001F
001F
001F
001F
001F
ENDCHAR
STARTCHAR 05DB
ENCODING 1499
SWIDTH 498 0
DWIDTH 18 0
BBX 15 19 1 0
BITMAP
7F80
FFE0
7FF0
7FF8
01FC
007E
007E
003E
003E
003E
003E
003E
003E
007E
00FC
7FFC
7FF8
7FE0
FFC0
ENDCHAR
STARTCHAR 05DC
ENCODING 1500
SWIDTH 498 0
DWIDTH 18 0
BBX 15 26 1 0
BITMAP
F800
F800
F800
F800
F800
F800
F800
FFFE
FFFE
FFFE
FFFE
FFFE
003E
003E
003E
003E
003E
007C
00FC
00F8
01F0
01F0
01F0
01F0
01F0
01F0
ENDCHAR
STARTCHAR 05DD
ENCODING 1501
SWIDTH 609 0
DWIDTH 22 0
BBX 18 19 2 0
BITMAP
3FF000
FFFE00
FFFF00
FFFF80
F83F80
F80FC0
F80FC0
F807C0
F807C0
F807C0
F807C0
F807C0
F807C0
F807C0
F807C0
FFFFC0
FFFFC0
FFFFC0
FFFFC0
ENDCHAR
STARTCHAR 05DE
ENCODING 1502
SWIDTH 636 0
DWIDTH 23 0
BBX 20 19 1 0
BITMAP
F83E00
F8FF80
79FF80
7BFFC0
7FEFE0
3FC3E0
3F83E0
3F83E0
1F03E0
1F01F0
1F01F0
1E01F0
3E01F0
3E01F0
3E01F0
3E3FF0
7E3FF0
7C3FF0
7C3FF0
ENDCHAR
STARTCHAR 05DF
ENCODING 1503
SWIDTH 276 0
DWIDTH 10 0
BBX 5 26 2 -7
BITMAP
F8
F8
F8
F8
F8
F8
F8
F8
F8
F8
F8
F8
F8
F8
F8
F8
F8
F8
F8
F8
F8
F8
F8
F8
F8
F8
ENDCHAR
STARTCHAR 05E0
ENCODING 1504
SWIDTH 387 0
DWIDTH 14 0
BBX 11 19 1 0
BITMAP
FE00
FF80
7FC0
7FC0
0FC0
07E0
03E0
03E0
03E0
03E0
03E0
03E0
03E0
03E0
03E0
7FE0
7FE0
7FE0
7FE0
ENDCHAR
STARTCHAR 05E1
ENCODING 1505
SWIDTH 609 0
DWIDTH 22 0
BBX 20 19 1 0
BITMAP
03FC00
0FFF00
1FFF80
3FFFC0
3F0FC0
7E07E0
7C03E0
7C03F0
FC01F0
FC01F0
FC01F0
7C03F0
7C03E0
7E03E0
7E07E0
3FFFC0
1FFF80
0FFF00
03FC00
ENDCHAR
STARTCHAR 05E2
ENCODING 1506
SWIDTH 553 0
DWIDTH 20 0
BBX 18 22 0 -3
BITMAP
3E07C0
3E07C0
3E07C0
3E07C0
1F07C0
1F07C0
1F07C0
1F07C0
1F0780
0F0780
0F8780
0F8F80
0F8F80
0F8F80
079F00
07FF00
07FE00
3FFC00
FFF000
FFC000
7E0000
400000
ENDCHAR
STARTCHAR 05E3
ENCODING 1507
SWIDTH 581 0
DWIDTH 21 0
BBX 17 26 2 -7
BITMAP
7FE000
FFFC00
FFFE00
FFFF00
F03F80
F01F80
F00F80
F00F80
F80F80
F80F80
FE0F80
7F0F80
3F0F80
0C0F80
000F80
000F80
000F80
000F80
000F80
000F80
000F80
000F80
000F80
000F80
000F80
000F80
ENDCHAR
STARTCHAR 05E4
ENCODING 1508
SWIDTH 581 0
DWIDTH 21 0
BBX 18 19 2 0
BITMAP
3FE000
FFF800
FFFE00
F8FF00
F81F80
F80F80
F80F80
F80FC0
7F07C0
7F07C0
3F07C0
0F0FC0
000F80
001F80
003F00
60FF00
FFFE00
FFF800
7FE000
ENDCHAR
STARTCHAR 05E5
ENCODING 1509
SWIDTH 498 0
DWIDTH 18 0
BBX 17 26 0 -7
BITMAP
FC0F80
7C0F00
7E0F00
3E1F00
3F1F00
1F1F00
1F9F00
0F9F00
0FFE00
07FE00
07FC00
03F800
03E000
03E000
03E000
03E000
03E000
03E000
03E000
03E000
03E000
03E000
03E000
03E000
03E000
03E000
ENDCHAR
STARTCHAR 05E6
ENCODING 1510
SWIDTH 498 0
DWIDTH 18 0
BBX 17 19 0 0
BITMAP
FC0F80
7C0F80
3E0F80
3F0F80
1F0F00
0F8F00
0FDF00
07FF00
03FE00
03FC00
01F800
01F800
00F800
007C00
007E00
7FFE00
7FFF00
7FFF00
7FFF00
ENDCHAR
STARTCHAR 05E7
ENCODING 1511
SWIDTH 581 0
DWIDTH 21 0
BBX 17 26 2 -7
BITMAP
FFFF80
FFFF80
FFFF80
FFFF80
FFFF80
000F80
000F80
000F80
000F80
F81F00
F81F00
F83E00
F87E00
F87C00
F87C00
F87C00
F87C00
F87C00
F87C00
F80000
F80000
F80000
F80000
F80000
F80000
F80000
ENDCHAR
STARTCHAR 05E8
ENCODING 1512
SWIDTH 526 0
DWIDTH 19 0
BBX 16 19 1 0
BITMAP
7FC0
FFF0
FFFC
FFFC
81FE
007E
003E
003F
001F
001F
001F
001F
001F
001F
001F
001F
001F
001F
001F
ENDCHAR
STARTCHAR 05E9
ENCODING 1513
SWIDTH 720 0
DWIDTH 26 0
BBX 22 20 2 -1
BITMAP
F8783C
F8787C
F8F87C
F8F87C
F8F87C
F8F87C
F8F87C
F8F87C
F9F87C
FFF07C
FFE078
FF80F8
7800F8
7C01F8
7E01F0
3F8FF0
1FFFE0
0FFF80
03FF00
002000
ENDCHAR
STARTCHAR 05EA
ENCODING 1514
SWIDTH 664 0
DWIDTH 24 0
BBX 21 19 1 0
BITMAP
3FFE00
FFFFC0
FFFFE0
FFFFF0
0F87F0
0F81F8
0F80F8
0F80F8
0F80F8
0F80F8
0F80F8
0F80F8
0F80F8
0F80F8
0F80F8
DF80F8
FF80F8
FF00F8
FE00F8
ENDCHAR
STARTCHAR 05F0
ENCODING 1520
SWIDTH 553 0
DWIDTH 20 0
BBX 15 19 2 0
BITMAP
F83E
F83E
F83E
F83E
F83E
F83E
F83E
F83E
F83E
F83E
F83E
F83E
F83E
F83E
F83E
F83E
F83E
F83E
F83E
ENDCHAR
STARTCHAR 05F1
ENCODING 1521
SWIDTH 553 0
DWIDTH 20 0
BBX 15 19 2 0
BITMAP
F83E
F83E
F83E
F83E
F83E
F83E
F83E
F83E
F83E
F83E
F83E
003E
003E
003E
003E
003E
003E
003E
003E
ENDCHAR
STARTCHAR 05F2
ENCODING 1522
SWIDTH 553 0
DWIDTH 20 0
BBX 15 11 2 8
BITMAP
F83E
F83E
F83E
F83E
F83E
F83E
F83E
F83E
F83E
F83E
F83E
ENDCHAR
STARTCHAR 05F3
ENCODING 1523
SWIDTH 276 0
DWIDTH 10 0
BBX 8 8 1 11
BITMAP
3F
3E
3E
3C
78
78
70
F0
ENDCHAR
STARTCHAR 05F4
ENCODING 1524
SWIDTH 498 0
DWIDTH 18 0
BBX 16 8 1 11
BITMAP
3F1F
3E3E
3E3E
3C3C
787C
7878
7078
F070
ENDCHAR
STARTCHAR 060C
ENCODING 1548
SWIDTH 332 0
DWIDTH 12 0
BBX 6 11 3 5
BITMAP
10
30
60
40
C0
C0
F8
FC
FC
7C
38
ENDCHAR
STARTCHAR 061B
ENCODING 1563
SWIDTH 332 0
DWIDTH 12 0
BBX 6 17 3 5
BITMAP
10
30
60
40
C0
C0
F0
F8
FC
78
78
00
00
30
78
78
30
ENDCHAR
STARTCHAR 061F
ENCODING 1567
SWIDTH 360 0
DWIDTH 13 0
BBX 11 21 1 5
BITMAP
0600
3F80
70C0
70E0
F1E0
F3E0
FBC0
F800
7C00
3C00
1C00
0C00
0400
0400
0400
0000
0000
0E00
1F00
1E00
0E00
ENDCHAR
STARTCHAR 0621
ENCODING 1569
SWIDTH 470 0
DWIDTH 17 0
BBX 13 16 2 2
BITMAP
0F80
1FC0
3FC0
3FC0
7380
7000
F838
FCF8
7FF0
7FF0
3FC0
1F00
3C00
7000
6000
6000
ENDCHAR
STARTCHAR 0622
ENCODING 1570
SWIDTH 249 0
DWIDTH 9 0
BBX 8 26 0 4
BITMAP
70
BF
00
00
08
18
18
18
38
1C
1C
1C
1C
1C
1C
0C
0C
0C
0E
0E
0C
0C
0C
0C
08
08
ENDCHAR
STARTCHAR 0623
ENCODING 1571
SWIDTH 221 0
DWIDTH 8 0
BBX 5 27 2 5
BITMAP
70
80
F0
E0
20
20
60
60
60
E0
70
70
70
70
70
70
30
30
38
38
38
38
30
30
30
20
20
ENDCHAR
STARTCHAR 0624
ENCODING 1572
SWIDTH 443 0
DWIDTH 16 0
BBX 16 27 0 -3
BITMAP
0180
0380
0600
0380
0600
0000
0000
001E
003E
003F
007F
0077
0063
0073
007F
007F
007F
003F
0003
0007
000F
C01E
707E
3FFC
0FF8
07F0
0080
ENDCHAR
STARTCHAR 0625
ENCODING 1573
SWIDTH 221 0
DWIDTH 8 0
BBX 5 29 2 -2
BITMAP
20
60
60
60
E0
70
70
70
70
70
70
30
30
30
38
38
30
30
30
30
20
20
00
00
30
70
C0
70
C0
ENDCHAR
STARTCHAR 0626
ENCODING 1574
SWIDTH 636 0
DWIDTH 23 0
BBX 18 22 3 -2
BITMAP
100000
300000
400000
780100
600780
000FC0
001FC0
003FC0
103880
206000
606000
407F80
C07F80
C07F80
801F80
800180
C00F00
C03F00
FFFE00
FFFC00
7FF000
3F8000
ENDCHAR
STARTCHAR 0627
ENCODING 1575
SWIDTH 221 0
DWIDTH 8 0
BBX 5 22 2 5
BITMAP
20
60
60
60
E0
70
70
70
70
70
70
30
30
30
38
38
30
30
30
30
20
20
ENDCHAR
STARTCHAR 0628
ENCODING 1576
SWIDTH 636 0
DWIDTH 23 0
BBX 22 20 1 -3
BITMAP
200008
200008
60000C
40001C
C0001C
C0000C
E0000C
F00004
FFFFFC
FFFFFC
7FFFFC
3FFFFC
0FFFFC
000000
001000
001C00
003E00
003E00
003E00
000C00
ENDCHAR
STARTCHAR 0629
ENCODING 1577
SWIDTH 332 0
DWIDTH 12 0
BBX 10 22 1 6
BITMAP
0700
6780
7F00
FF00
F000
3000
0000
0000
1000
1C00
1E00
3F00
3F80
3FC0
27C0
63C0
61C0
67C0
7FC0
7F80
7F00
7E00
ENDCHAR
STARTCHAR 062A
ENCODING 1578
SWIDTH 636 0
DWIDTH 23 0
BBX 22 18 1 6
BITMAP
000E00
004F00
00FE00
00FE00
01E000
206008
200008
60000C
40001C
C0001C
C0000C
E0000C
F00004
FFFFFC
FFFFFC
7FFFFC
3FFFFC
0FFFFC
ENDCHAR
STARTCHAR 062B
ENCODING 1579
SWIDTH 636 0
DWIDTH 23 0
BBX 22 23 1 5
BITMAP
004000
007000
00F800
00F000
007000
000E00
004F00
00FE00
00FE00
01E000
206008
200008
60001C
40001C
C0001C
C0000C
E0000C
F00004
FFFFFC
7FFFFC
7FFFFC
3FFFFC
0FFFFC
ENDCHAR
STARTCHAR 062C
ENCODING 1580
SWIDTH 581 0
DWIDTH 21 0
BBX 19 26 1 -7
BITMAP
0FFE00
3FFF80
7FFF80
7FFF80
FFFF00
C7F800
0F8000
1E0000
3C0000
300000
700000
606000
607800
E0F800
C1F800
E07000
E01000
E00000
F00000
780000
7E0000
7FF8E0
3FFFE0
1FFF80
0FFE00
03FC00
ENDCHAR
STARTCHAR 062D
ENCODING 1581
SWIDTH 581 0
DWIDTH 21 0
BBX 19 26 1 -7
BITMAP
0FFE00
3FFF80
7FFF80
7FFF80
FFFF00
C7F800
0F8000
1E0000
3C0000
300000
700000
600000
600000
E00000
C00000
E00000
E00000
E00000
F00000
780000
7E0000
7FF8E0
3FFFE0
1FFF80
0FFE00
03FC00
ENDCHAR
STARTCHAR 062E
ENCODING 1582
SWIDTH 581 0
DWIDTH 21 0
BBX 19 34 1 -7
BITMAP
010000
01C000
03E000
03E000
03C000
00C000
000000
000000
0FFE00
3FFF80
7FFF80
7FFF80
FFFF00
C7F800
0F8000
1E0000
3C0000
300000
700000
600000
600000
E00000
C00000
E00000
E00000
E00000
F00000
780000
7E0000
7FF8E0
3FFFE0
1FFF80
0FFE00
03FC00
ENDCHAR
STARTCHAR 062F
ENCODING 1583
SWIDTH 332 0
DWIDTH 12 0
BBX 10 17 2 5
BITMAP
0200
0300
0380
0780
0780
07C0
03C0
01C0
00C0
00C0
00C0
8040
FFC0
FFC0
FFC0
FFC0
7FC0
ENDCHAR
STARTCHAR 0630
ENCODING 1584
SWIDTH 332 0
DWIDTH 12 0
BBX 10 25 2 6
BITMAP
1800
3E00
3E00
7C00
1C00
0000
0000
0000
0200
0300
0380
0780
0780
07C0
03C0
01C0
00C0
00C0
00C0
8040
FFC0
FFC0
FFC0
FFC0
7FC0
ENDCHAR
STARTCHAR 0631
ENCODING 1585
SWIDTH 443 0
DWIDTH 16 0
BBX 16 19 0 -2
BITMAP
0004
0006
000E
000E
000F
0007
0003
0003
0003
0003
0007
000F
001E
003E
C0FC
7FF8
1FF0
07E0
0180
ENDCHAR
STARTCHAR 0632
ENCODING 1586
SWIDTH 443 0
DWIDTH 16 0
BBX 16 28 0 -3
BITMAP
0030
0038
007E
007C
0038
0018
0000
0000
0000
0004
0006
000E
000E
000F
0007
0003
0003
0003
0003
0007
000F
001E
003E
C0FC
7FF8
1FF0
07E0
0180
ENDCHAR
STARTCHAR 0633
ENCODING 1587
SWIDTH 886 0
DWIDTH 32 0
BBX 31 18 1 -1
BITMAP
00008002
0000C026
0800C066
1801C066
1001E046
3000E0F6
6000FFFE
60007FFE
40007FFE
C0007FFE
C0007F0E
E000E000
F001C000
FC07C000
7FFFC000
7FFF8000
3FFF0000
0FFC0000
ENDCHAR
STARTCHAR 0634
ENCODING 1588
SWIDTH 886 0
DWIDTH 32 0
BBX 31 30 1 -2
BITMAP
00000100
000001C0
000003C0
000003C0
00000190
00000038
0000033C
000003F8
000007B8
00000380
00000100
00000000
00008002
0000C026
0800C066
1801C066
1001E046
3000E0F6
6000FFFE
60007FFE
40007FFE
C0007FFE
C0007F0E
E000E000
F001C000
FC07C000
7FFFC000
7FFF8000
3FFF0000
0FFC0000
ENDCHAR
STARTCHAR 0635
ENCODING 1589
SWIDTH 1052 0
DWIDTH 38 0
BBX 37 20 1 -2
BITMAP
00000001E0
00000007F0
0000800FF8
0000C03FF8
0800C07FF8
1801C1F018
1001C3E018
3000E78038
6000FFFFF8
60007FFFF8
40007FFFF8
C0007FFFF8
C0007FFFF8
E000E00000
F001C00000
FC07C00000
7FFFC00000
7FFF800000
3FFF000000
0FFC000000
ENDCHAR
STARTCHAR 0636
ENCODING 1590
SWIDTH 1052 0
DWIDTH 38 0
BBX 37 28 1 -2
BITMAP
000000C000
000001F000
000001F000
000003E000
000000E000
0000004000
0000000000
0000000000
00000001E0
00000007F0
0000800FF8
0000C03FF8
0800C07FF8
1801C1F018
1001C3E018
3000E78038
6000FFFFF8
60007FFFF8
40007FFFF8
C0007FFFF8
C0007FFFF8
E000E00000
F001C00000
FC07C00000
7FFFC00000
7FFF800000
3FFF000000
0FFC000000
ENDCHAR
STARTCHAR 0637
ENCODING 1591
SWIDTH 526 0
DWIDTH 19 0
BBX 20 24 -1 5
BITMAP
040000
060000
0F8000
0FC000
0F8000
078000
078000
070000
070000
030000
030000
0387C0
039FE0
03BFF0
03FFF0
03FFF0
03E070
078070
1F00F0
FFFFF0
FFFFF0
FFFFF0
FFFFF0
FFFFF0
ENDCHAR
STARTCHAR 0638
ENCODING 1592
SWIDTH 526 0
DWIDTH 19 0
BBX 20 24 -1 5
BITMAP
040000
060000
0F8000
0FC600
0F8F00
078F80
079F00
070F00
070200
030000
030000
0387C0
039FE0
03BFF0
03FFF0
03FFF0
03E070
078070
1F00F0
FFFFF0
FFFFF0
FFFFF0
FFFFF0
FFFFF0
ENDCHAR
STARTCHAR 0639
ENCODING 1593
SWIDTH 553 0
DWIDTH 20 0
BBX 18 28 1 -7
BITMAP
0FE000
1FF800
3FFC00
3C0000
700000
700000
780E00
7C7E00
7FFC00
3FFC00
3FF000
1F8000
3E0000
380000
700000
600000
C00000
C00000
C00000
C00000
E00000
F00000
F80000
FFE000
7FFFC0
3FFF00
1FFE00
0FF800
ENDCHAR
STARTCHAR 063A
ENCODING 1594
SWIDTH 553 0
DWIDTH 20 0
BBX 18 37 1 -7
BITMAP
040000
070000
0FC000
0F8000
0F0000
030000
000000
000000
000000
0FE000
1FF800
3FFC00
3C0000
700000
700000
780E00
7C7E00
7FFC00
3FFC00
3FF000
1F8000
3E0000
380000
700000
600000
C00000
C00000
C00000
C00000
E00000
F00000
F80000
FFE000
7FFFC0
3FFF00
1FFE00
0FF800
ENDCHAR
STARTCHAR 0640
ENCODING 1600
SWIDTH 193 0
DWIDTH 7 0
BBX 8 5 -1 5
BITMAP
FF
FF
FF
FF
FF
ENDCHAR
STARTCHAR 0641
ENCODING 1601
SWIDTH 747 0
DWIDTH 27 0
BBX 26 23 1 5
BITMAP
00000400
00000F00
00001F80
00001F00
00000F00
00000200
00000000
00000000
00000300
00000F80
20000FC0
60001FC0
40003FC0
400039C0
C00039C0
C0003FC0
C0003FC0
E0003FC0
FFFFFFC0
FFFFFFC0
FFFFFFC0
7FFFFFC0
3FFFFFC0
ENDCHAR
STARTCHAR 0642
ENCODING 1602
SWIDTH 609 0
DWIDTH 22 0
BBX 21 29 1 -5
BITMAP
000040
0000E0
0004F0
000FF0
000FE0
000E20
000200
0000C0
0001E0
0003F0
0003F0
0007F8
000678
100638
3007F8
2007F8
6007F8
4007F8
C001F8
C00008
C00008
C00018
E00038
F800F8
FFFFF0
7FFFF0
7FFFC0
1FFF80
00F800
ENDCHAR
STARTCHAR 0643
ENCODING 1603
SWIDTH 553 0
DWIDTH 20 0
BBX 19 23 1 5
BITMAP
000100
000300
000380
0037C0
0067C0
0067C0
00C3C0
00C180
00F180
01F180
00F180
203180
6071C0
47E0C0
C700C0
C000C0
C000C0
E000C0
FFFFE0
FFFFE0
FFFFE0
7FFFE0
1FFFE0
ENDCHAR
STARTCHAR 0644
ENCODING 1604
SWIDTH 443 0
DWIDTH 16 0
BBX 15 28 1 0
BITMAP
0018
001C
003E
003E
003E
001C
0018
001C
000C
000C
000C
000C
000E
100E
3006
6006
4006
C006
C006
C006
C006
C00E
E01E
FFFE
FFFC
FFF8
7FF0
3FC0
ENDCHAR
STARTCHAR 0645
ENCODING 1605
SWIDTH 360 0
DWIDTH 13 0
BBX 12 22 1 -7
BITMAP
0F00
1F80
1FC0
3FE0
23F0
01F0
1FF0
7FF0
7FF0
FFF0
F000
C000
C000
C000
C000
6000
6000
6000
6000
2000
2000
2000
ENDCHAR
STARTCHAR 0646
ENCODING 1606
SWIDTH 553 0
DWIDTH 20 0
BBX 19 24 1 -2
BITMAP
00C000
00F000
01F800
01F000
00E000
002080
000080
0000C0
0801C0
1801C0
3001C0
3000E0
6000E0
6000E0
400060
C00060
C00060
E000E0
F001C0
FC07C0
7FFFC0
7FFF80
3FFF00
0FFC00
ENDCHAR
STARTCHAR 0647
ENCODING 1607
SWIDTH 332 0
DWIDTH 12 0
BBX 9 14 2 5
BITMAP
2000
3800
3C00
7E00
7F00
7F80
4F80
C780
C380
CF80
FF80
FF00
FE00
FC00
ENDCHAR
STARTCHAR 0648
ENCODING 1608
SWIDTH 443 0
DWIDTH 16 0
BBX 16 20 0 -3
BITMAP
001E
003E
003F
007F
0077
0063
0073
007F
007F
007F
003F
0003
0007
000F
C01E
707E
3FFC
0FF8
07F0
0080
ENDCHAR
STARTCHAR 0649
ENCODING 1609
SWIDTH 636 0
DWIDTH 23 0
BBX 18 19 3 -2
BITMAP
000100
000780
000FC0
001FC0
003FC0
103880
206000
606000
407F80
C07F80
C07F80
801F80
800180
C00F00
C03F00
FFFE00
FFFC00
7FF000
3F8000
ENDCHAR
STARTCHAR 064A
ENCODING 1610
SWIDTH 636 0
DWIDTH 23 0
BBX 18 24 3 -7
BITMAP
000100
000780
000FC0
001FC0
003FC0
103880
206000
606000
407F80
C07F80
C07F80
801F80
800180
C00F00
C03F00
FFFE00
FFFC00
7FF000
3F8000
002000
023800
03F800
079000
010000
ENDCHAR
STARTCHAR 064B
ENCODING 1611
SWIDTH 193 0
DWIDTH 7 0
BBX 6 6 1 25
BITMAP
04
18
60
8C
38
C0
ENDCHAR
STARTCHAR 064C
ENCODING 1612
SWIDTH 249 0
DWIDTH 9 0
BBX 8 6 1 25
BITMAP
07
0A
6E
A6
2A
30
ENDCHAR
STARTCHAR 064D
ENCODING 1613
SWIDTH 193 0
DWIDTH 7 0
BBX 6 6 1 -5
BITMAP
0C
30
C4
1C
60
80
ENDCHAR
STARTCHAR 064E
ENCODING 1614
SWIDTH 193 0
DWIDTH 7 0
BBX 6 3 1 25
BITMAP
0C
38
C0
ENDCHAR
STARTCHAR 064F
ENCODING 1615
SWIDTH 221 0
DWIDTH 8 0
BBX 6 7 2 25
BITMAP
18
28
38
38
1C
20
C0
ENDCHAR
STARTCHAR 0650
ENCODING 1616
SWIDTH 193 0
DWIDTH 7 0
BBX 6 3 1 -2
BITMAP
0C
30
C0
ENDCHAR
STARTCHAR 0651
ENCODING 1617
SWIDTH 221 0
DWIDTH 8 0
BBX 7 5 1 25
BITMAP
02
12
9E
FC
E0
ENDCHAR
STARTCHAR 0652
ENCODING 1618
SWIDTH 166 0
DWIDTH 6 0
BBX 5 5 1 25
BITMAP
70
58
88
D8
F0
ENDCHAR
STARTCHAR 0653
ENCODING 1619
SWIDTH 249 0
DWIDTH 9 0
BBX 8 2 0 28
BITMAP
70
BF
ENDCHAR
STARTCHAR 0654
ENCODING 1620
SWIDTH 221 0
DWIDTH 8 0
BBX 4 5 2 27
BITMAP
30
50
C0
70
80
ENDCHAR
STARTCHAR 0655
ENCODING 1621
SWIDTH 221 0
DWIDTH 8 0
BBX 4 5 2 -4
BITMAP
30
70
C0
70
C0
ENDCHAR
STARTCHAR 0660
ENCODING 1632
SWIDTH 553 0
DWIDTH 20 0
BBX 6 8 7 8
BITMAP
60
70
78
FC
FC
F8
78
18
ENDCHAR
STARTCHAR 0661
ENCODING 1633
SWIDTH 553 0
DWIDTH 20 0
BBX 7 21 6 5
BITMAP
20
20
70
78
F8
F8
7C
7C
3C
1E
1E
0E
0E
0E
06
06
06
06
06
04
04
ENDCHAR
STARTCHAR 0662
ENCODING 1634
SWIDTH 553 0
DWIDTH 20 0
BBX 10 21 5 5
BITMAP
4040
4040
E0C0
FFC0
FFC0
FFC0
7FC0
7F80
3F00
3C00
1C00
1E00
0E00
0E00
0E00
0600
0600
0600
0600
0200
0200
ENDCHAR
STARTCHAR 0663
ENCODING 1635
SWIDTH 553 0
DWIDTH 20 0
BBX 14 21 3 5
BITMAP
4004
40C4
60CC
F9FC
FFFC
FFFC
FFFC
7FF8
3F70
3C00
1C00
1C00
1C00
0C00
0C00
0C00
0C00
0C00
0C00
0C00
0800
ENDCHAR
STARTCHAR 0664
ENCODING 1636
SWIDTH 553 0
DWIDTH 20 0
BBX 9 20 5 6
BITMAP
0200
0600
0E00
1E00
3800
7000
7C00
FF00
FF00
7E00
1C00
0800
1800
3800
3F00
7F80
7F80
7F80
3F80
0300
ENDCHAR
STARTCHAR 0665
ENCODING 1637
SWIDTH 553 0
DWIDTH 20 0
BBX 12 15 4 8
BITMAP
0700
0F80
1FE0
3FE0
3FF0
37F0
60F0
6070
6030
FFF0
FFE0
FFE0
FFC0
7F80
1C00
ENDCHAR
STARTCHAR 0666
ENCODING 1638
SWIDTH 553 0
DWIDTH 20 0
BBX 11 20 4 5
BITMAP
8000
8000
FF80
FF00
FF00
FF00
FF00
1100
0100
0100
0180
0180
01C0
01C0
01E0
01E0
01E0
01E0
00E0
0060
ENDCHAR
STARTCHAR 0667
ENCODING 1639
SWIDTH 553 0
DWIDTH 20 0
BBX 13 21 3 5
BITMAP
8000
C008
C018
E018
F038
F038
F838
F870
7870
3C60
1CE0
1CC0
0EC0
0E80
0780
0780
0380
0380
0300
0300
0100
ENDCHAR
STARTCHAR 0668
ENCODING 1640
SWIDTH 553 0
DWIDTH 20 0
BBX 14 20 3 5
BITMAP
0200
0300
0700
0700
0700
0780
0580
0DC0
0DC0
0CE0
18E0
18F0
3878
787C
F07C
F03C
F03C
E01C
E00C
C00C
ENDCHAR
STARTCHAR 0669
ENCODING 1641
SWIDTH 553 0
DWIDTH 20 0
BBX 11 20 4 5
BITMAP
0E00
1F00
3F80
7F80
7F80
6380
E180
FF80
FF80
FF80
7F80
3F80
0180
01C0
01E0
01E0
01E0
00E0
00E0
0040
ENDCHAR
STARTCHAR 066A
ENCODING 1642
SWIDTH 526 0
DWIDTH 19 0
BBX 14 25 2 3
BITMAP
380C
7C0C
7C18
7818
0030
0030
0060
0060
00C0
00C0
0180
0180
0300
0300
0600
0600
0C00
0C00
1800
1800
3010
303C
607C
607C
C038
ENDCHAR
STARTCHAR 066B
ENCODING 1643
SWIDTH 332 0
DWIDTH 12 0
BBX 4 9 4 1
BITMAP
60
F0
F0
F0
F0
30
60
C0
80
ENDCHAR
STARTCHAR 066C
ENCODING 1644
SWIDTH 332 0
DWIDTH 12 0
BBX 6 11 3 5
BITMAP
10
30
60
40
C0
C0
F8
FC
FC
7C
38
ENDCHAR
STARTCHAR 066D
ENCODING 1645
SWIDTH 526 0
DWIDTH 19 0
BBX 12 12 3 15
BITMAP
0600
0600
36E0
3EE0
1B80
E670
FDF0
0F00
1BC0
36E0
3660
0600
ENDCHAR
STARTCHAR 066E
ENCODING 1646
SWIDTH 636 0
DWIDTH 23 0
BBX 22 13 1 5
BITMAP
200008
200008
60000C
40001C
C0001C
C0000C
E0000C
F00004
FFFFFC
FFFFFC
7FFFFC
3FFFFC
0FFFFC
ENDCHAR
STARTCHAR 066F
ENCODING 1647
SWIDTH 609 0
DWIDTH 22 0
BBX 21 22 1 -5
BITMAP
0000C0
0001E0
0003F0
0003F0
0007F8
000678
100638
3007F8
2007F8
6007F8
4007F8
C001F8
C00008
C00008
C00018
E00038
F800F8
FFFFF0
7FFFF0
7FFFC0
1FFF80
00F800
ENDCHAR
STARTCHAR 0670
ENCODING 1648
SWIDTH 0 0
DWIDTH 0 0
BBX 2 10 -1 20
BITMAP
80
80
C0
C0
40
40
40
40
40
40
ENDCHAR
STARTCHAR 0671
ENCODING 1649
SWIDTH 221 0
DWIDTH 8 0
BBX 8 28 0 4
BITMAP
0E
13
26
FE
80
00
08
18
18
18
38
1C
1C
1C
1C
1C
1C
0C
0C
0C
0E
0E
0C
0C
0C
0C
08
08
ENDCHAR
STARTCHAR 0672
ENCODING 1650
SWIDTH 221 0
DWIDTH 8 0
BBX 7 28 0 4
BITMAP
1C
20
30
1C
E0
00
08
18
18
18
38
1C
1C
1C
1C
1C
1C
0C
0C
0C
0E
0E
0C
0C
0C
0C
08
08
ENDCHAR
STARTCHAR 0673
ENCODING 1651
SWIDTH 221 0
DWIDTH 8 0
BBX 6 29 1 -2
BITMAP
10
30
30
30
70
38
38
38
38
38
38
18
18
18
1C
1C
18
18
18
18
10
10
00
00
18
20
20
1C
E0
ENDCHAR
STARTCHAR 0674
ENCODING 1652
SWIDTH 221 0
DWIDTH 8 0
BBX 4 5 2 27
BITMAP
30
50
C0
70
80
ENDCHAR
STARTCHAR 0675
ENCODING 1653
SWIDTH 221 0
DWIDTH 8 0
BBX 8 23 2 4
BITMAP
03
27
64
67
6C
E0
70
70
70
70
70
70
30
30
30
38
38
30
30
30
30
20
20
ENDCHAR
STARTCHAR 0676
ENCODING 1654
SWIDTH 443 0
DWIDTH 16 0
BBX 18 28 0 -3
BITMAP
000180
000280
000200
0003C0
000600
000000
000000
000000
001E00
003E00
003F00
007F00
007700
006300
007300
007F00
007F00
007F00
003F00
000300
000700
000F00
C01E00
707E00
3FFC00
0FF800
07F000
008000
ENDCHAR
STARTCHAR 0677
ENCODING 1655
SWIDTH 443 0
DWIDTH 16 0
BBX 18 29 0 -3
BITMAP
007000
00B180
00D280
006200
0073C0
00C600
018000
020000
000000
001E00
003E00
003F00
007F00
007700
006300
007300
007F00
007F00
007F00
003F00
000300
000700
000F00
C01E00
707E00
3FFC00
0FF800
07F000
008000
ENDCHAR
STARTCHAR 0678
ENCODING 1656
SWIDTH 636 0
DWIDTH 23 0
BBX 20 27 3 -2
BITMAP
000070
0000A0
0000C0
000070
000080
000000
000000
000000
000100
000780
000FC0
001FC0
003FC0
103880
206000
606000
407F80
C07F80
C07F80
801F80
800180
C00F00
C03F00
FFFE00
FFFC00
7FF000
3F8000
ENDCHAR
STARTCHAR 0679
ENCODING 1657
SWIDTH 636 0
DWIDTH 23 0
BBX 22 25 1 5
BITMAP
004000
00E000
006000
004000
006000
006600
003F00
003B00
00E100
03FF00
03FF00
000000
200008
200008
60000C
40001C
C0001C
C0000C
E0000C
F00004
FFFFFC
FFFFFC
7FFFFC
3FFFFC
0FFFFC
ENDCHAR
STARTCHAR 067A
ENCODING 1658
SWIDTH 636 0
DWIDTH 23 0
BBX 22 22 1 6
BITMAP
00E000
00F000
01F000
00E000
003000
001C00
003C00
003C00
001800
200008
200008
60000C
40001C
C0001C
C0000C
E0000C
F00004
FFFFFC
FFFFFC
7FFFFC
3FFFFC
0FFFFC
ENDCHAR
STARTCHAR 067B
ENCODING 1659
SWIDTH 636 0
DWIDTH 23 0
BBX 22 24 1 -6
BITMAP
200008
200008
60000C
40001C
C0001C
C0000C
E0000C
F00004
FFFFFC
FFFFFC
7FFFFC
3FFFFC
0FFFFC
000000
001000
003800
003C00
007800
003800
000400
000F00
000F00
001E00
000600
ENDCHAR
STARTCHAR 067C
ENCODING 1660
SWIDTH 636 0
DWIDTH 23 0
BBX 22 22 1 2
BITMAP
000E00
004F00
00FE00
00FE00
01E000
206008
200008
60000C
40001C
C0001C
C0000C
E0000C
F00004
FFFFFC
FFFFFC
7FFFFC
3FFFFC
0FFFFC
004400
004400
003C00
003800
ENDCHAR
STARTCHAR 067D
ENCODING 1661
SWIDTH 636 0
DWIDTH 23 0
BBX 22 23 1 5
BITMAP
000800
000C00
00DE00
01FE00
01EC00
01C000
00D800
001E00
003C00
003C00
200808
200008
60000C
40001C
C0001C
C0000C
E0000C
F00004
FFFFFC
FFFFFC
7FFFFC
3FFFFC
0FFFFC
ENDCHAR
STARTCHAR 067E
ENCODING 1662
SWIDTH 636 0
DWIDTH 23 0
BBX 22 25 1 -7
BITMAP
200008
200008
60000C
40001C
C0001C
C0000C
E0000C
F00004
FFFFFC
FFFFFC
7FFFFC
3FFFFC
0FFFFC
000000
000400
000F00
006F00
00FF00
00F600
00E000
002C00
001F00
001E00
001E00
000400
ENDCHAR
STARTCHAR 067F
ENCODING 1663
SWIDTH 636 0
DWIDTH 23 0
BBX 22 23 1 5
BITMAP
001800
013C00
03FC00
03F800
078C00
018600
006F80
007F00
00F600
00F000
202008
200008
60000C
40001C
C0001C
C0000C
E0000C
F00004
FFFFFC
FFFFFC
7FFFFC
3FFFFC
0FFFFC
ENDCHAR
STARTCHAR 0680
ENCODING 1664
SWIDTH 636 0
DWIDTH 23 0
BBX 22 25 1 -8
BITMAP
200008
200008
60000C
40001C
C0001C
C0000C
E0000C
F00004
FFFFFC
FFFFFC
7FFFFC
3FFFFC
0FFFFC
000000
000800
001E00
00DE00
01FE00
01EC00
01C300
0063C0
003F80
007F80
007900
003000
ENDCHAR
STARTCHAR 0681
ENCODING 1665
SWIDTH 581 0
DWIDTH 21 0
BBX 19 33 1 -7
BITMAP
007000
008000
00E000
007000
008000
000000
000000
0FFE00
3FFF80
7FFF80
7FFF80
FFFF00
C7F800
0F8000
1E0000
3C0000
300000
700000
600000
600000
E00000
C00000
E00000
E00000
E00000
F00000
780000
7E0000
7FF8E0
3FFFE0
1FFF80
0FFE00
03FC00
ENDCHAR
STARTCHAR 0682
ENCODING 1666
SWIDTH 581 0
DWIDTH 21 0
BBX 19 38 1 -7
BITMAP
020000
038000
07C000
078000
038000
004000
00F000
00F000
01E000
006000
000000
000000
0FFE00
3FFF80
7FFF80
7FFF80
FFFF00
C7F800
0F8000
1E0000
3C0000
300000
700000
600000
600000
E00000
C00000
E00000
E00000
E00000
F00000
780000
7E0000
7FF8E0
3FFFE0
1FFF80
0FFE00
03FC00
ENDCHAR
STARTCHAR 0683
ENCODING 1667
SWIDTH 581 0
DWIDTH 21 0
BBX 19 26 1 -7
BITMAP
0FFE00
3FFF80
7FFF80
7FFF80
FFFF00
C7F800
0F8000
1E0000
3C0000
300000
700800
609E00
61DE00
E1FC00
C3CC00
E1C000
E00000
E00000
F00000
780000
7E0000
7FF8E0
3FFFE0
1FFF80
0FFE00
03FC00
ENDCHAR
STARTCHAR 0684
ENCODING 1668
SWIDTH 581 0
DWIDTH 21 0
BBX 19 26 1 -7
BITMAP
0FFE00
3FFF80
7FFF80
7FFF80
FFFF00
C7F800
0F8000
1E0000
3C0000
300000
70E000
60F000
61E000
E0E000
C01000
E03C00
E03C00
E07800
F01800
780000
7E0000
7FF8E0
3FFFE0
1FFF80
0FFE00
03FC00
ENDCHAR
STARTCHAR 0685
ENCODING 1669
SWIDTH 581 0
DWIDTH 21 0
BBX 19 38 1 -6
BITMAP
01C000
01E000
03C000
01C000
001800
013C00
03FC00
03F800
03C800
018000
000000
000000
0FFE00
3FFF80
7FFF80
7FFF80
FFFF00
C7F800
0F8000
1E0000
3C0000
300000
700000
600000
600000
E00000
C00000
E00000
E00000
E00000
F00000
780000
7E0000
7FF8E0
3FFFE0
1FFF80
0FFE00
03FC00
ENDCHAR
STARTCHAR 0686
ENCODING 1670
SWIDTH 581 0
DWIDTH 21 0
BBX 19 26 1 -7
BITMAP
0FFE00
3FFF80
7FFF80
7FFF80
FFFF00
C7F800
0F8000
1E0000
3C0000
301800
713E00
61FC00
63FC00
E3C800
C1A000
E03800
E03C00
E07800
F03800
780000
7E0000
7FF8E0
3FFFE0
1FFF80
0FFE00
03FC00
ENDCHAR
STARTCHAR 0687
ENCODING 1671
SWIDTH 581 0
DWIDTH 21 0
BBX 19 26 1 -7
BITMAP
0FFE00
3FFF80
7FFF80
7FFF80
FFFF00
C7F800
0F8000
1E0000
3C1000
301C00
71BC00
63FC00
63D800
E3C600
C0A780
E07F80
E07F00
E0F300
F07000
780000
7E0000
7FF8E0
3FFFE0
1FFF80
0FFE00
03FC00
ENDCHAR
STARTCHAR 0688
ENCODING 1672
SWIDTH 332 0
DWIDTH 12 0
BBX 11 27 1 5
BITMAP
1000
3800
1800
1000
1000
1980
0FC0
0EC0
3840
FFC0
FFC0
0000
0100
0180
01C0
03C0
03E0
03E0
00E0
0060
0060
4020
7FE0
7FE0
7FE0
7FE0
3FE0
ENDCHAR
STARTCHAR 0689
ENCODING 1673
SWIDTH 332 0
DWIDTH 12 0
BBX 10 21 2 1
BITMAP
0200
0300
0380
0780
0780
07C0
03C0
01C0
00C0
00C0
00C0
8040
FFC0
FFC0
FFC0
FFC0
7FC0
1300
1100
1E00
0C00
ENDCHAR
STARTCHAR 068A
ENCODING 1674
SWIDTH 332 0
DWIDTH 12 0
BBX 10 24 2 -2
BITMAP
0200
0300
0380
0780
0780
07C0
03C0
01C0
00C0
00C0
00C0
8040
FFC0
FFC0
FFC0
FFC0
7FC0
0000
0800
0E00
1F00
1F00
1E00
0600
ENDCHAR
STARTCHAR 068B
ENCODING 1675
SWIDTH 332 0
DWIDTH 12 0
BBX 11 34 1 -2
BITMAP
1000
3800
1800
1000
1000
1980
0FC0
0EC0
3840
FFC0
FFC0
0000
0100
0180
01C0
03C0
03E0
03E0
00E0
0060
0060
4020
7FE0
7FE0
7FE0
7FE0
3FE0
0000
0400
0700
0F80
0F80
0F00
0300
ENDCHAR
STARTCHAR 068C
ENCODING 1676
SWIDTH 332 0
DWIDTH 12 0
BBX 10 25 2 6
BITMAP
0700
6780
7F00
F700
F000
2000
0000
0000
0200
0300
0380
0780
0780
07C0
03C0
01C0
00C0
00C0
00C0
8040
FFC0
FFC0
FFC0
FFC0
7FC0
ENDCHAR
STARTCHAR 068D
ENCODING 1677
SWIDTH 332 0
DWIDTH 12 0
BBX 10 25 2 -3
BITMAP
0200
0300
0380
0780
0780
07C0
03C0
01C0
00C0
00C0
00C0
8040
FFC0
FFC0
FFC0
FFC0
7FC0
0000
0000
0380
3BC0
3F80
7B80
3800
1000
ENDCHAR
STARTCHAR 068E
ENCODING 1678
SWIDTH 332 0
DWIDTH 12 0
BBX 10 27 2 5
BITMAP
3000
3C00
7800
7800
1200
0780
7780
7F00
FB00
7000
1000
0000
0200
0300
0380
0780
07C0
07C0
01C0
00C0
00C0
8040
FFC0
FFC0
FFC0
FFC0
7FC0
ENDCHAR
STARTCHAR 068F
ENCODING 1679
SWIDTH 332 0
DWIDTH 12 0
BBX 11 27 1 5
BITMAP
0600
0780
7F80
7F00
F200
7000
0E00
0F00
0F00
0E00
0200
0000
0100
0180
01C0
03C0
03E0
03E0
00E0
0060
0060
4020
7FE0
7FE0
7FE0
7FE0
3FE0
ENDCHAR
STARTCHAR 0690
ENCODING 1680
SWIDTH 332 0
DWIDTH 12 0
BBX 11 27 1 5
BITMAP
0600
4700
7F00
FF00
F200
6180
29E0
1FC0
1FC0
3C00
0C00
0000
0100
0180
01C0
03C0
03E0
03E0
00E0
0060
0060
4020
7FE0
7FE0
7FE0
7FE0
3FE0
ENDCHAR
STARTCHAR 0691
ENCODING 1681
SWIDTH 443 0
DWIDTH 16 0
BBX 16 33 0 -3
BITMAP
0080
01C0
00C0
0080
00C0
00CC
007E
0076
01C2
07FE
07FE
0000
0000
0000
0004
0006
000E
000E
000F
0007
0003
0003
0003
0003
0007
000F
001E
003E
C0FC
7FF8
1FF0
07E0
0180
ENDCHAR
STARTCHAR 0692
ENCODING 1682
SWIDTH 443 0
DWIDTH 16 0
BBX 16 26 0 -3
BITMAP
0066
0036
003C
0018
0000
0000
0000
0004
0006
000E
000E
000F
0007
0003
0003
0003
0003
0007
000F
001E
003E
C0FC
7FF8
1FF0
07E0
0180
ENDCHAR
STARTCHAR 0693
ENCODING 1683
SWIDTH 443 0
DWIDTH 16 0
BBX 17 20 0 -3
BITMAP
000400
000600
000E00
000E00
000F00
000700
000300
000300
000300
000300
000700
000F00
001E00
003E00
C0FF00
7FFF00
1FF980
07E900
018F00
000400
ENDCHAR
STARTCHAR 0694
ENCODING 1684
SWIDTH 443 0
DWIDTH 16 0
BBX 18 22 0 -6
BITMAP
000400
000600
000E00
000E00
000F00
000700
000300
000300
000300
000300
000700
000F00
001E00
003E00
C0FC00
7FF800
1FF000
07E300
0187C0
000FC0
000F80
000380
ENDCHAR
STARTCHAR 0695
ENCODING 1685
SWIDTH 443 0
DWIDTH 16 0
BBX 18 23 0 -6
BITMAP
000400
000600
000E00
000E00
000F00
000700
000300
000300
000300
000300
000700
000F00
001E00
003E00
C0FC00
7FF800
1FF000
07E000
018000
000CC0
000D80
000700
000700
ENDCHAR
STARTCHAR 0696
ENCODING 1686
SWIDTH 443 0
DWIDTH 16 0
BBX 18 22 0 -6
BITMAP
000400
000600
000E00
000E00
000F00
010700
018300
03E300
03E300
07E300
01C700
000F00
001E00
003E00
C0FC00
7FF800
1FF000
07E300
0187C0
000FC0
000F80
000380
ENDCHAR
STARTCHAR 0697
ENCODING 1687
SWIDTH 443 0
DWIDTH 16 0
BBX 16 28 0 -3
BITMAP
000C
004F
00FF
00FE
01E6
00E0
0000
0000
0000
0004
0006
000E
000E
000F
0007
0003
0003
0003
0003
0007
000F
001E
003E
C0FC
7FF8
1FF0
07E0
0180
ENDCHAR
STARTCHAR 0698
ENCODING 1688
SWIDTH 443 0
DWIDTH 16 0
BBX 16 32 0 -3
BITMAP
0060
00F8
00F0
00F0
0024
000F
00FF
00FE
01E6
00E0
0000
0000
0000
0004
0006
000E
000E
000F
0007
0003
0003
0003
0003
0007
000F
001E
003E
C0FC
7FF8
1FF0
07E0
0180
ENDCHAR
STARTCHAR 0699
ENCODING 1689
SWIDTH 443 0
DWIDTH 16 0
BBX 16 33 0 -3
BITMAP
0020
0038
03F8
07F8
07B0
038C
014F
00FF
00FE
01E6
00E0
0000
0000
0000
0004
0006
000E
000E
000F
0007
0003
0003
0003
0003
0007
000F
001E
003E
C0FC
7FF8
1FF0
07E0
0180
ENDCHAR
STARTCHAR 069A
ENCODING 1690
SWIDTH 886 0
DWIDTH 32 0
BBX 31 25 1 -2
BITMAP
00000400
00000700
00000F80
00000F80
00000F00
00000300
00000000
00008002
0000C026
0800C066
1801C066
1001E046
3000E0F6
6000FFFE
60007FFE
40007FFE
C0007FFE
C0007F0E
E000E000
F001C080
FC07C1E0
7FFFC1F0
7FFF83F0
3FFF01E0
0FFC0040
ENDCHAR
STARTCHAR 069B
ENCODING 1691
SWIDTH 886 0
DWIDTH 32 0
BBX 31 23 1 -6
BITMAP
00008002
0000C026
0800C066
1801C066
1001E046
3000E0F6
6000FFFE
60007FFE
40007FFE
C0007FFE
C0007F0E
E000E000
F001C020
FC07C038
7FFFC378
7FFF87F8
3FFF07B0
0FFC0700
00000160
00000078
000000F0
000000F0
00000020
ENDCHAR
STARTCHAR 069C
ENCODING 1692
SWIDTH 886 0
DWIDTH 32 0
BBX 31 35 1 -7
BITMAP
00000100
000001C0
000003C0
000003C0
00000190
00000038
0000033C
000003F8
000007B8
00000380
00000100
00000000
00008002
0000C026
0800C066
1801C066
1001E046
3000E0F6
6000FFFE
60007FFE
40007FFE
C0007FFE
C0007F0E
E000E000
F001C020
FC07C038
7FFFC378
7FFF87F8
3FFF07B0
0FFC0700
00000160
00000078
000000F0
000000F0
00000020
ENDCHAR
STARTCHAR 069D
ENCODING 1693
SWIDTH 1052 0
DWIDTH 38 0
BBX 37 21 1 -3
BITMAP
00000001E0
00000007F0
0000800FF8
0000C03FF8
0800C07FF8
1801C1F018
1001C3E018
3000E78038
6000FFFFF8
60007FFFF8
40007FFFF8
C0007FFFF8
C0007FFFF8
E000E00000
F001C00200
FC07C00700
7FFFC07780
7FFF807F00
3FFF00FB00
0FFC007000
0000001000
ENDCHAR
STARTCHAR 069E
ENCODING 1694
SWIDTH 1052 0
DWIDTH 38 0
BBX 37 31 1 -1
BITMAP
0000038000
000003C000
000007C000
000003A000
000000B000
0000027C00
000003F800
000007F000
0000079000
0000030000
0000000000
00000001E0
00000007F0
0000800FF8
0000C03FF8
0800C07FF8
1801C1F018
1001C3E018
3000E78038
6000FFFFF8
60007FFFF8
40007FFFF8
C0007FFFF8
C0007FFFF8
E000E00000
F001C00000
FC07C00000
7FFFC00000
7FFF800000
3FFF000000
0FFC000000
ENDCHAR
STARTCHAR 069F
ENCODING 1695
SWIDTH 526 0
DWIDTH 19 0
BBX 20 26 -1 5
BITMAP
000400
000F00
040F00
061F00
0F8680
0FC0E0
0F8DF0
078FE0
079EC0
070E00
070400
030000
030000
0387C0
039FE0
03BFF0
03FFF0
03FFF0
03E070
078070
1F00F0
FFFFF0
FFFFF0
FFFFF0
FFFFF0
FFFFF0
ENDCHAR
STARTCHAR 06A0
ENCODING 1696
SWIDTH 553 0
DWIDTH 20 0
BBX 18 39 1 -7
BITMAP
100000
3C0000
3C0000
780000
1B0000
238000
3F8000
7F8000
7B0000
300000
000000
0FE000
1FF800
3FFC00
3C0000
700000
700000
780E00
7C7E00
7FFC00
3FFC00
3FF000
1F8000
3E0000
380000
700000
600000
C00000
C00000
C00000
C00000
E00000
F00000
F80000
FFE000
7FFFC0
3FFF00
1FFE00
0FF800
ENDCHAR
STARTCHAR 06A1
ENCODING 1697
SWIDTH 747 0
DWIDTH 27 0
BBX 26 15 1 5
BITMAP
00000300
00000F80
20000FC0
60001FC0
40003FC0
400039C0
C00039C0
C0003FC0
C0003FC0
E0003FC0
FFFFFFC0
FFFFFFC0
FFFFFFC0
7FFFFFC0
3FFFFFC0
ENDCHAR
STARTCHAR 06A2
ENCODING 1698
SWIDTH 747 0
DWIDTH 27 0
BBX 26 22 1 -2
BITMAP
00000300
00000F80
20000FC0
60001FC0
40003FC0
400039C0
C00039C0
C0003FC0
C0003FC0
E0003FC0
FFFFFFC0
FFFFFFC0
FFFFFFC0
7FFFFFC0
3FFFFFC0
00000000
00000400
00000E00
00000F80
00001F00
00001F00
00000600
ENDCHAR
STARTCHAR 06A3
ENCODING 1699
SWIDTH 747 0
DWIDTH 27 0
BBX 26 30 1 -2
BITMAP
00000400
00000F00
00001F80
00001F00
00000F00
00000200
00000000
00000000
00000300
00000F80
20000FC0
60001FC0
40003FC0
400039C0
C00039C0
C0003FC0
C0003FC0
E0003FC0
FFFFFFC0
FFFFFFC0
FFFFFFC0
7FFFFFC0
3FFFFFC0
00000000
00040000
00070000
000FC000
000F8000
000F0000
00030000
ENDCHAR
STARTCHAR 06A4
ENCODING 1700
SWIDTH 747 0
DWIDTH 27 0
BBX 26 26 1 5
BITMAP
00003800
00003C00
00007800
00003800
00000300
00002780
00007F80
00007F00
0000F900
00003000
00000000
00000300
00000F80
20000FC0
60001FC0
40003FC0
400039C0
C00039C0
C0003FC0
C0003FC0
E0003FC0
FFFFFFC0
FFFFFFC0
FFFFFFC0
7FFFFFC0
3FFFFFC0
ENDCHAR
STARTCHAR 06A5
ENCODING 1701
SWIDTH 747 0
DWIDTH 27 0
BBX 26 27 1 -7
BITMAP
00000300
00000F80
20000FC0
60001FC0
40003FC0
400039C0
C00039C0
C0003FC0
C0003FC0
E0003FC0
FFFFFFC0
FFFFFFC0
FFFFFFC0
7FFFFFC0
3FFFFFC0
00000000
00000100
000003C0
00001BC0
00003FC0
00003D80
00003800
00000B00
000003C0
00000780
00000780
00000100
ENDCHAR
STARTCHAR 06A6
ENCODING 1702
SWIDTH 747 0
DWIDTH 27 0
BBX 26 27 1 5
BITMAP
00000800
00001C00
0001DE00
0001FC00
0003CC00
0001C300
00002780
00003F80
00007F80
00007900
00003000
00000000
00000300
00000F80
20000FC0
60001FC0
40003FC0
400039C0
C00039C0
C0003FC0
C0003FC0
E0003FC0
FFFFFFC0
FFFFFFC0
FFFFFFC0
7FFFFFC0
3FFFFFC0
ENDCHAR
STARTCHAR 06A7
ENCODING 1703
SWIDTH 609 0
DWIDTH 22 0
BBX 21 30 1 -5
BITMAP
000200
000300
0007C0
000FC0
000F80
000380
000000
000000
0000C0
0001E0
0003F0
0003F0
0007F8
000678
100638
3007F8
2007F8
6007F8
4007F8
C001F8
C00008
C00008
C00018
E00038
F800F8
FFFFF0
7FFFF0
7FFFC0
1FFF80
00F800
ENDCHAR
STARTCHAR 06A8
ENCODING 1704
SWIDTH 609 0
DWIDTH 22 0
BBX 21 33 1 -5
BITMAP
000400
000F00
000F00
001F00
000680
0000E0
000DF0
000FE0
001EC0
001E00
000400
0000C0
0001E0
0003F0
0003F0
0007F8
000678
100638
3007F8
2007F8
6007F8
4007F8
C001F8
C00008
C00008
C00018
E00038
F800F8
FFFFF0
7FFFF0
7FFFC0
1FFF80
00F800
ENDCHAR
STARTCHAR 06A9
ENCODING 1705
SWIDTH 747 0
DWIDTH 27 0
BBX 26 20 1 6
BITMAP
00000380
00000F80
00003F80
00007F80
0000FC00
0000F000
0001F000
0001F800
2000FC00
6000FC00
40007E00
C0000F00
C0000780
C00003C0
E00001C0
FFFFFFC0
FFFFFFC0
FFFFFFC0
7FFFFFC0
1FFFFFC0
ENDCHAR
STARTCHAR 06AA
ENCODING 1706
SWIDTH 747 0
DWIDTH 27 0
BBX 26 19 1 5
BITMAP
00060000
001E0000
007E0000
00FE0000
01FC0000
03E00000
03E00000
03FE0000
03FFF000
41FFFE00
C07FFF00
C00FFF80
C0007FC0
F00003C0
FFFFFFC0
FFFFFFC0
FFFFFFC0
7FFFFFC0
1FFFFFC0
ENDCHAR
STARTCHAR 06AB
ENCODING 1707
SWIDTH 747 0
DWIDTH 27 0
BBX 26 20 1 6
BITMAP
00000380
00000F80
00003F80
00007FC0
0000FEC0
0000F240
0001F3C0
0001FB80
2000FC00
6000FC00
40007E00
C0000F00
C0000780
C00003C0
E00001C0
FFFFFFC0
FFFFFFC0
FFFFFFC0
7FFFFFC0
1FFFFFC0
ENDCHAR
STARTCHAR 06AC
ENCODING 1708
SWIDTH 553 0
DWIDTH 20 0
BBX 19 27 1 5
BITMAP
018000
01E000
03E000
03E000
01C100
004300
000380
0037C0
0067C0
0067C0
00C3C0
00C180
00F180
01F180
00F180
203180
6071C0
47E0C0
C700C0
C000C0
C000C0
E000C0
FFFFE0
FFFFE0
FFFFE0
7FFFE0
1FFFE0
ENDCHAR
STARTCHAR 06AD
ENCODING 1709
SWIDTH 553 0
DWIDTH 20 0
BBX 19 26 1 5
BITMAP
018000
03B000
027000
030100
010300
000380
0037C0
0067C0
0067C0
00C3C0
00C180
00F180
01F180
00F180
203180
6071C0
47E0C0
C700C0
C000C0
C000C0
E000C0
FFFFE0
FFFFE0
FFFFE0
7FFFE0
1FFFE0
ENDCHAR
STARTCHAR 06AE
ENCODING 1710
SWIDTH 553 0
DWIDTH 20 0
BBX 19 35 1 -7
BITMAP
000100
000300
000380
0037C0
0067C0
0067C0
00C3C0
00C180
00F180
01F180
00F180
203180
6071C0
47E0C0
C700C0
C000C0
C000C0
E000C0
FFFFE0
FFFFE0
FFFFE0
7FFFE0
1FFFE0
000000
001000
001C00
01BC00
03FC00
03D800
038000
00B000
003C00
007800
007800
001000
ENDCHAR
STARTCHAR 06AF
ENCODING 1711
SWIDTH 747 0
DWIDTH 27 0
BBX 26 26 1 5
BITMAP
00000180
00000780
00001F80
00003F80
0000FE00
0001F000
0003C380
00030F80
00003F80
00007F80
0000FC00
0000F000
0001F000
0001F800
2000FC00
6000FC00
40007E00
C0000F00
C0000780
C00003C0
E00001C0
FFFFFFC0
FFFFFFC0
FFFFFFC0
7FFFFFC0
1FFFFFC0
ENDCHAR
STARTCHAR 06B0
ENCODING 1712
SWIDTH 747 0
DWIDTH 27 0
BBX 26 26 1 5
BITMAP
00000180
00000780
00001F80
00003F80
0000FE00
0001F000
0003C380
00030F80
00003F80
00007FC0
0000FEC0
0000F240
0001F3C0
0001FB80
2000FC00
6000FC00
40007E00
C0000F00
C0000780
C00003C0
E00001C0
FFFFFFC0
FFFFFFC0
FFFFFFC0
7FFFFFC0
1FFFFFC0
ENDCHAR
STARTCHAR 06B1
ENCODING 1713
SWIDTH 747 0
DWIDTH 27 0
BBX 26 27 1 5
BITMAP
00001800
00013980
0001C780
00019F80
00003F80
0000FE00
0001F000
0003C380
00030F80
00003F80
00007F80
0000FC00
0000F000
0001F000
0001F800
2000FC00
6000FC00
40007E00
C0000F00
C0000780
C00003C0
E00001C0
FFFFFFC0
FFFFFFC0
FFFFFFC0
7FFFFFC0
1FFFFFC0
ENDCHAR
STARTCHAR 06B2
ENCODING 1714
SWIDTH 747 0
DWIDTH 27 0
BBX 26 34 1 -3
BITMAP
00000180
00000780
00001F80
00003F80
0000FE00
0001F000
0003C380
00030F80
00003F80
00007F80
0000FC00
0000F000
0001F000
0001F800
2000FC00
6000FC00
40007E00
C0000F00
C0000780
C00003C0
E00001C0
FFFFFFC0
FFFFFFC0
FFFFFFC0
7FFFFFC0
1FFFFFC0
00000000
00010000
00038000
003BC000
003F8000
007D8000
00380000
00080000
ENDCHAR
STARTCHAR 06B3
ENCODING 1715
SWIDTH 747 0
DWIDTH 27 0
BBX 26 37 1 -6
BITMAP
00000180
00000780
00001F80
00003F80
0000FE00
0001F000
0003C380
00030F80
00003F80
00007F80
0000FC00
0000F000
0001F000
0001F800
2000FC00
6000FC00
40007E00
C0000F00
C0000780
C00003C0
E00001C0
FFFFFFC0
FFFFFFC0
FFFFFFC0
7FFFFFC0
1FFFFFC0
00000000
00100000
001C0000
001E0000
003C0000
001C0000
00020000
00078000
00078000
000F0000
00030000
ENDCHAR
STARTCHAR 06B4
ENCODING 1716
SWIDTH 747 0
DWIDTH 27 0
BBX 26 27 1 5
BITMAP
00018000
0003B180
00023780
00031F80
00003F80
0000FE00
0001F000
0003C380
00030F80
00003F80
00007F80
0000FC00
0000F000
0001F000
0001F800
2000FC00
6000FC00
40007E00
C0000F00
C0000780
C00003C0
E00001C0
FFFFFFC0
FFFFFFC0
FFFFFFC0
7FFFFFC0
1FFFFFC0
ENDCHAR
STARTCHAR 06B5
ENCODING 1717
SWIDTH 443 0
DWIDTH 16 0
BBX 15 33 1 -1
BITMAP
00D8
00D8
0070
0060
0000
0018
001C
003E
003E
003E
001C
0018
001C
000C
000C
000C
000C
000E
100E
3006
6006
4006
C006
C006
C006
C006
C00E
E01E
FFFE
FFFC
FFF8
7FF0
3FC0
ENDCHAR
STARTCHAR 06B6
ENCODING 1718
SWIDTH 443 0
DWIDTH 16 0
BBX 15 33 1 -1
BITMAP
0180
01E0
03E0
03E0
01C0
0058
001C
003E
003E
003E
001C
0018
001C
000C
000C
000C
000C
000E
100E
3006
6006
4006
C006
C006
C006
C006
C00E
E01E
FFFE
FFFC
FFF8
7FF0
3FC0
ENDCHAR
STARTCHAR 06B7
ENCODING 1719
SWIDTH 443 0
DWIDTH 16 0
BBX 15 33 1 -1
BITMAP
0060
00EC
008C
00C0
0000
0018
001C
003E
003E
003E
001C
0018
001C
000C
000C
000C
000C
000E
100E
3006
6006
4006
C006
C006
C006
C006
C00E
E01E
FFFE
FFFC
FFF8
7FF0
3FC0
ENDCHAR
STARTCHAR 06B8
ENCODING 1720
SWIDTH 443 0
DWIDTH 16 0
BBX 15 33 1 -5
BITMAP
0018
001C
003E
003E
003E
001C
0018
001C
000C
000C
000C
000C
000E
100E
3006
6006
4006
C006
C006
C006
C006
C00E
E01E
FFFE
FFFC
FFF8
7FF0
3FC0
0000
0000
00C0
0700
0180
ENDCHAR
STARTCHAR 06B9
ENCODING 1721
SWIDTH 553 0
DWIDTH 20 0
BBX 19 30 1 -8
BITMAP
00C000
00F000
01F800
01F000
00E000
002080
000080
0000C0
0801C0
1801C0
3001C0
3000E0
6000E0
6000E0
400060
C00060
C00060
E000E0
F001C0
FC07C0
7FFFC0
7FFF80
3FFF00
0FFC00
00C000
01F000
01F000
03F000
00E000
002000
ENDCHAR
STARTCHAR 06BA
ENCODING 1722
SWIDTH 553 0
DWIDTH 20 0
BBX 19 19 1 -2
BITMAP
000080
000080
0000C0
0801C0
1801C0
3001C0
3000E0
6000E0
6000E0
400060
C00060
C00060
E000E0
F001C0
FC07C0
7FFFC0
7FFF80
3FFF00
0FFC00
ENDCHAR
STARTCHAR 06BB
ENCODING 1723
SWIDTH 553 0
DWIDTH 20 0
BBX 19 31 1 -2
BITMAP
010000
018000
018000
018000
008000
008000
00BC00
00FC00
01C400
07FC00
07FC00
07FC00
000080
000080
0000C0
0801C0
1801C0
3001C0
3000E0
6000E0
6000E0
400060
C00060
C00060
E000E0
F001C0
FC07C0
7FFFC0
7FFF80
3FFF00
0FFC00
ENDCHAR
STARTCHAR 06BC
ENCODING 1724
SWIDTH 553 0
DWIDTH 20 0
BBX 19 28 1 -6
BITMAP
00C000
00F000
01F800
01F000
00E000
002080
000080
0000C0
0801C0
1801C0
3001C0
3000E0
6000E0
6000E0
400060
C00060
C00060
E000E0
F001C0
FC07C0
7FFFC0
7FFF80
3FFF00
0FFC00
016000
022000
036000
03C000
ENDCHAR
STARTCHAR 06BD
ENCODING 1725
SWIDTH 553 0
DWIDTH 20 0
BBX 19 29 1 -2
BITMAP
010000
01C000
03C000
03C000
018000
003800
033C00
03F800
07B800
078000
010080
000080
0000C0
0801C0
1801C0
3001C0
3000E0
6000E0
6000E0
400060
C00060
C00060
E000E0
F001C0
FC07C0
7FFFC0
7FFF80
3FFF00
0FFC00
ENDCHAR
STARTCHAR 06BE
ENCODING 1726
SWIDTH 470 0
DWIDTH 17 0
BBX 15 18 -1 5
BITMAP
0300
0380
07C0
07E0
03F0
07F0
0FF8
0CFC
0CFC
0CEE
1FCE
1FC6
FFFE
FFFE
FFFE
FCFE
F03E
000C
ENDCHAR
STARTCHAR 06BF
ENCODING 1727
SWIDTH 581 0
DWIDTH 21 0
BBX 19 34 1 -7
BITMAP
010000
01C000
03E000
03E000
03C000
00C000
000000
000000
0FFE00
3FFF80
7FFF80
7FFF80
FFFF00
C7F800
0F8000
1E0000
3C0000
301800
713E00
61FC00
63FC00
E3C800
C1A000
E03800
E03C00
E07800
F03800
780000
7E0000
7FF8E0
3FFFE0
1FFF80
0FFE00
03FC00
ENDCHAR
STARTCHAR 06C0
ENCODING 1728
SWIDTH 332 0
DWIDTH 12 0
BBX 9 20 2 5
BITMAP
1800
2800
6000
3800
4000
0000
2000
3800
3C00
7E00
7F00
7F80
4F80
C780
C380
CF80
FF80
FF00
FE00
FC00
ENDCHAR
STARTCHAR 06C1
ENCODING 1729
SWIDTH 387 0
DWIDTH 14 0
BBX 13 11 1 2
BITMAP
0200
0780
0FC0
1FE0
3FF8
31F8
60F8
6078
C038
8000
8000
ENDCHAR
STARTCHAR 06C2
ENCODING 1730
SWIDTH 387 0
DWIDTH 14 0
BBX 13 19 1 2
BITMAP
0200
0600
0800
0F00
0C00
0000
0000
0000
0200
0780
0FC0
1FE0
3FF8
31F8
60F8
6078
C038
8000
8000
ENDCHAR
STARTCHAR 06C3
ENCODING 1731
SWIDTH 387 0
DWIDTH 14 0
BBX 13 20 1 2
BITMAP
0100
03C0
1BC0
3F80
7D80
3800
0800
0000
0000
0200
0780
0FC0
1FE0
3FF8
31F8
60F8
6078
C038
8000
8000
ENDCHAR
STARTCHAR 06C4
ENCODING 1732
SWIDTH 443 0
DWIDTH 16 0
BBX 16 20 0 -3
BITMAP
001E
003E
003F
007F
0077
0063
0073
007F
007F
007F
003F
0003
01C7
026F
C23E
73FE
3FFC
0FF8
07F0
0080
ENDCHAR
STARTCHAR 06C5
ENCODING 1733
SWIDTH 443 0
DWIDTH 16 0
BBX 16 20 0 -3
BITMAP
001E
003E
003F
007F
0077
0063
0073
007F
007F
007F
003F
0003
07CF
00FF
C01E
707E
3FFC
0FF8
07F0
0080
ENDCHAR
STARTCHAR 06C6
ENCODING 1734
SWIDTH 443 0
DWIDTH 16 0
BBX 16 27 0 -3
BITMAP
0066
003C
003C
0018
0000
0000
0000
001E
003E
003F
007F
0077
0063
0073
007F
007F
007F
003F
0003
0007
000F
C01E
707E
3FFC
0FF8
07F0
0080
ENDCHAR
STARTCHAR 06C7
ENCODING 1735
SWIDTH 443 0
DWIDTH 16 0
BBX 16 31 0 -3
BITMAP
000C
001C
0014
001C
000E
001A
0030
00C0
0000
0000
0000
001E
003E
003F
007F
0077
0063
0073
007F
007F
007F
003F
0003
0007
000F
C01E
707E
3FFC
0FF8
07F0
0080
ENDCHAR
STARTCHAR 06C8
ENCODING 1736
SWIDTH 443 0
DWIDTH 16 0
BBX 16 32 0 -2
BITMAP
0010
0030
0030
0010
0010
0010
0010
0010
0010
0010
0000
0000
001E
003E
003F
007F
0077
0063
0073
007F
007F
007F
003F
0003
0007
000F
C01E
707E
3FFC
0FF8
07F0
0080
ENDCHAR
STARTCHAR 06C9
ENCODING 1737
SWIDTH 443 0
DWIDTH 16 0
BBX 16 27 0 -3
BITMAP
0018
003C
003C
0066
0000
0000
0000
001E
003E
003F
007F
0077
0063
0073
007F
007F
007F
003F
0003
0007
000F
C01E
707E
3FFC
0FF8
07F0
0080
ENDCHAR
STARTCHAR 06CA
ENCODING 1738
SWIDTH 443 0
DWIDTH 16 0
BBX 16 28 0 -3
BITMAP
000C
008F
00FE
01FE
01E4
00C0
0000
0000
001E
003E
003F
007F
0077
0063
0073
007F
007F
007F
003F
0003
0007
000F
C01E
707E
3FFC
0FF8
07F0
0080
ENDCHAR
STARTCHAR 06CB
ENCODING 1739
SWIDTH 443 0
DWIDTH 16 0
BBX 16 32 0 -3
BITMAP
0060
00F0
00F0
00E0
002C
008F
00FE
01FE
01E4
00C0
0000
0000
001E
003E
003F
007F
0077
0063
0073
007F
007F
007F
003F
0003
0007
000F
C01E
707E
3FFC
0FF8
07F0
0080
ENDCHAR
STARTCHAR 06CC
ENCODING 1740
SWIDTH 636 0
DWIDTH 23 0
BBX 18 19 3 -2
BITMAP
000100
000780
000FC0
001FC0
003FC0
103880
206000
606000
407F80
C07F80
C07F80
801F80
800180
C00F00
C03F00
FFFE00
FFFC00
7FF000
3F8000
ENDCHAR
STARTCHAR 06CD
ENCODING 1741
SWIDTH 636 0
DWIDTH 23 0
BBX 20 19 1 -2
BITMAP
000060
0001F0
0003F0
0007F0
000FF0
0C0E20
381800
D81800
101FE0
101FE0
301FE0
2007E0
200060
3003C0
300FC0
3FFF80
3FFF00
1FFC00
0FE000
ENDCHAR
STARTCHAR 06CE
ENCODING 1742
SWIDTH 636 0
DWIDTH 23 0
BBX 18 21 3 -2
BITMAP
198000
0D8000
0F0100
070780
000FC0
001FC0
003FC0
103880
206000
606000
407F80
C07F80
C07F80
801F80
800180
C00F00
C03F00
FFFE00
FFFC00
7FF000
3F8000
ENDCHAR
STARTCHAR 06CF
ENCODING 1743
SWIDTH 443 0
DWIDTH 16 0
BBX 16 29 0 -3
BITMAP
0020
0078
00FC
00F8
0078
0010
0000
0000
0000
001E
003E
003F
007F
0077
0063
0073
007F
007F
007F
003F
0003
0007
000F
C01E
707E
3FFC
0FF8
07F0
0080
ENDCHAR
STARTCHAR 06D0
ENCODING 1744
SWIDTH 636 0
DWIDTH 23 0
BBX 18 24 3 -7
BITMAP
000100
000780
000FC0
001FC0
003FC0
103880
206000
606000
407F80
C07F80
C07F80
801F80
800180
C00F00
C03F00
FFFE00
FFFC00
7FF000
3F8000
000000
010000
030000
018000
010000
ENDCHAR
STARTCHAR 06D1
ENCODING 1745
SWIDTH 636 0
DWIDTH 23 0
BBX 18 23 3 -6
BITMAP
000100
000780
000FC0
001FC0
003FC0
103880
206000
606000
407F80
C07F80
C07F80
801F80
800180
C00F00
C03F00
FFFE00
FFFC00
7FF000
3F8000
000000
00C000
060000
018000
ENDCHAR
STARTCHAR 06D2
ENCODING 1746
SWIDTH 803 0
DWIDTH 29 0
BBX 28 18 1 -1
BITMAP
000C0000
001E0000
003E0000
003E0000
007E0000
01E20000
07C20000
1FC00000
3F800000
7F000000
7C000000
70000000
60000000
7FFFFFF0
FFFFFFE0
FFFFFFC0
FFFFFF80
7FFFFF00
ENDCHAR
STARTCHAR 06D3
ENCODING 1747
SWIDTH 803 0
DWIDTH 29 0
BBX 28 22 1 0
BITMAP
01800000
02000000
03C00000
03800000
000C0000
001E0000
003E0000
003E0000
007E0000
01E20000
07C20000
1FC00000
3F800000
7F000000
7C000000
70000000
60000000
7FFFFFF0
FFFFFFE0
FFFFFFC0
FFFFFF80
7FFFFF00
ENDCHAR
STARTCHAR 06D4
ENCODING 1748
SWIDTH 193 0
DWIDTH 7 0
BBX 6 5 1 5
BITMAP
FC
FC
FC
FC
FC
ENDCHAR
STARTCHAR 06D5
ENCODING 1749
SWIDTH 332 0
DWIDTH 12 0
BBX 9 14 2 5
BITMAP
2000
3800
3C00
7E00
7F00
7F80
4F80
C780
C380
CF80
FF80
FF00
FE00
FC00
ENDCHAR
STARTCHAR 06D6
ENCODING 1750
SWIDTH 0 0
DWIDTH 0 0
BBX 16 12 -8 20
BITMAP
0C00
0C00
0C02
040F
0519
05A1
1FFF
3FFF
6000
C000
FFF8
FFF8
ENDCHAR
STARTCHAR 06D7
ENCODING 1751
SWIDTH 0 0
DWIDTH 0 0
BBX 13 13 -6 19
BITMAP
0040
1D00
0C80
09C0
0D60
05E0
0420
1FE0
3FE0
4000
8000
FFF8
FFF8
ENDCHAR
STARTCHAR 06D8
ENCODING 1752
SWIDTH 0 0
DWIDTH 0 0
BBX 8 5 -4 19
BITMAP
06
0E
1B
FF
F7
ENDCHAR
STARTCHAR 06D9
ENCODING 1753
SWIDTH 0 0
DWIDTH 0 0
BBX 8 11 -4 19
BITMAP
04
C3
E3
F2
52
0A
0C
0C
1A
1E
1E
ENDCHAR
STARTCHAR 06DA
ENCODING 1754
SWIDTH 0 0
DWIDTH 0 0
BBX 9 12 -5 19
BITMAP
7F80
7F00
9C00
2000
4000
4400
4E00
4400
4000
7000
7F80
1F00
ENDCHAR
STARTCHAR 06DB
ENCODING 1755
SWIDTH 0 0
DWIDTH 0 0
BBX 4 5 -2 19
BITMAP
40
C0
40
F0
D0
ENDCHAR
STARTCHAR 06DC
ENCODING 1756
SWIDTH 0 0
DWIDTH 0 0
BBX 14 8 -7 20
BITMAP
0114
4114
81FC
81FC
80E4
8100
FF00
FE00
ENDCHAR
STARTCHAR 06DD
ENCODING 1757
SWIDTH 1135 0
DWIDTH 41 0
BBX 39 39 1 -7
BITMAP
0001FF0000
000FFFE000
01FE00FE00
0130003100
013FFFF100
03FFFFFB80
07000005C0
0E000000E0
1C00000060
1800000030
3000000038
3000000018
6000000018
600000000C
600000000C
C00000000C
C000000006
C000000006
C000000006
C000000006
C000000006
C000000006
C000000004
C00000000C
600000000C
600000000C
6000000018
3000000018
3000000030
1800000030
1C00000060
0E000000C0
07C00007C0
033FFFFB80
013FFFF100
0138003900
00FF03FE00
000FFFC000
0000FE0000
ENDCHAR
STARTCHAR 06DE
ENCODING 1758
SWIDTH 1080 0
DWIDTH 39 0
BBX 37 37 1 -5
BITMAP
0000200000
0000700000
0000D80000
00018C0000
0003060000
0006030000
07FFFFFF00
061800C300
0630006300
0660003300
06C0001B00
0780000F00
0700000700
0600000300
0E00000380
1E007803C0
3600CC0360
6601040330
C601040318
4601040318
26018C0330
1600F80360
0E002003C0
0600000380
0600000300
0700000700
0680000F00
0640001B00
0620003300
0610006300
060800C300
07FFFFFF00
0002030000
0001060000
00008C0000
0000580000
0000300000
ENDCHAR
STARTCHAR 06DF
ENCODING 1759
SWIDTH 0 0
DWIDTH 0 0
BBX 2 2 -1 19
BITMAP
C0
C0
ENDCHAR
STARTCHAR 06E0
ENCODING 1760
SWIDTH 0 0
DWIDTH 0 0
BBX 2 2 -1 19
BITMAP
C0
C0
ENDCHAR
STARTCHAR 06E1
ENCODING 1761
SWIDTH 0 0
DWIDTH 0 0
BBX 10 6 -5 19
BITMAP
1800
3E00
0F00
0380
FFC0
FFC0
ENDCHAR
STARTCHAR 06E2
ENCODING 1762
SWIDTH 0 0
DWIDTH 0 0
BBX 6 11 -3 19
BITMAP
30
38
5C
3C
7C
C0
80
80
40
40
40
ENDCHAR
STARTCHAR 06E3
ENCODING 1763
SWIDTH 0 0
DWIDTH 0 0
BBX 14 9 -7 -8
BITMAP
0104
4114
813C
81FC
80FC
8100
FF00
FE00
1000
ENDCHAR
STARTCHAR 06E4
ENCODING 1764
SWIDTH 0 0
DWIDTH 0 0
BBX 4 1 -2 19
BITMAP
F0
ENDCHAR
STARTCHAR 06E5
ENCODING 1765
SWIDTH 221 0
DWIDTH 8 0
BBX 8 9 0 19
BITMAP
06
0F
0B
0F
0F
03
06
FE
3C
ENDCHAR
STARTCHAR 06E6
ENCODING 1766
SWIDTH 360 0
DWIDTH 13 0
BBX 13 8 0 19
BITMAP
0600
0E00
1A00
7000
E000
8000
FFF8
FFF0
ENDCHAR
STARTCHAR 06E7
ENCODING 1767
SWIDTH 0 0
DWIDTH 0 0
BBX 13 8 -7 19
BITMAP
0200
0600
1800
7800
7000
4000
FFF8
FFF0
ENDCHAR
STARTCHAR 06E8
ENCODING 1768
SWIDTH 0 0
DWIDTH 0 0
BBX 8 11 -4 19
BITMAP
18
18
09
01
41
81
81
81
81
FF
7E
ENDCHAR
STARTCHAR 06E9
ENCODING 1769
SWIDTH 609 0
DWIDTH 22 0
BBX 20 29 1 1
BITMAP
006000
00B000
011800
026C00
04B600
091B00
126D80
2496C0
490B60
9205B0
490B60
251640
131480
1B1500
0B1500
0B1500
0B1500
0B1500
0B1500
0B1500
0B1500
0B1500
0B1500
0B1500
0AE500
120580
23FCC0
600040
FFFFE0
ENDCHAR
STARTCHAR 06EA
ENCODING 1770
SWIDTH 0 0
DWIDTH 0 0
BBX 4 4 -2 -5
BITMAP
60
90
90
60
ENDCHAR
STARTCHAR 06EB
ENCODING 1771
SWIDTH 0 0
DWIDTH 0 0
BBX 6 5 -3 20
BITMAP
30
48
84
48
30
ENDCHAR
STARTCHAR 06EC
ENCODING 1772
SWIDTH 0 0
DWIDTH 0 0
BBX 2 2 -1 19
BITMAP
C0
C0
ENDCHAR
STARTCHAR 06ED
ENCODING 1773
SWIDTH 0 0
DWIDTH 0 0
BBX 6 10 -3 -8
BITMAP
38
5C
1C
7C
F0
80
80
40
40
40
ENDCHAR
STARTCHAR 06F0
ENCODING 1776
SWIDTH 553 0
DWIDTH 20 0
BBX 6 8 7 8
BITMAP
60
70
78
FC
FC
F8
78
18
ENDCHAR
STARTCHAR 06F1
ENCODING 1777
SWIDTH 553 0
DWIDTH 20 0
BBX 7 21 6 5
BITMAP
20
20
70
78
F8
F8
7C
7C
3C
1E
1E
0E
0E
0E
06
06
06
06
06
04
04
ENDCHAR
STARTCHAR 06F2
ENCODING 1778
SWIDTH 553 0
DWIDTH 20 0
BBX 10 21 5 5
BITMAP
4040
4040
E0C0
FFC0
FFC0
FFC0
7FC0
7F80
3F00
3C00
1C00
1E00
0E00
0E00
0E00
0600
0600
0600
0600
0200
0200
ENDCHAR
STARTCHAR 06F3
ENCODING 1779
SWIDTH 553 0
DWIDTH 20 0
BBX 14 21 3 5
BITMAP
4004
40C4
60CC
F9FC
FFFC
FFFC
FFFC
7FF8
3F70
3C00
1C00
1C00
1C00
0C00
0C00
0C00
0C00
0C00
0C00
0C00
0800
ENDCHAR
STARTCHAR 06F4
ENCODING 1780
SWIDTH 553 0
DWIDTH 20 0
BBX 14 22 3 5
BITMAP
0040
01F0
63F8
7380
7A00
FE04
FFFC
7FF8
3FF8
3FF0
1FE0
1F00
0E00
0E00
0E00
0600
0600
0600
0600
0600
0400
0400
ENDCHAR
STARTCHAR 06F5
ENCODING 1781
SWIDTH 553 0
DWIDTH 20 0
BBX 14 20 3 6
BITMAP
0200
0700
0780
07C0
07E0
03E0
07F0
0CF0
1878
1838
3038
301C
700C
708C
F9FC
FFF8
FFF8
7FF0
7FE0
1C00
ENDCHAR
STARTCHAR 06F6
ENCODING 1782
SWIDTH 553 0
DWIDTH 20 0
BBX 12 21 4 5
BITMAP
0780
1FC0
1FE0
3020
6000
6010
FFF0
FFF0
FFE0
FFE0
3F80
0F00
0E00
1C00
1C00
1800
1800
1800
1000
1000
1000
ENDCHAR
STARTCHAR 06F7
ENCODING 1783
SWIDTH 553 0
DWIDTH 20 0
BBX 13 21 3 5
BITMAP
8000
C008
C018
E018
F038
F038
F838
F870
7870
3C60
1CE0
1CC0
0EC0
0E80
0780
0780
0380
0380
0300
0300
0100
ENDCHAR
STARTCHAR 06F8
ENCODING 1784
SWIDTH 553 0
DWIDTH 20 0
BBX 14 20 3 5
BITMAP
0200
0300
0700
0700
0700
0780
0580
0DC0
0DC0
0CE0
18E0
18F0
3878
787C
F07C
F03C
F03C
E01C
E00C
C00C
ENDCHAR
STARTCHAR 06F9
ENCODING 1785
SWIDTH 553 0
DWIDTH 20 0
BBX 11 20 4 5
BITMAP
0E00
1F00
3F80
7F80
7F80
6380
E180
FF80
FF80
FF80
7F80
3F80
0180
01C0
01E0
01E0
01E0
00E0
00E0
0040
ENDCHAR
STARTCHAR 06FA
ENCODING 1786
SWIDTH 886 0
DWIDTH 32 0
BBX 31 30 1 -2
BITMAP
00000100
000001C0
000003C0
000003C0
00000190
00000038
0000033C
000003F8
000007B8
00000380
00000100
00000000
00008002
0000C026
0800C066
1801C066
1001E046
3000E0F6
6000FFFE
60007FFE
40007FFE
C0007FFE
C0007F0E
E000E000
F001C080
FC07C1E0
7FFFC1F0
7FFF83F0
3FFF01E0
0FFC0040
ENDCHAR
STARTCHAR 06FB
ENCODING 1787
SWIDTH 1052 0
DWIDTH 38 0
BBX 37 28 1 -2
BITMAP
000000C000
000001F000
000001F000
000003E000
000000E000
0000004000
0000000000
0000000000
00000001E0
00000007F0
0000800FF8
0000C03FF8
0800C07FF8
1801C1F018
1001C3E018
3000E78038
6000FFFFF8
60007FFFF8
40007FFFF8
C0007FFFF8
C0007FFFF8
E000E00000
F001C01000
FC07C03C00
7FFFC03E00
7FFF807C00
3FFF003C00
0FFC001800
ENDCHAR
STARTCHAR 06FC
ENCODING 1788
SWIDTH 553 0
DWIDTH 20 0
BBX 18 37 1 -7
BITMAP
040000
070000
0FC000
0F8000
0F0000
030000
000000
000000
000000
0FE000
1FF800
3FFC00
3C0000
700000
700000
780E00
7C7E00
7FFC00
3FFC00
3FF000
1F8000
3E0000
380000
700000
607000
C07C00
C0FC00
C0F800
C03800
E00000
F00000
F80000
FFE000
7FFFC0
3FFF00
1FFE00
0FF800
ENDCHAR
STARTCHAR 06FD
ENCODING 1789
SWIDTH 470 0
DWIDTH 17 0
BBX 13 23 2 -5
BITMAP
0F80
1FC0
3FC0
3FC0
7380
7000
F838
FCF8
7FF0
7FF0
3FC0
1F00
3C00
7000
6000
6000
0CE0
0CE0
0CE0
0CE0
0CE0
0CE0
0CE0
ENDCHAR
STARTCHAR 06FE
ENCODING 1790
SWIDTH 360 0
DWIDTH 13 0
BBX 12 22 1 -7
BITMAP
0F00
1F80
1FC0
3FE0
23F0
01F0
1FF0
7FF0
7FF0
FFF0
F000
C000
C000
C660
C660
6660
6660
6660
6660
2660
2000
2000
ENDCHAR
STARTCHAR 1E80
ENCODING 7808
SWIDTH 941 0
DWIDTH 34 0
BBX 34 33 0 0
BITMAP
000FC00000
0003C00000
0003E00000
0001E00000
0000F00000
0000000000
0000000000
FC03F007C0
FC03F80FC0
7C07F80F80
7C07F80F80
7C07F80F80
7E07FC0F80
3E0FFC1F80
3E0FFC1F00
3E0FBC1F00
3F0F3E1F00
1F1F3E1F00
1F1F3E3E00
1F1F1E3E00
1F1E1F3E00
0FBE1F3E00
0FBE1F7C00
0FBC0F7C00
0FFC0FFC00
0FFC0FFC00
07FC0FF800
07F807F800
07F807F800
07F807F800
03F803F000
03F003F000
03F003F000
ENDCHAR
STARTCHAR 1E81
ENCODING 7809
SWIDTH 775 0
DWIDTH 28 0
BBX 28 26 0 0
BITMAP
007E0000
003E0000
001F0000
000F0000
00078000
00000000
00000000
F80F81F0
781F81F0
7C1F81E0
7C1F83E0
7C1FC3E0
3C3FC3C0
3E3FC7C0
3E3FC7C0
1E3FE780
1F79EF80
1F79EF80
0F79EF00
0FF8FF00
0FF0FF00
07F0FF00
07F0FE00
07F07E00
03E07E00
03E07C00
ENDCHAR
ENDFONT
